M48
; DRILL file {KiCad (6.0.5)} date Mon May  1 10:01:18 2023
; FORMAT={-:-/ absolute / inch / decimal}
; #@! TF.CreationDate,2023-05-01T10:01:18+02:00
; #@! TF.GenerationSoftware,Kicad,Pcbnew,(6.0.5)
; #@! TF.FileFunction,Plated,1,2,PTH
FMAT,2
INCH
; #@! TA.AperFunction,Plated,PTH,ViaDrill
T1C0.0118
; #@! TA.AperFunction,Plated,PTH,ComponentDrill
T2C0.0256
; #@! TA.AperFunction,Plated,PTH,ComponentDrill
T3C0.0394
%
G90
G05
T1
X1.5906Y-2.4663
X1.622Y-2.5276
X1.6693Y-2.378
X1.6693Y-2.4409
X1.7835Y-2.1575
X1.7874Y-2.4094
X1.815Y-2.0636
X1.8386Y-2.0394
X1.8701Y-2.0591
X1.8917Y-2.2081
X1.8976Y-2.1772
X1.8976Y-2.5669
X1.9331Y-2.6811
X2.0Y-2.3234
X2.0144Y-1.9528
X2.022Y-2.3009
X2.0328Y-2.3602
X2.0354Y-2.5669
X2.0472Y-2.0
X2.0551Y-2.3379
X2.063Y-2.6811
X2.0906Y-2.0
X2.1024Y-2.6811
X2.1614Y-2.4488
X2.1929Y-2.4213
X2.2244Y-2.4488
X2.2638Y-2.0591
X2.3504Y-2.3465
X2.3937Y-1.9685
T3
X1.3004Y-1.2638
X1.4004Y-1.2638
X1.5004Y-1.2638
X1.6004Y-1.2638
X1.7004Y-1.2638
X1.7677Y-3.0945
X1.8677Y-3.0945
X1.9004Y-1.2638
X2.0004Y-1.2638
X2.1004Y-1.2638
X2.2004Y-1.2638
X2.3004Y-1.2638
X2.4004Y-1.2638
T2
G00X2.3907Y-3.938
M15
G01X2.3907Y-3.9124
M16
G05
G00X2.3907Y-4.0738
M15
G01X2.3907Y-4.0482
M16
G05
G00X2.6722Y-3.938
M15
G01X2.6722Y-3.9124
M16
G05
G00X2.6722Y-4.0738
M15
G01X2.6722Y-4.0482
M16
G05
T0
M30
