%TF.GenerationSoftware,KiCad,Pcbnew,(6.0.5)*%
%TF.CreationDate,2023-05-01T10:01:18+02:00*%
%TF.ProjectId,arduboy_AS_flavor,61726475-626f-4795-9f41-535f666c6176,rev?*%
%TF.SameCoordinates,Original*%
%TF.FileFunction,Paste,Top*%
%TF.FilePolarity,Positive*%
%FSLAX46Y46*%
G04 Gerber Fmt 4.6, Leading zero omitted, Abs format (unit mm)*
G04 Created by KiCad (PCBNEW (6.0.5)) date 2023-05-01 10:01:18*
%MOMM*%
%LPD*%
G01*
G04 APERTURE LIST*
G04 Aperture macros list*
%AMRoundRect*
0 Rectangle with rounded corners*
0 $1 Rounding radius*
0 $2 $3 $4 $5 $6 $7 $8 $9 X,Y pos of 4 corners*
0 Add a 4 corners polygon primitive as box body*
4,1,4,$2,$3,$4,$5,$6,$7,$8,$9,$2,$3,0*
0 Add four circle primitives for the rounded corners*
1,1,$1+$1,$2,$3*
1,1,$1+$1,$4,$5*
1,1,$1+$1,$6,$7*
1,1,$1+$1,$8,$9*
0 Add four rect primitives between the rounded corners*
20,1,$1+$1,$2,$3,$4,$5,0*
20,1,$1+$1,$4,$5,$6,$7,0*
20,1,$1+$1,$6,$7,$8,$9,0*
20,1,$1+$1,$8,$9,$2,$3,0*%
%AMRotRect*
0 Rectangle, with rotation*
0 The origin of the aperture is its center*
0 $1 length*
0 $2 width*
0 $3 Rotation angle, in degrees counterclockwise*
0 Add horizontal line*
21,1,$1,$2,0,0,$3*%
G04 Aperture macros list end*
%ADD10R,0.550000X1.500000*%
%ADD11R,1.500000X0.550000*%
%ADD12RoundRect,0.155000X-0.155000X0.212500X-0.155000X-0.212500X0.155000X-0.212500X0.155000X0.212500X0*%
%ADD13RoundRect,0.155000X-0.212500X-0.155000X0.212500X-0.155000X0.212500X0.155000X-0.212500X0.155000X0*%
%ADD14RoundRect,0.155000X0.155000X-0.212500X0.155000X0.212500X-0.155000X0.212500X-0.155000X-0.212500X0*%
%ADD15RoundRect,0.237500X-0.300000X-0.237500X0.300000X-0.237500X0.300000X0.237500X-0.300000X0.237500X0*%
%ADD16RoundRect,0.155000X0.212500X0.155000X-0.212500X0.155000X-0.212500X-0.155000X0.212500X-0.155000X0*%
%ADD17RoundRect,0.237500X0.287500X0.237500X-0.287500X0.237500X-0.287500X-0.237500X0.287500X-0.237500X0*%
%ADD18RoundRect,0.237500X0.237500X-0.287500X0.237500X0.287500X-0.237500X0.287500X-0.237500X-0.287500X0*%
%ADD19RoundRect,0.237500X-0.287500X-0.237500X0.287500X-0.237500X0.287500X0.237500X-0.287500X0.237500X0*%
%ADD20RoundRect,0.250000X-0.275000X-0.350000X0.275000X-0.350000X0.275000X0.350000X-0.275000X0.350000X0*%
%ADD21RoundRect,0.237500X0.237500X-0.300000X0.237500X0.300000X-0.237500X0.300000X-0.237500X-0.300000X0*%
%ADD22RoundRect,0.150000X-0.650000X-0.150000X0.650000X-0.150000X0.650000X0.150000X-0.650000X0.150000X0*%
%ADD23R,1.560000X0.650000*%
%ADD24R,1.000000X0.750000*%
%ADD25R,2.000000X2.000000*%
%ADD26RotRect,2.000000X2.000000X225.000000*%
%ADD27RotRect,1.000000X0.750000X225.000000*%
%ADD28RotRect,1.000000X0.750000X315.000000*%
%ADD29RotRect,2.000000X2.000000X315.000000*%
%ADD30RotRect,1.000000X0.750000X135.000000*%
%ADD31RotRect,2.000000X2.000000X135.000000*%
%ADD32RotRect,1.000000X0.750000X45.000000*%
%ADD33RotRect,2.000000X2.000000X45.000000*%
%ADD34R,0.350000X3.000000*%
%ADD35R,0.400000X1.400000*%
%ADD36R,1.400000X1.200000*%
%ADD37R,6.000000X3.000000*%
G04 APERTURE END LIST*
D10*
%TO.C,U1*%
X48500000Y-63700000D03*
X49300000Y-63700000D03*
X50100000Y-63700000D03*
X50900000Y-63700000D03*
X51700000Y-63700000D03*
X52500000Y-63700000D03*
X53300000Y-63700000D03*
X54100000Y-63700000D03*
X54900000Y-63700000D03*
X55700000Y-63700000D03*
X56500000Y-63700000D03*
D11*
X58200000Y-62000000D03*
X58200000Y-61200000D03*
X58200000Y-60400000D03*
X58200000Y-59600000D03*
X58200000Y-58800000D03*
X58200000Y-58000000D03*
X58200000Y-57200000D03*
X58200000Y-56400000D03*
X58200000Y-55600000D03*
X58200000Y-54800000D03*
X58200000Y-54000000D03*
D10*
X56500000Y-52300000D03*
X55700000Y-52300000D03*
X54900000Y-52300000D03*
X54100000Y-52300000D03*
X53300000Y-52300000D03*
X52500000Y-52300000D03*
X51700000Y-52300000D03*
X50900000Y-52300000D03*
X50100000Y-52300000D03*
X49300000Y-52300000D03*
X48500000Y-52300000D03*
D11*
X46800000Y-54000000D03*
X46800000Y-54800000D03*
X46800000Y-55600000D03*
X46800000Y-56400000D03*
X46800000Y-57200000D03*
X46800000Y-58000000D03*
X46800000Y-58800000D03*
X46800000Y-59600000D03*
X46800000Y-60400000D03*
X46800000Y-61200000D03*
X46800000Y-62000000D03*
%TD*%
D12*
%TO.C,C2*%
X67800000Y-59232500D03*
X67800000Y-60367500D03*
%TD*%
D13*
%TO.C,C3*%
X64532500Y-62100000D03*
X65667500Y-62100000D03*
%TD*%
%TO.C,C4*%
X68032500Y-41500000D03*
X69167500Y-41500000D03*
%TD*%
D14*
%TO.C,C5*%
X39000000Y-42767500D03*
X39000000Y-41632500D03*
%TD*%
%TO.C,C6*%
X41900000Y-42967500D03*
X41900000Y-41832500D03*
%TD*%
D15*
%TO.C,C7*%
X63437500Y-78800000D03*
X65162500Y-78800000D03*
%TD*%
D14*
%TO.C,C10*%
X43300000Y-43167500D03*
X43300000Y-42032500D03*
%TD*%
%TO.C,C11*%
X44500000Y-43367500D03*
X44500000Y-42232500D03*
%TD*%
D13*
%TO.C,C12*%
X53732500Y-79000000D03*
X54867500Y-79000000D03*
%TD*%
%TO.C,C13*%
X50132500Y-82700000D03*
X51267500Y-82700000D03*
%TD*%
D15*
%TO.C,C14*%
X46137500Y-42900000D03*
X47862500Y-42900000D03*
%TD*%
%TO.C,C15*%
X49837500Y-43000000D03*
X51562500Y-43000000D03*
%TD*%
D16*
%TO.C,C16*%
X44467500Y-60400000D03*
X43332500Y-60400000D03*
%TD*%
D12*
%TO.C,C17*%
X49100000Y-66032500D03*
X49100000Y-67167500D03*
%TD*%
D16*
%TO.C,C19*%
X44467500Y-62000000D03*
X43332500Y-62000000D03*
%TD*%
D13*
%TO.C,C20*%
X60532500Y-60200000D03*
X61667500Y-60200000D03*
%TD*%
%TO.C,C21*%
X58632500Y-50000000D03*
X59767500Y-50000000D03*
%TD*%
D16*
%TO.C,C22*%
X44467500Y-54000000D03*
X43332500Y-54000000D03*
%TD*%
D13*
%TO.C,C27*%
X65032500Y-98300000D03*
X66167500Y-98300000D03*
%TD*%
D17*
%TO.C,D2*%
X26475000Y-40300000D03*
X24725000Y-40300000D03*
%TD*%
D18*
%TO.C,D5*%
X70400000Y-101575000D03*
X70400000Y-99825000D03*
%TD*%
D19*
%TO.C,D6*%
X63425000Y-86800000D03*
X65175000Y-86800000D03*
%TD*%
%TO.C,D9*%
X26525000Y-31300000D03*
X28275000Y-31300000D03*
%TD*%
D20*
%TO.C,FB1*%
X61050000Y-97500000D03*
X63350000Y-97500000D03*
%TD*%
D16*
%TO.C,R1*%
X61667500Y-61200000D03*
X60532500Y-61200000D03*
%TD*%
D13*
%TO.C,R2*%
X60532500Y-41500000D03*
X61667500Y-41500000D03*
%TD*%
%TO.C,R3*%
X65432500Y-41600000D03*
X66567500Y-41600000D03*
%TD*%
%TO.C,R4*%
X62932500Y-41500000D03*
X64067500Y-41500000D03*
%TD*%
%TO.C,R6*%
X69532500Y-98200000D03*
X70667500Y-98200000D03*
%TD*%
%TO.C,R7*%
X66832500Y-87500000D03*
X67967500Y-87500000D03*
%TD*%
%TO.C,R9*%
X25232500Y-35200000D03*
X26367500Y-35200000D03*
%TD*%
%TO.C,R10*%
X25332500Y-32900000D03*
X26467500Y-32900000D03*
%TD*%
%TO.C,R11*%
X25332500Y-34000000D03*
X26467500Y-34000000D03*
%TD*%
%TO.C,R12*%
X50232500Y-80100000D03*
X51367500Y-80100000D03*
%TD*%
%TO.C,R13*%
X23432500Y-30900000D03*
X24567500Y-30900000D03*
%TD*%
%TO.C,R14*%
X26665000Y-29700000D03*
X27800000Y-29700000D03*
%TD*%
D15*
%TO.C,R15*%
X23837500Y-56300000D03*
X25562500Y-56300000D03*
%TD*%
D13*
%TO.C,R16*%
X50232500Y-81400000D03*
X51367500Y-81400000D03*
%TD*%
D21*
%TO.C,R17*%
X40500000Y-43062500D03*
X40500000Y-41337500D03*
%TD*%
D14*
%TO.C,R20*%
X51100000Y-67167500D03*
X51100000Y-66032500D03*
%TD*%
%TO.C,R21*%
X50100000Y-67167500D03*
X50100000Y-66032500D03*
%TD*%
D22*
%TO.C,U2*%
X61200000Y-35895000D03*
X61200000Y-37165000D03*
X61200000Y-38435000D03*
X61200000Y-39705000D03*
X68400000Y-39705000D03*
X68400000Y-38435000D03*
X68400000Y-37165000D03*
X68400000Y-35895000D03*
%TD*%
D23*
%TO.C,U4*%
X53900000Y-80600000D03*
X53900000Y-81550000D03*
X53900000Y-82500000D03*
X56600000Y-82500000D03*
X56600000Y-80600000D03*
%TD*%
D24*
%TO.C,SW1*%
X68500000Y-91125000D03*
X62500000Y-91125000D03*
D25*
X62500000Y-93000000D03*
X68500000Y-93000000D03*
D24*
X62500000Y-94875000D03*
X68500000Y-94875000D03*
%TD*%
D26*
%TO.C,SW2*%
X37121320Y-60878680D03*
D27*
X34204505Y-66447146D03*
X38447146Y-62204505D03*
D26*
X32878680Y-65121320D03*
D27*
X31552854Y-63795495D03*
X35795495Y-59552854D03*
%TD*%
D28*
%TO.C,SW4*%
X31947146Y-70295495D03*
X27704505Y-66052854D03*
D29*
X26378680Y-67378680D03*
D28*
X29295495Y-72947146D03*
D29*
X30621320Y-71621320D03*
D28*
X25052854Y-68704505D03*
%TD*%
D30*
%TO.C,SW5*%
X38052854Y-68704505D03*
X42295495Y-72947146D03*
D31*
X43621320Y-71621320D03*
D30*
X40704505Y-66052854D03*
X44947146Y-70295495D03*
D31*
X39378680Y-67378680D03*
%TD*%
D25*
%TO.C,SW6*%
X53000000Y-73000000D03*
D24*
X53000000Y-71125000D03*
X59000000Y-71125000D03*
X59000000Y-74875000D03*
X53000000Y-74875000D03*
D25*
X59000000Y-73000000D03*
%TD*%
%TO.C,SW7*%
X68500000Y-68500000D03*
D24*
X62500000Y-70375000D03*
X68500000Y-70375000D03*
X62500000Y-66625000D03*
D25*
X62500000Y-68500000D03*
D24*
X68500000Y-66625000D03*
%TD*%
D32*
%TO.C,SW3*%
X35795495Y-72552854D03*
D33*
X32878680Y-78121320D03*
D32*
X31552854Y-76795495D03*
D33*
X37121320Y-73878680D03*
D32*
X34204505Y-79447146D03*
X38447146Y-75204505D03*
%TD*%
D34*
%TO.C,J1*%
X36850000Y-46300000D03*
X37550000Y-46300000D03*
X38250000Y-46300000D03*
X38950000Y-46300000D03*
X39650000Y-46300000D03*
X40350000Y-46300000D03*
X41050000Y-46300000D03*
X41750000Y-46300000D03*
X42450000Y-46300000D03*
X43150000Y-46300000D03*
X43850000Y-46300000D03*
X44550000Y-46300000D03*
X45250000Y-46300000D03*
X45950000Y-46300000D03*
X46650000Y-46300000D03*
X47350000Y-46300000D03*
X48050000Y-46300000D03*
X48750000Y-46300000D03*
X49450000Y-46300000D03*
X50150000Y-46300000D03*
X50850000Y-46300000D03*
X51550000Y-46300000D03*
X52250000Y-46300000D03*
X52950000Y-46300000D03*
X53650000Y-46300000D03*
X54350000Y-46300000D03*
X55050000Y-46300000D03*
X55750000Y-46300000D03*
X56450000Y-46300000D03*
X57150000Y-46300000D03*
%TD*%
D35*
%TO.C,J3*%
X63000000Y-100200000D03*
X63650000Y-100200000D03*
X64300000Y-100200000D03*
X64950000Y-100200000D03*
X65600000Y-100200000D03*
%TD*%
D36*
%TO.C,Y1*%
X64000000Y-60650000D03*
X66200000Y-60650000D03*
X66200000Y-58950000D03*
X64000000Y-58950000D03*
%TD*%
D17*
%TO.C,D3*%
X26475000Y-38600000D03*
X24725000Y-38600000D03*
%TD*%
%TO.C,D4*%
X26475000Y-36900000D03*
X24725000Y-36900000D03*
%TD*%
D37*
%TO.C,JP1*%
X28900000Y-53400000D03*
X28900000Y-43400000D03*
%TD*%
D19*
%TO.C,D8*%
X23225000Y-29400000D03*
X24975000Y-29400000D03*
%TD*%
D17*
%TO.C,D7*%
X30875000Y-82500000D03*
X29125000Y-82500000D03*
%TD*%
D12*
%TO.C,C18*%
X53400000Y-66032500D03*
X53400000Y-67167500D03*
%TD*%
%TO.C,C28*%
X52400000Y-66032500D03*
X52400000Y-67167500D03*
%TD*%
M02*
