%TF.GenerationSoftware,KiCad,Pcbnew,(6.0.5)*%
%TF.CreationDate,2023-05-01T10:01:18+02:00*%
%TF.ProjectId,arduboy_AS_flavor,61726475-626f-4795-9f41-535f666c6176,rev?*%
%TF.SameCoordinates,Original*%
%TF.FileFunction,Other,Comment*%
%FSLAX46Y46*%
G04 Gerber Fmt 4.6, Leading zero omitted, Abs format (unit mm)*
G04 Created by KiCad (PCBNEW (6.0.5)) date 2023-05-01 10:01:18*
%MOMM*%
%LPD*%
G01*
G04 APERTURE LIST*
%ADD10C,0.150000*%
G04 APERTURE END LIST*
D10*
X74000000Y-20000000D02*
X74000000Y-106000000D01*
X20000000Y-20000000D02*
X74000000Y-20000000D01*
X20000000Y-106000000D02*
X74000000Y-106000000D01*
X20000000Y-20000000D02*
X20000000Y-106000000D01*
X20071428Y-19452380D02*
X20071428Y-18452380D01*
X20404761Y-19166666D01*
X20738095Y-18452380D01*
X20738095Y-19452380D01*
X21642857Y-19452380D02*
X21642857Y-18928571D01*
X21595238Y-18833333D01*
X21500000Y-18785714D01*
X21309523Y-18785714D01*
X21214285Y-18833333D01*
X21642857Y-19404761D02*
X21547619Y-19452380D01*
X21309523Y-19452380D01*
X21214285Y-19404761D01*
X21166666Y-19309523D01*
X21166666Y-19214285D01*
X21214285Y-19119047D01*
X21309523Y-19071428D01*
X21547619Y-19071428D01*
X21642857Y-19023809D01*
X22023809Y-19452380D02*
X22547619Y-18785714D01*
X22023809Y-18785714D02*
X22547619Y-19452380D01*
X24119047Y-18785714D02*
X24119047Y-19452380D01*
X23690476Y-18785714D02*
X23690476Y-19309523D01*
X23738095Y-19404761D01*
X23833333Y-19452380D01*
X23976190Y-19452380D01*
X24071428Y-19404761D01*
X24119047Y-19357142D01*
X24595238Y-18785714D02*
X24595238Y-19452380D01*
X24595238Y-18880952D02*
X24642857Y-18833333D01*
X24738095Y-18785714D01*
X24880952Y-18785714D01*
X24976190Y-18833333D01*
X25023809Y-18928571D01*
X25023809Y-19452380D01*
X25500000Y-19452380D02*
X25500000Y-18785714D01*
X25500000Y-18452380D02*
X25452380Y-18500000D01*
X25500000Y-18547619D01*
X25547619Y-18500000D01*
X25500000Y-18452380D01*
X25500000Y-18547619D01*
X25833333Y-18785714D02*
X26214285Y-18785714D01*
X25976190Y-18452380D02*
X25976190Y-19309523D01*
X26023809Y-19404761D01*
X26119047Y-19452380D01*
X26214285Y-19452380D01*
X27261904Y-19404761D02*
X27357142Y-19452380D01*
X27547619Y-19452380D01*
X27642857Y-19404761D01*
X27690476Y-19309523D01*
X27690476Y-19261904D01*
X27642857Y-19166666D01*
X27547619Y-19119047D01*
X27404761Y-19119047D01*
X27309523Y-19071428D01*
X27261904Y-18976190D01*
X27261904Y-18928571D01*
X27309523Y-18833333D01*
X27404761Y-18785714D01*
X27547619Y-18785714D01*
X27642857Y-18833333D01*
X28119047Y-19452380D02*
X28119047Y-18785714D01*
X28119047Y-18452380D02*
X28071428Y-18500000D01*
X28119047Y-18547619D01*
X28166666Y-18500000D01*
X28119047Y-18452380D01*
X28119047Y-18547619D01*
X28500000Y-18785714D02*
X29023809Y-18785714D01*
X28500000Y-19452380D01*
X29023809Y-19452380D01*
X29785714Y-19404761D02*
X29690476Y-19452380D01*
X29500000Y-19452380D01*
X29404761Y-19404761D01*
X29357142Y-19309523D01*
X29357142Y-18928571D01*
X29404761Y-18833333D01*
X29500000Y-18785714D01*
X29690476Y-18785714D01*
X29785714Y-18833333D01*
X29833333Y-18928571D01*
X29833333Y-19023809D01*
X29357142Y-19119047D01*
X31309523Y-19833333D02*
X31261904Y-19785714D01*
X31166666Y-19642857D01*
X31119047Y-19547619D01*
X31071428Y-19404761D01*
X31023809Y-19166666D01*
X31023809Y-18976190D01*
X31071428Y-18738095D01*
X31119047Y-18595238D01*
X31166666Y-18500000D01*
X31261904Y-18357142D01*
X31309523Y-18309523D01*
X31833333Y-18880952D02*
X31738095Y-18833333D01*
X31690476Y-18785714D01*
X31642857Y-18690476D01*
X31642857Y-18642857D01*
X31690476Y-18547619D01*
X31738095Y-18500000D01*
X31833333Y-18452380D01*
X32023809Y-18452380D01*
X32119047Y-18500000D01*
X32166666Y-18547619D01*
X32214285Y-18642857D01*
X32214285Y-18690476D01*
X32166666Y-18785714D01*
X32119047Y-18833333D01*
X32023809Y-18880952D01*
X31833333Y-18880952D01*
X31738095Y-18928571D01*
X31690476Y-18976190D01*
X31642857Y-19071428D01*
X31642857Y-19261904D01*
X31690476Y-19357142D01*
X31738095Y-19404761D01*
X31833333Y-19452380D01*
X32023809Y-19452380D01*
X32119047Y-19404761D01*
X32166666Y-19357142D01*
X32214285Y-19261904D01*
X32214285Y-19071428D01*
X32166666Y-18976190D01*
X32119047Y-18928571D01*
X32023809Y-18880952D01*
X33071428Y-18452380D02*
X32880952Y-18452380D01*
X32785714Y-18500000D01*
X32738095Y-18547619D01*
X32642857Y-18690476D01*
X32595238Y-18880952D01*
X32595238Y-19261904D01*
X32642857Y-19357142D01*
X32690476Y-19404761D01*
X32785714Y-19452380D01*
X32976190Y-19452380D01*
X33071428Y-19404761D01*
X33119047Y-19357142D01*
X33166666Y-19261904D01*
X33166666Y-19023809D01*
X33119047Y-18928571D01*
X33071428Y-18880952D01*
X32976190Y-18833333D01*
X32785714Y-18833333D01*
X32690476Y-18880952D01*
X32642857Y-18928571D01*
X32595238Y-19023809D01*
X33500000Y-19452380D02*
X34023809Y-18785714D01*
X33500000Y-18785714D02*
X34023809Y-19452380D01*
X34880952Y-18452380D02*
X34404761Y-18452380D01*
X34357142Y-18928571D01*
X34404761Y-18880952D01*
X34500000Y-18833333D01*
X34738095Y-18833333D01*
X34833333Y-18880952D01*
X34880952Y-18928571D01*
X34928571Y-19023809D01*
X34928571Y-19261904D01*
X34880952Y-19357142D01*
X34833333Y-19404761D01*
X34738095Y-19452380D01*
X34500000Y-19452380D01*
X34404761Y-19404761D01*
X34357142Y-19357142D01*
X35785714Y-18785714D02*
X35785714Y-19452380D01*
X35547619Y-18404761D02*
X35309523Y-19119047D01*
X35928571Y-19119047D01*
X37071428Y-19452380D02*
X37071428Y-18785714D01*
X37071428Y-18880952D02*
X37119047Y-18833333D01*
X37214285Y-18785714D01*
X37357142Y-18785714D01*
X37452380Y-18833333D01*
X37500000Y-18928571D01*
X37500000Y-19452380D01*
X37500000Y-18928571D02*
X37547619Y-18833333D01*
X37642857Y-18785714D01*
X37785714Y-18785714D01*
X37880952Y-18833333D01*
X37928571Y-18928571D01*
X37928571Y-19452380D01*
X38404761Y-19452380D02*
X38404761Y-18785714D01*
X38404761Y-18880952D02*
X38452380Y-18833333D01*
X38547619Y-18785714D01*
X38690476Y-18785714D01*
X38785714Y-18833333D01*
X38833333Y-18928571D01*
X38833333Y-19452380D01*
X38833333Y-18928571D02*
X38880952Y-18833333D01*
X38976190Y-18785714D01*
X39119047Y-18785714D01*
X39214285Y-18833333D01*
X39261904Y-18928571D01*
X39261904Y-19452380D01*
X39642857Y-19833333D02*
X39690476Y-19785714D01*
X39785714Y-19642857D01*
X39833333Y-19547619D01*
X39880952Y-19404761D01*
X39928571Y-19166666D01*
X39928571Y-18976190D01*
X39880952Y-18738095D01*
X39833333Y-18595238D01*
X39785714Y-18500000D01*
X39690476Y-18357142D01*
X39642857Y-18309523D01*
M02*
