%TF.GenerationSoftware,KiCad,Pcbnew,(6.0.5)*%
%TF.CreationDate,2023-05-01T10:01:18+02:00*%
%TF.ProjectId,arduboy_AS_flavor,61726475-626f-4795-9f41-535f666c6176,rev?*%
%TF.SameCoordinates,Original*%
%TF.FileFunction,Copper,L2,Bot*%
%TF.FilePolarity,Positive*%
%FSLAX46Y46*%
G04 Gerber Fmt 4.6, Leading zero omitted, Abs format (unit mm)*
G04 Created by KiCad (PCBNEW (6.0.5)) date 2023-05-01 10:01:18*
%MOMM*%
%LPD*%
G01*
G04 APERTURE LIST*
%TA.AperFunction,ComponentPad*%
%ADD10O,1.700000X1.700000*%
%TD*%
%TA.AperFunction,ComponentPad*%
%ADD11R,1.700000X1.700000*%
%TD*%
%TA.AperFunction,ComponentPad*%
%ADD12O,1.250000X1.900000*%
%TD*%
%TA.AperFunction,ViaPad*%
%ADD13C,0.600000*%
%TD*%
%TA.AperFunction,Conductor*%
%ADD14C,0.200000*%
%TD*%
G04 APERTURE END LIST*
D10*
%TO.P,J2,1,Pin_1*%
%TO.N,VCC*%
X60970000Y-32100000D03*
%TO.P,J2,2,Pin_2*%
%TO.N,GND*%
X58430000Y-32100000D03*
%TO.P,J2,3,Pin_3*%
%TO.N,RST*%
X55890000Y-32100000D03*
%TO.P,J2,4,Pin_4*%
%TO.N,SCLK*%
X53350000Y-32100000D03*
%TO.P,J2,5,Pin_5*%
%TO.N,MOSI*%
X50810000Y-32100000D03*
%TO.P,J2,6,Pin_6*%
%TO.N,MISO*%
X48270000Y-32100000D03*
%TO.P,J2,8,Pin_8*%
%TO.N,A5*%
X43190000Y-32100000D03*
%TO.P,J2,9,Pin_9*%
%TO.N,RX*%
X40650000Y-32100000D03*
%TO.P,J2,10,Pin_10*%
%TO.N,SCL*%
X38110000Y-32100000D03*
%TO.P,J2,11,Pin_11*%
%TO.N,SDA+FCS*%
X35570000Y-32100000D03*
D11*
%TO.P,J2,12,Pin_12*%
%TO.N,TX*%
X33030000Y-32100000D03*
%TD*%
D12*
%TO.P,J3,6,Shield*%
%TO.N,unconnected-(J3-Pad6)*%
X60725000Y-99700000D03*
X60725000Y-103150000D03*
X67875000Y-99700000D03*
X67875000Y-103150000D03*
%TD*%
D11*
%TO.P,JP2,1,1*%
%TO.N,GND*%
X44900000Y-78600000D03*
D10*
%TO.P,JP2,2,2*%
%TO.N,+BATT*%
X47440000Y-78600000D03*
%TD*%
D13*
%TO.N,GND*%
X57500000Y-52300000D03*
X52400000Y-68100000D03*
X45400000Y-61200000D03*
X47500000Y-52300000D03*
X53400000Y-68100000D03*
X60800000Y-50000000D03*
X42400000Y-60400000D03*
X45300000Y-54800000D03*
X51700000Y-65200000D03*
X59700000Y-59600000D03*
X42400000Y-62000000D03*
X49100000Y-68100000D03*
%TO.N,MOSI*%
X55700000Y-61500000D03*
%TO.N,SCK*%
X54900000Y-62200000D03*
%TO.N,OLED_RST*%
X51164963Y-49600000D03*
X53100000Y-50800000D03*
%TO.N,MISO*%
X56500000Y-62200000D03*
%TO.N,LED_G*%
X51358058Y-58441942D03*
X52200000Y-59383884D03*
X46700000Y-51800000D03*
X48200000Y-55300000D03*
%TO.N,RX_LED*%
X51634313Y-59949571D03*
X46100000Y-52414579D03*
X48048440Y-56085514D03*
X50800486Y-59015629D03*
%TO.N,Btn_RIGHT*%
X40400000Y-62642886D03*
X41200000Y-64200000D03*
%TO.N,Btn_A*%
X48200000Y-65200000D03*
%TO.N,Btn_B*%
X52000000Y-50800000D03*
%TD*%
D14*
%TO.N,MOSI*%
X55300010Y-61100010D02*
X55300010Y-42899990D01*
X55700000Y-61500000D02*
X55300010Y-61100010D01*
%TO.N,SCK*%
X54900000Y-62200000D02*
X54900000Y-42600000D01*
%TO.N,OLED_RST*%
X53100000Y-50800000D02*
X51900000Y-49600000D01*
X51900000Y-49600000D02*
X51164963Y-49600000D01*
%TO.N,MISO*%
X55700020Y-60612018D02*
X55700020Y-43100000D01*
X56500000Y-62200000D02*
X56500000Y-61411998D01*
X56500000Y-61411998D02*
X55700020Y-60612018D01*
%TO.N,LED_G*%
X46700000Y-53800000D02*
X46700000Y-51800000D01*
X48200000Y-55300000D02*
X46700000Y-53800000D01*
X52200000Y-59383884D02*
X52200000Y-59283884D01*
X52200000Y-59283884D02*
X51358058Y-58441942D01*
%TO.N,RX_LED*%
X51634313Y-59949571D02*
X51634313Y-59849456D01*
X46100000Y-54137074D02*
X46100000Y-52414579D01*
X48048440Y-56085514D02*
X46100000Y-54137074D01*
X51634313Y-59849456D02*
X50800486Y-59015629D01*
%TO.N,Btn_RIGHT*%
X40400000Y-63400000D02*
X41200000Y-64200000D01*
X40400000Y-62642886D02*
X40400000Y-63400000D01*
%TD*%
%TA.AperFunction,Conductor*%
%TO.N,GND*%
G36*
X28081520Y-22020185D02*
G01*
X28127275Y-22072989D01*
X28137219Y-22142147D01*
X28108194Y-22205703D01*
X28078345Y-22230789D01*
X28068205Y-22236882D01*
X27966944Y-22297725D01*
X27828576Y-22428573D01*
X27721533Y-22586082D01*
X27719041Y-22592312D01*
X27719039Y-22592316D01*
X27704387Y-22628950D01*
X27650810Y-22762902D01*
X27649714Y-22769522D01*
X27649713Y-22769526D01*
X27634895Y-22859038D01*
X27619707Y-22950784D01*
X27629674Y-23140962D01*
X27680246Y-23324564D01*
X27683378Y-23330504D01*
X27746102Y-23449470D01*
X27769064Y-23493022D01*
X27773395Y-23498147D01*
X27773397Y-23498150D01*
X27839219Y-23576039D01*
X27891985Y-23638479D01*
X28043272Y-23754147D01*
X28215869Y-23834630D01*
X28222420Y-23836094D01*
X28222422Y-23836095D01*
X28324706Y-23858958D01*
X28401721Y-23876173D01*
X28407569Y-23876500D01*
X28547573Y-23876500D01*
X28689325Y-23861101D01*
X28869817Y-23800358D01*
X28993085Y-23726292D01*
X29027298Y-23705735D01*
X29027300Y-23705734D01*
X29033056Y-23702275D01*
X29171424Y-23571427D01*
X29201354Y-23527387D01*
X29274693Y-23419472D01*
X29274695Y-23419469D01*
X29278467Y-23413918D01*
X29280959Y-23407688D01*
X29280961Y-23407684D01*
X29346696Y-23243333D01*
X29349190Y-23237098D01*
X29364034Y-23147435D01*
X29379196Y-23055844D01*
X29379196Y-23055842D01*
X29380293Y-23049216D01*
X29370326Y-22859038D01*
X29319754Y-22675436D01*
X29230936Y-22506978D01*
X29226605Y-22501853D01*
X29226603Y-22501850D01*
X29112348Y-22366648D01*
X29112346Y-22366646D01*
X29108015Y-22361521D01*
X28956728Y-22245853D01*
X28937490Y-22236882D01*
X28885051Y-22190709D01*
X28865899Y-22123515D01*
X28886115Y-22056634D01*
X28939281Y-22011300D01*
X28989895Y-22000500D01*
X65014481Y-22000500D01*
X65081520Y-22020185D01*
X65127275Y-22072989D01*
X65137219Y-22142147D01*
X65108194Y-22205703D01*
X65078345Y-22230789D01*
X65068205Y-22236882D01*
X64966944Y-22297725D01*
X64828576Y-22428573D01*
X64721533Y-22586082D01*
X64719041Y-22592312D01*
X64719039Y-22592316D01*
X64704387Y-22628950D01*
X64650810Y-22762902D01*
X64649714Y-22769522D01*
X64649713Y-22769526D01*
X64634895Y-22859038D01*
X64619707Y-22950784D01*
X64629674Y-23140962D01*
X64680246Y-23324564D01*
X64683378Y-23330504D01*
X64746102Y-23449470D01*
X64769064Y-23493022D01*
X64773395Y-23498147D01*
X64773397Y-23498150D01*
X64839219Y-23576039D01*
X64891985Y-23638479D01*
X65043272Y-23754147D01*
X65215869Y-23834630D01*
X65222420Y-23836094D01*
X65222422Y-23836095D01*
X65324706Y-23858958D01*
X65401721Y-23876173D01*
X65407569Y-23876500D01*
X65547573Y-23876500D01*
X65689325Y-23861101D01*
X65869817Y-23800358D01*
X65993085Y-23726292D01*
X66027298Y-23705735D01*
X66027300Y-23705734D01*
X66033056Y-23702275D01*
X66171424Y-23571427D01*
X66201354Y-23527387D01*
X66274693Y-23419472D01*
X66274695Y-23419469D01*
X66278467Y-23413918D01*
X66280959Y-23407688D01*
X66280961Y-23407684D01*
X66346696Y-23243333D01*
X66349190Y-23237098D01*
X66364034Y-23147435D01*
X66379196Y-23055844D01*
X66379196Y-23055842D01*
X66380293Y-23049216D01*
X66370326Y-22859038D01*
X66319754Y-22675436D01*
X66230936Y-22506978D01*
X66226605Y-22501853D01*
X66226603Y-22501850D01*
X66112348Y-22366648D01*
X66112346Y-22366646D01*
X66108015Y-22361521D01*
X65956728Y-22245853D01*
X65937490Y-22236882D01*
X65885051Y-22190709D01*
X65865899Y-22123515D01*
X65886115Y-22056634D01*
X65939281Y-22011300D01*
X65989895Y-22000500D01*
X70262861Y-22000500D01*
X70284391Y-22002384D01*
X70300000Y-22005136D01*
X70310685Y-22003252D01*
X70321531Y-22003252D01*
X70321531Y-22003574D01*
X70333988Y-22002931D01*
X70533021Y-22017166D01*
X70550527Y-22019683D01*
X70720387Y-22056634D01*
X70770139Y-22067457D01*
X70787113Y-22072441D01*
X70997689Y-22150981D01*
X71013783Y-22158331D01*
X71211044Y-22266044D01*
X71225907Y-22275596D01*
X71405843Y-22410295D01*
X71419207Y-22421875D01*
X71578125Y-22580793D01*
X71589705Y-22594157D01*
X71724404Y-22774093D01*
X71733956Y-22788956D01*
X71775885Y-22865743D01*
X71841669Y-22986217D01*
X71849019Y-23002311D01*
X71927559Y-23212887D01*
X71932543Y-23229861D01*
X71975087Y-23425427D01*
X71980317Y-23449470D01*
X71982834Y-23466979D01*
X71997069Y-23666011D01*
X71996426Y-23678469D01*
X71996748Y-23678469D01*
X71996748Y-23689315D01*
X71994864Y-23700000D01*
X71996748Y-23710683D01*
X71997616Y-23715606D01*
X71999500Y-23737139D01*
X71999500Y-102262861D01*
X71997616Y-102284391D01*
X71994864Y-102300000D01*
X71996748Y-102310685D01*
X71996748Y-102321531D01*
X71996426Y-102321531D01*
X71997069Y-102333988D01*
X71985329Y-102498150D01*
X71982835Y-102533017D01*
X71980317Y-102550527D01*
X71936910Y-102750066D01*
X71932543Y-102770139D01*
X71927559Y-102787113D01*
X71849019Y-102997689D01*
X71841669Y-103013783D01*
X71733956Y-103211044D01*
X71724404Y-103225907D01*
X71589705Y-103405843D01*
X71578125Y-103419207D01*
X71419207Y-103578125D01*
X71405843Y-103589705D01*
X71225907Y-103724404D01*
X71211044Y-103733956D01*
X71038263Y-103828302D01*
X71013783Y-103841669D01*
X70997689Y-103849019D01*
X70787113Y-103927559D01*
X70770139Y-103932543D01*
X70550527Y-103980317D01*
X70533021Y-103982834D01*
X70333988Y-103997069D01*
X70321531Y-103996426D01*
X70321531Y-103996748D01*
X70310685Y-103996748D01*
X70300000Y-103994864D01*
X70284391Y-103997616D01*
X70262861Y-103999500D01*
X68848380Y-103999500D01*
X68781341Y-103979815D01*
X68735586Y-103927011D01*
X68725642Y-103857853D01*
X68730449Y-103837182D01*
X68783254Y-103674663D01*
X68783255Y-103674660D01*
X68785262Y-103668482D01*
X68800500Y-103523504D01*
X68800500Y-102776496D01*
X68785262Y-102631518D01*
X68767809Y-102577801D01*
X68753257Y-102533017D01*
X68725144Y-102446492D01*
X68706338Y-102413918D01*
X68676507Y-102362250D01*
X68627870Y-102278008D01*
X68596649Y-102243333D01*
X68502041Y-102138261D01*
X68497692Y-102133431D01*
X68340299Y-102019078D01*
X68186907Y-101950784D01*
X68168510Y-101942593D01*
X68168508Y-101942592D01*
X68162571Y-101939949D01*
X68132727Y-101933606D01*
X67978637Y-101900852D01*
X67978632Y-101900852D01*
X67972274Y-101899500D01*
X67777726Y-101899500D01*
X67771368Y-101900852D01*
X67771363Y-101900852D01*
X67617273Y-101933606D01*
X67587429Y-101939949D01*
X67581492Y-101942592D01*
X67581490Y-101942593D01*
X67563093Y-101950784D01*
X67409701Y-102019078D01*
X67252308Y-102133431D01*
X67247959Y-102138261D01*
X67153352Y-102243333D01*
X67122130Y-102278008D01*
X67073493Y-102362250D01*
X67043663Y-102413918D01*
X67024856Y-102446492D01*
X66996743Y-102533017D01*
X66982192Y-102577801D01*
X66964738Y-102631518D01*
X66949500Y-102776496D01*
X66949500Y-103523504D01*
X66964738Y-103668482D01*
X66966745Y-103674660D01*
X66966746Y-103674663D01*
X67019551Y-103837182D01*
X67021546Y-103907024D01*
X66985465Y-103966856D01*
X66922764Y-103997684D01*
X66901620Y-103999500D01*
X61698380Y-103999500D01*
X61631341Y-103979815D01*
X61585586Y-103927011D01*
X61575642Y-103857853D01*
X61580449Y-103837182D01*
X61633254Y-103674663D01*
X61633255Y-103674660D01*
X61635262Y-103668482D01*
X61650500Y-103523504D01*
X61650500Y-102776496D01*
X61635262Y-102631518D01*
X61617809Y-102577801D01*
X61603257Y-102533017D01*
X61575144Y-102446492D01*
X61556338Y-102413918D01*
X61526507Y-102362250D01*
X61477870Y-102278008D01*
X61446649Y-102243333D01*
X61352041Y-102138261D01*
X61347692Y-102133431D01*
X61190299Y-102019078D01*
X61036907Y-101950784D01*
X61018510Y-101942593D01*
X61018508Y-101942592D01*
X61012571Y-101939949D01*
X60982727Y-101933606D01*
X60828637Y-101900852D01*
X60828632Y-101900852D01*
X60822274Y-101899500D01*
X60627726Y-101899500D01*
X60621368Y-101900852D01*
X60621363Y-101900852D01*
X60467273Y-101933606D01*
X60437429Y-101939949D01*
X60431492Y-101942592D01*
X60431490Y-101942593D01*
X60413093Y-101950784D01*
X60259701Y-102019078D01*
X60102308Y-102133431D01*
X60097959Y-102138261D01*
X60003352Y-102243333D01*
X59972130Y-102278008D01*
X59923493Y-102362250D01*
X59893663Y-102413918D01*
X59874856Y-102446492D01*
X59846743Y-102533017D01*
X59832192Y-102577801D01*
X59814738Y-102631518D01*
X59799500Y-102776496D01*
X59799500Y-103523504D01*
X59814738Y-103668482D01*
X59816745Y-103674660D01*
X59816746Y-103674663D01*
X59869551Y-103837182D01*
X59871546Y-103907024D01*
X59835465Y-103966856D01*
X59772764Y-103997684D01*
X59751620Y-103999500D01*
X23737139Y-103999500D01*
X23715609Y-103997616D01*
X23700000Y-103994864D01*
X23689315Y-103996748D01*
X23678469Y-103996748D01*
X23678469Y-103996426D01*
X23666012Y-103997069D01*
X23466979Y-103982834D01*
X23449473Y-103980317D01*
X23229861Y-103932543D01*
X23212887Y-103927559D01*
X23002311Y-103849019D01*
X22986217Y-103841669D01*
X22961737Y-103828302D01*
X22788956Y-103733956D01*
X22774093Y-103724404D01*
X22594157Y-103589705D01*
X22580793Y-103578125D01*
X22421875Y-103419207D01*
X22410295Y-103405843D01*
X22275596Y-103225907D01*
X22266044Y-103211044D01*
X22158331Y-103013783D01*
X22150981Y-102997689D01*
X22072441Y-102787113D01*
X22067457Y-102770139D01*
X22063090Y-102750066D01*
X22019683Y-102550527D01*
X22017165Y-102533017D01*
X22014672Y-102498150D01*
X22002931Y-102333988D01*
X22003574Y-102321531D01*
X22003252Y-102321531D01*
X22003252Y-102310685D01*
X22005136Y-102300000D01*
X22002384Y-102284391D01*
X22000500Y-102262861D01*
X22000500Y-101950784D01*
X23119707Y-101950784D01*
X23129674Y-102140962D01*
X23180246Y-102324564D01*
X23269064Y-102493022D01*
X23273395Y-102498147D01*
X23273397Y-102498150D01*
X23339219Y-102576039D01*
X23391985Y-102638479D01*
X23543272Y-102754147D01*
X23715869Y-102834630D01*
X23722420Y-102836094D01*
X23722422Y-102836095D01*
X23791573Y-102851552D01*
X23901721Y-102876173D01*
X23907569Y-102876500D01*
X24047573Y-102876500D01*
X24189325Y-102861101D01*
X24369817Y-102800358D01*
X24533056Y-102702275D01*
X24671424Y-102571427D01*
X24691515Y-102541864D01*
X24774693Y-102419472D01*
X24774695Y-102419469D01*
X24778467Y-102413918D01*
X24780959Y-102407688D01*
X24780961Y-102407684D01*
X24834758Y-102273180D01*
X24849190Y-102237098D01*
X24864034Y-102147435D01*
X24879196Y-102055844D01*
X24879196Y-102055842D01*
X24880293Y-102049216D01*
X24870326Y-101859038D01*
X24819754Y-101675436D01*
X24730936Y-101506978D01*
X24726605Y-101501853D01*
X24726603Y-101501850D01*
X24612348Y-101366648D01*
X24612346Y-101366646D01*
X24608015Y-101361521D01*
X24456728Y-101245853D01*
X24284131Y-101165370D01*
X24277580Y-101163906D01*
X24277578Y-101163905D01*
X24103240Y-101124936D01*
X24103241Y-101124936D01*
X24098279Y-101123827D01*
X24092431Y-101123500D01*
X23952427Y-101123500D01*
X23810675Y-101138899D01*
X23630183Y-101199642D01*
X23624425Y-101203102D01*
X23474074Y-101293441D01*
X23466944Y-101297725D01*
X23328576Y-101428573D01*
X23324803Y-101434125D01*
X23324802Y-101434126D01*
X23227375Y-101577486D01*
X23221533Y-101586082D01*
X23219041Y-101592312D01*
X23219039Y-101592316D01*
X23188170Y-101669496D01*
X23150810Y-101762902D01*
X23149714Y-101769522D01*
X23149713Y-101769526D01*
X23121063Y-101942593D01*
X23119707Y-101950784D01*
X22000500Y-101950784D01*
X22000500Y-100985412D01*
X61670773Y-100985412D01*
X61671263Y-100993195D01*
X61679461Y-101123500D01*
X61680696Y-101143138D01*
X61683105Y-101150552D01*
X61683106Y-101150557D01*
X61703124Y-101212164D01*
X61729533Y-101293441D01*
X61814214Y-101426877D01*
X61869273Y-101478581D01*
X61923731Y-101529722D01*
X61923733Y-101529724D01*
X61929418Y-101535062D01*
X61936253Y-101538820D01*
X61936255Y-101538821D01*
X61998249Y-101572902D01*
X62067908Y-101611197D01*
X62144444Y-101630848D01*
X62213424Y-101648560D01*
X62213427Y-101648560D01*
X62220981Y-101650500D01*
X62339350Y-101650500D01*
X62343210Y-101650012D01*
X62343216Y-101650012D01*
X62449054Y-101636642D01*
X62449058Y-101636641D01*
X62456792Y-101635664D01*
X62464042Y-101632794D01*
X62464044Y-101632793D01*
X62596483Y-101580356D01*
X62596482Y-101580356D01*
X62603732Y-101577486D01*
X62731587Y-101484594D01*
X62784784Y-101420290D01*
X62827351Y-101368835D01*
X62827353Y-101368832D01*
X62832324Y-101362823D01*
X62864586Y-101294265D01*
X62896292Y-101226886D01*
X62896292Y-101226884D01*
X62899614Y-101219826D01*
X62902805Y-101203102D01*
X62927766Y-101072246D01*
X62929227Y-101064588D01*
X62924246Y-100985412D01*
X65670773Y-100985412D01*
X65671263Y-100993195D01*
X65679461Y-101123500D01*
X65680696Y-101143138D01*
X65683105Y-101150552D01*
X65683106Y-101150557D01*
X65703124Y-101212164D01*
X65729533Y-101293441D01*
X65814214Y-101426877D01*
X65869273Y-101478581D01*
X65923731Y-101529722D01*
X65923733Y-101529724D01*
X65929418Y-101535062D01*
X65936253Y-101538820D01*
X65936255Y-101538821D01*
X65998249Y-101572902D01*
X66067908Y-101611197D01*
X66144444Y-101630848D01*
X66213424Y-101648560D01*
X66213427Y-101648560D01*
X66220981Y-101650500D01*
X66339350Y-101650500D01*
X66343210Y-101650012D01*
X66343216Y-101650012D01*
X66449054Y-101636642D01*
X66449058Y-101636641D01*
X66456792Y-101635664D01*
X66464042Y-101632794D01*
X66464044Y-101632793D01*
X66596483Y-101580356D01*
X66596482Y-101580356D01*
X66603732Y-101577486D01*
X66731587Y-101484594D01*
X66784784Y-101420290D01*
X66827351Y-101368835D01*
X66827353Y-101368832D01*
X66832324Y-101362823D01*
X66864586Y-101294265D01*
X66896292Y-101226886D01*
X66896292Y-101226884D01*
X66899614Y-101219826D01*
X66902805Y-101203102D01*
X66927766Y-101072246D01*
X66929227Y-101064588D01*
X66919304Y-100906862D01*
X66916895Y-100899448D01*
X66916894Y-100899443D01*
X66872877Y-100763977D01*
X66870467Y-100756559D01*
X66785786Y-100623123D01*
X66719440Y-100560819D01*
X66676269Y-100520278D01*
X66676267Y-100520276D01*
X66670582Y-100514938D01*
X66663747Y-100511180D01*
X66663745Y-100511179D01*
X66601337Y-100476871D01*
X66532092Y-100438803D01*
X66432992Y-100413358D01*
X66386576Y-100401440D01*
X66386573Y-100401440D01*
X66379019Y-100399500D01*
X66260650Y-100399500D01*
X66256790Y-100399988D01*
X66256784Y-100399988D01*
X66150946Y-100413358D01*
X66150942Y-100413359D01*
X66143208Y-100414336D01*
X66135958Y-100417206D01*
X66135956Y-100417207D01*
X66037474Y-100456199D01*
X65996268Y-100472514D01*
X65868413Y-100565406D01*
X65863439Y-100571419D01*
X65772649Y-100681165D01*
X65772647Y-100681168D01*
X65767676Y-100687177D01*
X65700386Y-100830174D01*
X65670773Y-100985412D01*
X62924246Y-100985412D01*
X62919304Y-100906862D01*
X62916895Y-100899448D01*
X62916894Y-100899443D01*
X62872877Y-100763977D01*
X62870467Y-100756559D01*
X62785786Y-100623123D01*
X62719440Y-100560819D01*
X62676269Y-100520278D01*
X62676267Y-100520276D01*
X62670582Y-100514938D01*
X62663747Y-100511180D01*
X62663745Y-100511179D01*
X62601337Y-100476871D01*
X62532092Y-100438803D01*
X62432992Y-100413358D01*
X62386576Y-100401440D01*
X62386573Y-100401440D01*
X62379019Y-100399500D01*
X62260650Y-100399500D01*
X62256790Y-100399988D01*
X62256784Y-100399988D01*
X62150946Y-100413358D01*
X62150942Y-100413359D01*
X62143208Y-100414336D01*
X62135958Y-100417206D01*
X62135956Y-100417207D01*
X62037474Y-100456199D01*
X61996268Y-100472514D01*
X61868413Y-100565406D01*
X61863439Y-100571419D01*
X61772649Y-100681165D01*
X61772647Y-100681168D01*
X61767676Y-100687177D01*
X61700386Y-100830174D01*
X61670773Y-100985412D01*
X22000500Y-100985412D01*
X22000500Y-100073504D01*
X59799500Y-100073504D01*
X59814738Y-100218482D01*
X59874856Y-100403508D01*
X59878103Y-100409133D01*
X59878104Y-100409134D01*
X59917343Y-100477098D01*
X59972130Y-100571992D01*
X60102308Y-100716569D01*
X60107566Y-100720389D01*
X60107567Y-100720390D01*
X60157349Y-100756559D01*
X60259701Y-100830922D01*
X60265636Y-100833564D01*
X60265637Y-100833565D01*
X60413603Y-100899443D01*
X60437429Y-100910051D01*
X60443791Y-100911403D01*
X60443790Y-100911403D01*
X60621363Y-100949148D01*
X60621368Y-100949148D01*
X60627726Y-100950500D01*
X60822274Y-100950500D01*
X60828632Y-100949148D01*
X60828637Y-100949148D01*
X61006210Y-100911403D01*
X61006209Y-100911403D01*
X61012571Y-100910051D01*
X61036398Y-100899443D01*
X61184363Y-100833565D01*
X61184364Y-100833564D01*
X61190299Y-100830922D01*
X61292651Y-100756559D01*
X61342433Y-100720390D01*
X61342434Y-100720389D01*
X61347692Y-100716569D01*
X61477870Y-100571992D01*
X61532657Y-100477098D01*
X61571896Y-100409134D01*
X61571897Y-100409133D01*
X61575144Y-100403508D01*
X61635262Y-100218482D01*
X61650500Y-100073504D01*
X66949500Y-100073504D01*
X66964738Y-100218482D01*
X67024856Y-100403508D01*
X67028103Y-100409133D01*
X67028104Y-100409134D01*
X67067343Y-100477098D01*
X67122130Y-100571992D01*
X67252308Y-100716569D01*
X67257566Y-100720389D01*
X67257567Y-100720390D01*
X67307349Y-100756559D01*
X67409701Y-100830922D01*
X67415636Y-100833564D01*
X67415637Y-100833565D01*
X67563603Y-100899443D01*
X67587429Y-100910051D01*
X67593791Y-100911403D01*
X67593790Y-100911403D01*
X67771363Y-100949148D01*
X67771368Y-100949148D01*
X67777726Y-100950500D01*
X67972274Y-100950500D01*
X67978632Y-100949148D01*
X67978637Y-100949148D01*
X68156210Y-100911403D01*
X68156209Y-100911403D01*
X68162571Y-100910051D01*
X68186398Y-100899443D01*
X68334363Y-100833565D01*
X68334364Y-100833564D01*
X68340299Y-100830922D01*
X68442651Y-100756559D01*
X68492433Y-100720390D01*
X68492434Y-100720389D01*
X68497692Y-100716569D01*
X68627870Y-100571992D01*
X68682657Y-100477098D01*
X68721896Y-100409134D01*
X68721897Y-100409133D01*
X68725144Y-100403508D01*
X68785262Y-100218482D01*
X68800500Y-100073504D01*
X68800500Y-99326496D01*
X68785262Y-99181518D01*
X68725144Y-98996492D01*
X68627870Y-98828008D01*
X68497692Y-98683431D01*
X68340299Y-98569078D01*
X68162571Y-98489949D01*
X68132727Y-98483606D01*
X67978637Y-98450852D01*
X67978632Y-98450852D01*
X67972274Y-98449500D01*
X67777726Y-98449500D01*
X67771368Y-98450852D01*
X67771363Y-98450852D01*
X67617273Y-98483606D01*
X67587429Y-98489949D01*
X67409701Y-98569078D01*
X67252308Y-98683431D01*
X67122130Y-98828008D01*
X67024856Y-98996492D01*
X66964738Y-99181518D01*
X66949500Y-99326496D01*
X66949500Y-100073504D01*
X61650500Y-100073504D01*
X61650500Y-99326496D01*
X61635262Y-99181518D01*
X61575144Y-98996492D01*
X61477870Y-98828008D01*
X61347692Y-98683431D01*
X61190299Y-98569078D01*
X61012571Y-98489949D01*
X60982727Y-98483606D01*
X60828637Y-98450852D01*
X60828632Y-98450852D01*
X60822274Y-98449500D01*
X60627726Y-98449500D01*
X60621368Y-98450852D01*
X60621363Y-98450852D01*
X60467273Y-98483606D01*
X60437429Y-98489949D01*
X60259701Y-98569078D01*
X60102308Y-98683431D01*
X59972130Y-98828008D01*
X59874856Y-98996492D01*
X59814738Y-99181518D01*
X59799500Y-99326496D01*
X59799500Y-100073504D01*
X22000500Y-100073504D01*
X22000500Y-83900000D01*
X67344396Y-83900000D01*
X67364779Y-84158994D01*
X67425427Y-84411610D01*
X67524846Y-84651628D01*
X67660588Y-84873140D01*
X67829311Y-85070689D01*
X68026860Y-85239412D01*
X68248372Y-85375154D01*
X68488390Y-85474573D01*
X68493126Y-85475710D01*
X68736273Y-85534085D01*
X68736277Y-85534086D01*
X68741006Y-85535221D01*
X68745856Y-85535603D01*
X68745858Y-85535603D01*
X68799071Y-85539791D01*
X68935147Y-85550500D01*
X69064853Y-85550500D01*
X69200929Y-85539791D01*
X69254142Y-85535603D01*
X69254144Y-85535603D01*
X69258994Y-85535221D01*
X69263723Y-85534086D01*
X69263727Y-85534085D01*
X69506874Y-85475710D01*
X69511610Y-85474573D01*
X69751628Y-85375154D01*
X69973140Y-85239412D01*
X70170689Y-85070689D01*
X70339412Y-84873140D01*
X70475154Y-84651628D01*
X70574573Y-84411610D01*
X70635221Y-84158994D01*
X70655604Y-83900000D01*
X70635221Y-83641006D01*
X70574573Y-83388390D01*
X70475154Y-83148372D01*
X70339412Y-82926860D01*
X70170689Y-82729311D01*
X69973140Y-82560588D01*
X69751628Y-82424846D01*
X69511610Y-82325427D01*
X69493043Y-82320970D01*
X69263727Y-82265915D01*
X69263723Y-82265914D01*
X69258994Y-82264779D01*
X69254144Y-82264397D01*
X69254142Y-82264397D01*
X69200929Y-82260209D01*
X69064853Y-82249500D01*
X68935147Y-82249500D01*
X68799071Y-82260209D01*
X68745858Y-82264397D01*
X68745856Y-82264397D01*
X68741006Y-82264779D01*
X68736277Y-82265914D01*
X68736273Y-82265915D01*
X68506957Y-82320970D01*
X68488390Y-82325427D01*
X68248372Y-82424846D01*
X68026860Y-82560588D01*
X67829311Y-82729311D01*
X67660588Y-82926860D01*
X67524846Y-83148372D01*
X67425427Y-83388390D01*
X67364779Y-83641006D01*
X67344396Y-83900000D01*
X22000500Y-83900000D01*
X22000500Y-79500000D01*
X23344396Y-79500000D01*
X23344778Y-79504854D01*
X23360147Y-79700133D01*
X23364779Y-79758994D01*
X23365915Y-79763725D01*
X23365915Y-79763726D01*
X23386627Y-79849999D01*
X23425427Y-80011610D01*
X23524846Y-80251628D01*
X23660588Y-80473140D01*
X23829311Y-80670689D01*
X24026860Y-80839412D01*
X24248372Y-80975154D01*
X24488390Y-81074573D01*
X24493126Y-81075710D01*
X24736273Y-81134085D01*
X24736277Y-81134086D01*
X24741006Y-81135221D01*
X24745856Y-81135603D01*
X24745858Y-81135603D01*
X24799071Y-81139791D01*
X24935147Y-81150500D01*
X25064853Y-81150500D01*
X25200929Y-81139791D01*
X25254142Y-81135603D01*
X25254144Y-81135603D01*
X25258994Y-81135221D01*
X25263723Y-81134086D01*
X25263727Y-81134085D01*
X25506874Y-81075710D01*
X25511610Y-81074573D01*
X25751628Y-80975154D01*
X25973140Y-80839412D01*
X26170689Y-80670689D01*
X26339412Y-80473140D01*
X26475154Y-80251628D01*
X26574573Y-80011610D01*
X26613373Y-79849999D01*
X26634085Y-79763726D01*
X26634085Y-79763725D01*
X26635221Y-79758994D01*
X26639854Y-79700133D01*
X26655222Y-79504854D01*
X26655604Y-79500000D01*
X26653763Y-79476609D01*
X43650001Y-79476609D01*
X43650763Y-79486289D01*
X43663309Y-79565513D01*
X43669264Y-79583840D01*
X43717929Y-79679350D01*
X43729261Y-79694947D01*
X43805053Y-79770739D01*
X43820650Y-79782071D01*
X43916155Y-79830734D01*
X43934495Y-79836692D01*
X44013697Y-79849236D01*
X44023399Y-79850000D01*
X44682170Y-79850000D01*
X44697169Y-79845596D01*
X44698356Y-79844226D01*
X44700000Y-79836668D01*
X44700000Y-79832169D01*
X45100000Y-79832169D01*
X45104404Y-79847168D01*
X45105774Y-79848355D01*
X45113332Y-79849999D01*
X45776609Y-79849999D01*
X45786289Y-79849237D01*
X45865513Y-79836691D01*
X45883840Y-79830736D01*
X45979350Y-79782071D01*
X45994947Y-79770739D01*
X46070739Y-79694947D01*
X46082071Y-79679350D01*
X46130734Y-79583845D01*
X46136692Y-79565505D01*
X46149236Y-79486303D01*
X46150000Y-79476601D01*
X46150000Y-79115184D01*
X46169685Y-79048145D01*
X46222489Y-79002390D01*
X46291647Y-78992446D01*
X46355203Y-79021471D01*
X46386610Y-79063271D01*
X46389692Y-79069955D01*
X46439369Y-79177714D01*
X46561405Y-79350391D01*
X46712865Y-79497937D01*
X46717588Y-79501093D01*
X46717592Y-79501096D01*
X46788663Y-79548584D01*
X46888677Y-79615411D01*
X47082953Y-79698878D01*
X47146283Y-79713208D01*
X47283638Y-79744289D01*
X47283642Y-79744290D01*
X47289186Y-79745544D01*
X47415651Y-79750513D01*
X47494789Y-79753623D01*
X47494791Y-79753623D01*
X47500470Y-79753846D01*
X47506090Y-79753031D01*
X47506092Y-79753031D01*
X47704103Y-79724320D01*
X47704104Y-79724320D01*
X47709730Y-79723504D01*
X47788890Y-79696633D01*
X47904565Y-79657367D01*
X47904568Y-79657366D01*
X47909955Y-79655537D01*
X47914916Y-79652759D01*
X47914922Y-79652756D01*
X48037979Y-79583840D01*
X48094442Y-79552219D01*
X48163066Y-79495146D01*
X48252645Y-79420644D01*
X48257012Y-79417012D01*
X48260644Y-79412645D01*
X48388584Y-79258813D01*
X48388585Y-79258811D01*
X48392219Y-79254442D01*
X48438080Y-79172552D01*
X48492756Y-79074922D01*
X48492759Y-79074916D01*
X48495537Y-79069955D01*
X48502941Y-79048145D01*
X48561675Y-78875118D01*
X48563504Y-78869730D01*
X48593846Y-78660470D01*
X48595429Y-78600000D01*
X48576081Y-78389440D01*
X48518686Y-78185931D01*
X48425165Y-77996290D01*
X48298651Y-77826867D01*
X48294481Y-77823012D01*
X48294478Y-77823009D01*
X48230319Y-77763702D01*
X48143381Y-77683337D01*
X48065959Y-77634487D01*
X47969363Y-77573539D01*
X47969361Y-77573538D01*
X47964554Y-77570505D01*
X47768160Y-77492152D01*
X47762579Y-77491042D01*
X47762576Y-77491041D01*
X47664468Y-77471527D01*
X47560775Y-77450901D01*
X47555088Y-77450827D01*
X47555083Y-77450826D01*
X47355034Y-77448207D01*
X47355029Y-77448207D01*
X47349346Y-77448133D01*
X47343742Y-77449096D01*
X47343741Y-77449096D01*
X47146550Y-77482979D01*
X47146547Y-77482980D01*
X47140953Y-77483941D01*
X46942575Y-77557127D01*
X46937697Y-77560029D01*
X46937695Y-77560030D01*
X46765740Y-77662332D01*
X46765737Y-77662334D01*
X46760856Y-77665238D01*
X46601881Y-77804655D01*
X46598362Y-77809119D01*
X46598359Y-77809122D01*
X46580782Y-77831419D01*
X46470976Y-77970708D01*
X46468325Y-77975747D01*
X46383737Y-78136521D01*
X46335102Y-78186685D01*
X46267067Y-78202591D01*
X46201233Y-78179190D01*
X46158501Y-78123910D01*
X46149999Y-78078785D01*
X46149999Y-77723391D01*
X46149237Y-77713711D01*
X46136691Y-77634487D01*
X46130736Y-77616160D01*
X46082071Y-77520650D01*
X46070739Y-77505053D01*
X45994947Y-77429261D01*
X45979350Y-77417929D01*
X45883845Y-77369266D01*
X45865505Y-77363308D01*
X45786303Y-77350764D01*
X45776601Y-77350000D01*
X45117830Y-77350000D01*
X45102831Y-77354404D01*
X45101644Y-77355774D01*
X45100000Y-77363332D01*
X45100000Y-79832169D01*
X44700000Y-79832169D01*
X44700000Y-78817830D01*
X44695596Y-78802831D01*
X44694226Y-78801644D01*
X44686668Y-78800000D01*
X43667831Y-78800000D01*
X43652832Y-78804404D01*
X43651645Y-78805774D01*
X43650001Y-78813332D01*
X43650001Y-79476609D01*
X26653763Y-79476609D01*
X26635603Y-79245858D01*
X26635603Y-79245856D01*
X26635221Y-79241006D01*
X26621140Y-79182352D01*
X26575710Y-78993126D01*
X26574573Y-78988390D01*
X26475154Y-78748372D01*
X26339412Y-78526860D01*
X26215835Y-78382170D01*
X43650000Y-78382170D01*
X43654404Y-78397169D01*
X43655774Y-78398356D01*
X43663332Y-78400000D01*
X44682170Y-78400000D01*
X44697169Y-78395596D01*
X44698356Y-78394226D01*
X44700000Y-78386668D01*
X44700000Y-77367831D01*
X44695596Y-77352832D01*
X44694226Y-77351645D01*
X44686668Y-77350001D01*
X44023391Y-77350001D01*
X44013711Y-77350763D01*
X43934487Y-77363309D01*
X43916160Y-77369264D01*
X43820650Y-77417929D01*
X43805053Y-77429261D01*
X43729261Y-77505053D01*
X43717929Y-77520650D01*
X43669266Y-77616155D01*
X43663308Y-77634495D01*
X43650764Y-77713697D01*
X43650000Y-77723399D01*
X43650000Y-78382170D01*
X26215835Y-78382170D01*
X26170689Y-78329311D01*
X25973140Y-78160588D01*
X25751628Y-78024846D01*
X25511610Y-77925427D01*
X25493043Y-77920970D01*
X25263727Y-77865915D01*
X25263723Y-77865914D01*
X25258994Y-77864779D01*
X25254144Y-77864397D01*
X25254142Y-77864397D01*
X25200929Y-77860209D01*
X25064853Y-77849500D01*
X24935147Y-77849500D01*
X24799071Y-77860209D01*
X24745858Y-77864397D01*
X24745856Y-77864397D01*
X24741006Y-77864779D01*
X24736277Y-77865914D01*
X24736273Y-77865915D01*
X24506957Y-77920970D01*
X24488390Y-77925427D01*
X24248372Y-78024846D01*
X24026860Y-78160588D01*
X23829311Y-78329311D01*
X23660588Y-78526860D01*
X23524846Y-78748372D01*
X23425427Y-78988390D01*
X23424290Y-78993126D01*
X23378861Y-79182352D01*
X23364779Y-79241006D01*
X23364397Y-79245856D01*
X23364397Y-79245858D01*
X23346237Y-79476609D01*
X23344396Y-79500000D01*
X22000500Y-79500000D01*
X22000500Y-65200000D01*
X47594318Y-65200000D01*
X47614956Y-65356762D01*
X47675464Y-65502841D01*
X47771718Y-65628282D01*
X47897159Y-65724536D01*
X47904667Y-65727646D01*
X48035729Y-65781934D01*
X48035731Y-65781935D01*
X48043238Y-65785044D01*
X48200000Y-65805682D01*
X48208059Y-65804621D01*
X48348703Y-65786105D01*
X48356762Y-65785044D01*
X48364269Y-65781935D01*
X48364271Y-65781934D01*
X48495333Y-65727646D01*
X48502841Y-65724536D01*
X48628282Y-65628282D01*
X48724536Y-65502841D01*
X48785044Y-65356762D01*
X48805682Y-65200000D01*
X48785044Y-65043238D01*
X48724536Y-64897159D01*
X48628282Y-64771718D01*
X48502841Y-64675464D01*
X48388934Y-64628282D01*
X48364271Y-64618066D01*
X48364269Y-64618065D01*
X48356762Y-64614956D01*
X48200000Y-64594318D01*
X48043238Y-64614956D01*
X48035731Y-64618065D01*
X48035729Y-64618066D01*
X48011066Y-64628282D01*
X47897159Y-64675464D01*
X47771718Y-64771718D01*
X47675464Y-64897159D01*
X47614956Y-65043238D01*
X47594318Y-65200000D01*
X22000500Y-65200000D01*
X22000500Y-62642886D01*
X39794318Y-62642886D01*
X39814956Y-62799648D01*
X39875464Y-62945727D01*
X39880411Y-62952174D01*
X39971718Y-63071168D01*
X39969564Y-63072821D01*
X39996666Y-63122454D01*
X39999500Y-63148812D01*
X39999500Y-63463433D01*
X40002515Y-63472711D01*
X40006345Y-63484499D01*
X40010889Y-63503424D01*
X40014354Y-63525304D01*
X40018783Y-63533997D01*
X40018785Y-63534002D01*
X40024413Y-63545048D01*
X40031857Y-63563019D01*
X40034663Y-63571653D01*
X40038704Y-63584090D01*
X40051728Y-63602016D01*
X40061892Y-63618602D01*
X40071950Y-63638342D01*
X40094513Y-63660905D01*
X40094516Y-63660909D01*
X40559060Y-64125453D01*
X40592545Y-64186776D01*
X40593972Y-64200046D01*
X40594318Y-64200000D01*
X40614956Y-64356762D01*
X40675464Y-64502841D01*
X40771718Y-64628282D01*
X40897159Y-64724536D01*
X40904667Y-64727646D01*
X41035729Y-64781934D01*
X41035731Y-64781935D01*
X41043238Y-64785044D01*
X41200000Y-64805682D01*
X41208059Y-64804621D01*
X41348703Y-64786105D01*
X41356762Y-64785044D01*
X41364269Y-64781935D01*
X41364271Y-64781934D01*
X41495333Y-64727646D01*
X41502841Y-64724536D01*
X41628282Y-64628282D01*
X41724536Y-64502841D01*
X41785044Y-64356762D01*
X41805682Y-64200000D01*
X41785044Y-64043238D01*
X41724536Y-63897159D01*
X41628282Y-63771718D01*
X41502841Y-63675464D01*
X41467693Y-63660905D01*
X41364271Y-63618066D01*
X41364269Y-63618065D01*
X41356762Y-63614956D01*
X41200000Y-63594318D01*
X41200354Y-63591626D01*
X41146095Y-63575694D01*
X41125453Y-63559060D01*
X40836819Y-63270426D01*
X40803334Y-63209103D01*
X40800500Y-63182745D01*
X40800500Y-63148812D01*
X40820185Y-63081773D01*
X40828559Y-63071381D01*
X40828282Y-63071168D01*
X40919589Y-62952174D01*
X40924536Y-62945727D01*
X40985044Y-62799648D01*
X41005682Y-62642886D01*
X40985044Y-62486124D01*
X40931461Y-62356762D01*
X40927646Y-62347553D01*
X40924536Y-62340045D01*
X40828282Y-62214604D01*
X40809250Y-62200000D01*
X54294318Y-62200000D01*
X54314956Y-62356762D01*
X54318065Y-62364269D01*
X54318066Y-62364271D01*
X54371878Y-62494183D01*
X54375464Y-62502841D01*
X54471718Y-62628282D01*
X54597159Y-62724536D01*
X54604667Y-62727646D01*
X54735729Y-62781934D01*
X54735731Y-62781935D01*
X54743238Y-62785044D01*
X54900000Y-62805682D01*
X54908059Y-62804621D01*
X55048703Y-62786105D01*
X55056762Y-62785044D01*
X55064269Y-62781935D01*
X55064271Y-62781934D01*
X55195333Y-62727646D01*
X55202841Y-62724536D01*
X55328282Y-62628282D01*
X55424536Y-62502841D01*
X55428122Y-62494183D01*
X55481934Y-62364271D01*
X55481935Y-62364269D01*
X55485044Y-62356762D01*
X55505013Y-62205082D01*
X55533279Y-62141185D01*
X55591604Y-62102714D01*
X55644136Y-62098328D01*
X55691939Y-62104621D01*
X55691941Y-62104621D01*
X55700000Y-62105682D01*
X55708059Y-62104621D01*
X55708061Y-62104621D01*
X55755864Y-62098328D01*
X55824899Y-62109094D01*
X55877154Y-62155475D01*
X55894987Y-62205082D01*
X55914956Y-62356762D01*
X55918065Y-62364269D01*
X55918066Y-62364271D01*
X55971878Y-62494183D01*
X55975464Y-62502841D01*
X56071718Y-62628282D01*
X56197159Y-62724536D01*
X56204667Y-62727646D01*
X56335729Y-62781934D01*
X56335731Y-62781935D01*
X56343238Y-62785044D01*
X56500000Y-62805682D01*
X56508059Y-62804621D01*
X56648703Y-62786105D01*
X56656762Y-62785044D01*
X56664269Y-62781935D01*
X56664271Y-62781934D01*
X56795333Y-62727646D01*
X56802841Y-62724536D01*
X56928282Y-62628282D01*
X57024536Y-62502841D01*
X57028122Y-62494183D01*
X57081934Y-62364271D01*
X57081935Y-62364269D01*
X57085044Y-62356762D01*
X57105682Y-62200000D01*
X57085044Y-62043238D01*
X57024536Y-61897159D01*
X56928282Y-61771718D01*
X56930436Y-61770065D01*
X56903334Y-61720432D01*
X56900500Y-61694074D01*
X56900500Y-61348565D01*
X56893653Y-61327492D01*
X56889111Y-61308572D01*
X56887173Y-61296336D01*
X56885646Y-61286694D01*
X56875588Y-61266954D01*
X56868142Y-61248977D01*
X56864312Y-61237190D01*
X56861297Y-61227909D01*
X56848270Y-61209979D01*
X56838108Y-61193396D01*
X56832480Y-61182351D01*
X56828050Y-61173656D01*
X56805487Y-61151093D01*
X56805484Y-61151089D01*
X56136839Y-60482444D01*
X56103354Y-60421121D01*
X56100520Y-60394763D01*
X56100520Y-43068481D01*
X56085666Y-42974696D01*
X56028070Y-42861658D01*
X55938362Y-42771950D01*
X55825324Y-42714354D01*
X55700020Y-42694508D01*
X55700402Y-42692098D01*
X55646770Y-42676350D01*
X55626128Y-42659716D01*
X55538352Y-42571940D01*
X55425314Y-42514344D01*
X55395678Y-42509650D01*
X55357764Y-42503645D01*
X55294629Y-42473716D01*
X55266677Y-42437467D01*
X55232481Y-42370353D01*
X55232479Y-42370350D01*
X55228050Y-42361658D01*
X55138342Y-42271950D01*
X55025304Y-42214354D01*
X54900000Y-42194508D01*
X54774696Y-42214354D01*
X54661658Y-42271950D01*
X54571950Y-42361658D01*
X54514354Y-42474696D01*
X54499500Y-42568481D01*
X54499500Y-61694074D01*
X54479815Y-61761113D01*
X54471441Y-61771505D01*
X54471718Y-61771718D01*
X54375464Y-61897159D01*
X54314956Y-62043238D01*
X54294318Y-62200000D01*
X40809250Y-62200000D01*
X40702841Y-62118350D01*
X40672258Y-62105682D01*
X40564271Y-62060952D01*
X40564269Y-62060951D01*
X40556762Y-62057842D01*
X40400000Y-62037204D01*
X40243238Y-62057842D01*
X40235731Y-62060951D01*
X40235729Y-62060952D01*
X40127742Y-62105682D01*
X40097159Y-62118350D01*
X39971718Y-62214604D01*
X39875464Y-62340045D01*
X39872354Y-62347553D01*
X39868540Y-62356762D01*
X39814956Y-62486124D01*
X39794318Y-62642886D01*
X22000500Y-62642886D01*
X22000500Y-59015629D01*
X50194804Y-59015629D01*
X50215442Y-59172391D01*
X50218551Y-59179898D01*
X50218552Y-59179900D01*
X50272840Y-59310962D01*
X50275950Y-59318470D01*
X50372204Y-59443911D01*
X50497645Y-59540165D01*
X50505153Y-59543275D01*
X50636215Y-59597563D01*
X50636217Y-59597564D01*
X50643724Y-59600673D01*
X50651783Y-59601734D01*
X50800486Y-59621311D01*
X50800132Y-59624002D01*
X50854392Y-59639935D01*
X50875034Y-59656569D01*
X51001609Y-59783144D01*
X51035094Y-59844467D01*
X51036867Y-59887010D01*
X51033639Y-59911530D01*
X51028631Y-59949571D01*
X51049269Y-60106333D01*
X51109777Y-60252412D01*
X51206031Y-60377853D01*
X51331472Y-60474107D01*
X51338980Y-60477217D01*
X51470042Y-60531505D01*
X51470044Y-60531506D01*
X51477551Y-60534615D01*
X51634313Y-60555253D01*
X51642372Y-60554192D01*
X51783016Y-60535676D01*
X51791075Y-60534615D01*
X51798582Y-60531506D01*
X51798584Y-60531505D01*
X51929646Y-60477217D01*
X51937154Y-60474107D01*
X52062595Y-60377853D01*
X52158849Y-60252412D01*
X52219357Y-60106333D01*
X52222923Y-60079247D01*
X52251190Y-60015351D01*
X52309515Y-59976880D01*
X52329676Y-59972494D01*
X52348703Y-59969989D01*
X52356762Y-59968928D01*
X52364269Y-59965819D01*
X52364271Y-59965818D01*
X52495333Y-59911530D01*
X52502841Y-59908420D01*
X52628282Y-59812166D01*
X52724536Y-59686725D01*
X52750517Y-59624002D01*
X52781934Y-59548155D01*
X52781935Y-59548153D01*
X52785044Y-59540646D01*
X52805682Y-59383884D01*
X52785044Y-59227122D01*
X52759036Y-59164332D01*
X52727646Y-59088551D01*
X52724536Y-59081043D01*
X52628282Y-58955602D01*
X52502841Y-58859348D01*
X52495333Y-58856238D01*
X52364271Y-58801950D01*
X52364269Y-58801949D01*
X52356762Y-58798840D01*
X52311649Y-58792901D01*
X52247752Y-58764635D01*
X52240152Y-58757643D01*
X51998998Y-58516489D01*
X51965513Y-58455166D01*
X51964086Y-58441896D01*
X51963740Y-58441942D01*
X51944163Y-58293239D01*
X51943102Y-58285180D01*
X51882594Y-58139101D01*
X51786340Y-58013660D01*
X51660899Y-57917406D01*
X51653391Y-57914296D01*
X51522329Y-57860008D01*
X51522327Y-57860007D01*
X51514820Y-57856898D01*
X51358058Y-57836260D01*
X51201296Y-57856898D01*
X51193789Y-57860007D01*
X51193787Y-57860008D01*
X51062725Y-57914296D01*
X51055217Y-57917406D01*
X50929776Y-58013660D01*
X50833522Y-58139101D01*
X50773014Y-58285180D01*
X50771953Y-58293239D01*
X50768233Y-58321494D01*
X50739966Y-58385391D01*
X50681641Y-58423861D01*
X50661483Y-58428247D01*
X50643724Y-58430585D01*
X50636217Y-58433694D01*
X50636215Y-58433695D01*
X50584380Y-58455166D01*
X50497645Y-58491093D01*
X50372204Y-58587347D01*
X50275950Y-58712788D01*
X50272840Y-58720296D01*
X50240746Y-58797779D01*
X50215442Y-58858867D01*
X50194804Y-59015629D01*
X22000500Y-59015629D01*
X22000500Y-52414579D01*
X45494318Y-52414579D01*
X45514956Y-52571341D01*
X45575464Y-52717420D01*
X45580411Y-52723867D01*
X45671718Y-52842861D01*
X45669564Y-52844514D01*
X45696666Y-52894147D01*
X45699500Y-52920505D01*
X45699500Y-54200507D01*
X45702515Y-54209785D01*
X45706345Y-54221573D01*
X45710889Y-54240498D01*
X45714354Y-54262378D01*
X45718783Y-54271071D01*
X45718785Y-54271076D01*
X45724413Y-54282122D01*
X45731857Y-54300093D01*
X45734663Y-54308727D01*
X45738704Y-54321164D01*
X45751728Y-54339090D01*
X45761892Y-54355676D01*
X45771950Y-54375416D01*
X45794513Y-54397979D01*
X45794516Y-54397983D01*
X47407500Y-56010966D01*
X47440985Y-56072289D01*
X47442412Y-56085560D01*
X47442758Y-56085514D01*
X47463396Y-56242276D01*
X47523904Y-56388355D01*
X47620158Y-56513796D01*
X47745599Y-56610050D01*
X47753107Y-56613160D01*
X47884169Y-56667448D01*
X47884171Y-56667449D01*
X47891678Y-56670558D01*
X48048440Y-56691196D01*
X48056499Y-56690135D01*
X48197143Y-56671619D01*
X48205202Y-56670558D01*
X48212709Y-56667449D01*
X48212711Y-56667448D01*
X48343773Y-56613160D01*
X48351281Y-56610050D01*
X48476722Y-56513796D01*
X48572976Y-56388355D01*
X48633484Y-56242276D01*
X48654122Y-56085514D01*
X48633484Y-55928752D01*
X48630375Y-55921246D01*
X48630373Y-55921239D01*
X48604512Y-55858805D01*
X48597043Y-55789336D01*
X48628780Y-55728664D01*
X48628282Y-55728282D01*
X48630477Y-55725422D01*
X48630478Y-55725420D01*
X48724536Y-55602841D01*
X48785044Y-55456762D01*
X48805682Y-55300000D01*
X48785044Y-55143238D01*
X48724536Y-54997159D01*
X48628282Y-54871718D01*
X48502841Y-54775464D01*
X48495333Y-54772354D01*
X48364271Y-54718066D01*
X48364269Y-54718065D01*
X48356762Y-54714956D01*
X48200000Y-54694318D01*
X48200354Y-54691627D01*
X48146094Y-54675694D01*
X48125452Y-54659060D01*
X47136819Y-53670426D01*
X47103334Y-53609103D01*
X47100500Y-53582745D01*
X47100500Y-52305926D01*
X47120185Y-52238887D01*
X47128559Y-52228495D01*
X47128282Y-52228282D01*
X47219589Y-52109288D01*
X47224536Y-52102841D01*
X47272810Y-51986297D01*
X47281934Y-51964271D01*
X47281935Y-51964269D01*
X47285044Y-51956762D01*
X47305682Y-51800000D01*
X47285044Y-51643238D01*
X47224536Y-51497159D01*
X47128282Y-51371718D01*
X47002841Y-51275464D01*
X46888934Y-51228282D01*
X46864271Y-51218066D01*
X46864269Y-51218065D01*
X46856762Y-51214956D01*
X46700000Y-51194318D01*
X46543238Y-51214956D01*
X46535731Y-51218065D01*
X46535729Y-51218066D01*
X46511066Y-51228282D01*
X46397159Y-51275464D01*
X46271718Y-51371718D01*
X46175464Y-51497159D01*
X46114956Y-51643238D01*
X46113895Y-51651297D01*
X46105445Y-51715481D01*
X46077179Y-51779378D01*
X46018854Y-51817849D01*
X45998693Y-51822234D01*
X45943238Y-51829535D01*
X45935731Y-51832644D01*
X45935729Y-51832645D01*
X45804667Y-51886933D01*
X45797159Y-51890043D01*
X45671718Y-51986297D01*
X45575464Y-52111738D01*
X45572354Y-52119246D01*
X45518360Y-52249600D01*
X45514956Y-52257817D01*
X45494318Y-52414579D01*
X22000500Y-52414579D01*
X22000500Y-49600000D01*
X50559281Y-49600000D01*
X50579919Y-49756762D01*
X50640427Y-49902841D01*
X50736681Y-50028282D01*
X50862122Y-50124536D01*
X50869630Y-50127646D01*
X51000692Y-50181934D01*
X51000694Y-50181935D01*
X51008201Y-50185044D01*
X51164963Y-50205682D01*
X51173022Y-50204621D01*
X51313666Y-50186105D01*
X51321725Y-50185044D01*
X51329232Y-50181935D01*
X51329234Y-50181934D01*
X51460296Y-50127646D01*
X51467804Y-50124536D01*
X51593245Y-50028282D01*
X51594898Y-50030436D01*
X51644531Y-50003334D01*
X51670889Y-50000500D01*
X51682745Y-50000500D01*
X51749784Y-50020185D01*
X51770426Y-50036819D01*
X51786490Y-50052883D01*
X51819975Y-50114206D01*
X51814991Y-50183898D01*
X51773119Y-50239831D01*
X51746261Y-50255125D01*
X51704669Y-50272353D01*
X51704667Y-50272354D01*
X51697159Y-50275464D01*
X51571718Y-50371718D01*
X51475464Y-50497159D01*
X51414956Y-50643238D01*
X51394318Y-50800000D01*
X51414956Y-50956762D01*
X51475464Y-51102841D01*
X51571718Y-51228282D01*
X51697159Y-51324536D01*
X51704667Y-51327646D01*
X51835729Y-51381934D01*
X51835731Y-51381935D01*
X51843238Y-51385044D01*
X52000000Y-51405682D01*
X52008059Y-51404621D01*
X52148703Y-51386105D01*
X52156762Y-51385044D01*
X52164269Y-51381935D01*
X52164271Y-51381934D01*
X52295333Y-51327646D01*
X52302841Y-51324536D01*
X52428282Y-51228282D01*
X52451624Y-51197862D01*
X52508052Y-51156659D01*
X52577798Y-51152504D01*
X52638718Y-51186716D01*
X52648376Y-51197862D01*
X52671718Y-51228282D01*
X52797159Y-51324536D01*
X52804667Y-51327646D01*
X52935729Y-51381934D01*
X52935731Y-51381935D01*
X52943238Y-51385044D01*
X53100000Y-51405682D01*
X53108059Y-51404621D01*
X53248703Y-51386105D01*
X53256762Y-51385044D01*
X53264269Y-51381935D01*
X53264271Y-51381934D01*
X53395333Y-51327646D01*
X53402841Y-51324536D01*
X53528282Y-51228282D01*
X53624536Y-51102841D01*
X53685044Y-50956762D01*
X53705682Y-50800000D01*
X53685044Y-50643238D01*
X53624536Y-50497159D01*
X53528282Y-50371718D01*
X53402841Y-50275464D01*
X53395333Y-50272354D01*
X53264271Y-50218066D01*
X53264269Y-50218065D01*
X53256762Y-50214956D01*
X53178260Y-50204621D01*
X53100000Y-50194318D01*
X53100354Y-50191627D01*
X53046094Y-50175694D01*
X53025452Y-50159060D01*
X52160917Y-49294524D01*
X52160909Y-49294516D01*
X52160905Y-49294513D01*
X52138342Y-49271950D01*
X52118602Y-49261892D01*
X52102016Y-49251728D01*
X52084090Y-49238704D01*
X52071653Y-49234663D01*
X52063019Y-49231857D01*
X52045048Y-49224413D01*
X52034002Y-49218785D01*
X52033997Y-49218783D01*
X52025304Y-49214354D01*
X52003424Y-49210889D01*
X51984499Y-49206345D01*
X51984107Y-49206218D01*
X51963433Y-49199500D01*
X51670889Y-49199500D01*
X51603850Y-49179815D01*
X51593458Y-49171441D01*
X51593245Y-49171718D01*
X51474251Y-49080411D01*
X51467804Y-49075464D01*
X51460296Y-49072354D01*
X51329234Y-49018066D01*
X51329232Y-49018065D01*
X51321725Y-49014956D01*
X51164963Y-48994318D01*
X51008201Y-49014956D01*
X51000694Y-49018065D01*
X51000692Y-49018066D01*
X50869630Y-49072354D01*
X50862122Y-49075464D01*
X50736681Y-49171718D01*
X50640427Y-49297159D01*
X50579919Y-49443238D01*
X50559281Y-49600000D01*
X22000500Y-49600000D01*
X22000500Y-32994646D01*
X31879500Y-32994646D01*
X31882618Y-33020846D01*
X31928061Y-33123153D01*
X32007287Y-33202241D01*
X32017758Y-33206870D01*
X32017759Y-33206871D01*
X32101147Y-33243737D01*
X32101149Y-33243738D01*
X32109673Y-33247506D01*
X32135354Y-33250500D01*
X33924646Y-33250500D01*
X33928300Y-33250065D01*
X33928302Y-33250065D01*
X33933266Y-33249474D01*
X33950846Y-33247382D01*
X34053153Y-33201939D01*
X34132241Y-33122713D01*
X34177506Y-33020327D01*
X34180500Y-32994646D01*
X34180500Y-32280300D01*
X34200185Y-32213261D01*
X34252989Y-32167506D01*
X34322147Y-32157562D01*
X34385703Y-32186587D01*
X34423477Y-32245365D01*
X34428234Y-32272190D01*
X34428423Y-32275072D01*
X34428425Y-32275082D01*
X34428796Y-32280749D01*
X34480845Y-32485690D01*
X34483219Y-32490841D01*
X34483221Y-32490845D01*
X34521981Y-32574922D01*
X34569369Y-32677714D01*
X34691405Y-32850391D01*
X34842865Y-32997937D01*
X34847588Y-33001093D01*
X34847592Y-33001096D01*
X34918663Y-33048584D01*
X35018677Y-33115411D01*
X35212953Y-33198878D01*
X35248277Y-33206871D01*
X35413638Y-33244289D01*
X35413642Y-33244290D01*
X35419186Y-33245544D01*
X35545315Y-33250500D01*
X35624789Y-33253623D01*
X35624791Y-33253623D01*
X35630470Y-33253846D01*
X35636090Y-33253031D01*
X35636092Y-33253031D01*
X35834103Y-33224320D01*
X35834104Y-33224320D01*
X35839730Y-33223504D01*
X35858588Y-33217103D01*
X36034565Y-33157367D01*
X36034568Y-33157366D01*
X36039955Y-33155537D01*
X36044916Y-33152759D01*
X36044922Y-33152756D01*
X36151530Y-33093052D01*
X36224442Y-33052219D01*
X36262165Y-33020846D01*
X36382645Y-32920644D01*
X36387012Y-32917012D01*
X36399398Y-32902119D01*
X36518584Y-32758813D01*
X36518585Y-32758811D01*
X36522219Y-32754442D01*
X36568078Y-32672556D01*
X36622756Y-32574922D01*
X36622759Y-32574916D01*
X36625537Y-32569955D01*
X36656009Y-32480189D01*
X36691675Y-32375118D01*
X36693504Y-32369730D01*
X36706471Y-32280300D01*
X36717820Y-32202033D01*
X36746921Y-32138512D01*
X36800225Y-32104346D01*
X36880974Y-32104346D01*
X36934347Y-32138736D01*
X36963296Y-32202327D01*
X36964271Y-32211707D01*
X36968796Y-32280749D01*
X37020845Y-32485690D01*
X37023219Y-32490841D01*
X37023221Y-32490845D01*
X37061981Y-32574922D01*
X37109369Y-32677714D01*
X37231405Y-32850391D01*
X37382865Y-32997937D01*
X37387588Y-33001093D01*
X37387592Y-33001096D01*
X37458663Y-33048584D01*
X37558677Y-33115411D01*
X37752953Y-33198878D01*
X37788277Y-33206871D01*
X37953638Y-33244289D01*
X37953642Y-33244290D01*
X37959186Y-33245544D01*
X38085315Y-33250500D01*
X38164789Y-33253623D01*
X38164791Y-33253623D01*
X38170470Y-33253846D01*
X38176090Y-33253031D01*
X38176092Y-33253031D01*
X38374103Y-33224320D01*
X38374104Y-33224320D01*
X38379730Y-33223504D01*
X38398588Y-33217103D01*
X38574565Y-33157367D01*
X38574568Y-33157366D01*
X38579955Y-33155537D01*
X38584916Y-33152759D01*
X38584922Y-33152756D01*
X38691530Y-33093052D01*
X38764442Y-33052219D01*
X38802165Y-33020846D01*
X38922645Y-32920644D01*
X38927012Y-32917012D01*
X38939398Y-32902119D01*
X39058584Y-32758813D01*
X39058585Y-32758811D01*
X39062219Y-32754442D01*
X39108078Y-32672556D01*
X39162756Y-32574922D01*
X39162759Y-32574916D01*
X39165537Y-32569955D01*
X39196009Y-32480189D01*
X39231675Y-32375118D01*
X39233504Y-32369730D01*
X39246471Y-32280300D01*
X39257820Y-32202033D01*
X39286921Y-32138512D01*
X39340225Y-32104346D01*
X39420974Y-32104346D01*
X39474347Y-32138736D01*
X39503296Y-32202327D01*
X39504271Y-32211707D01*
X39508796Y-32280749D01*
X39560845Y-32485690D01*
X39563219Y-32490841D01*
X39563221Y-32490845D01*
X39601981Y-32574922D01*
X39649369Y-32677714D01*
X39771405Y-32850391D01*
X39922865Y-32997937D01*
X39927588Y-33001093D01*
X39927592Y-33001096D01*
X39998663Y-33048584D01*
X40098677Y-33115411D01*
X40292953Y-33198878D01*
X40328277Y-33206871D01*
X40493638Y-33244289D01*
X40493642Y-33244290D01*
X40499186Y-33245544D01*
X40625315Y-33250500D01*
X40704789Y-33253623D01*
X40704791Y-33253623D01*
X40710470Y-33253846D01*
X40716090Y-33253031D01*
X40716092Y-33253031D01*
X40914103Y-33224320D01*
X40914104Y-33224320D01*
X40919730Y-33223504D01*
X40938588Y-33217103D01*
X41114565Y-33157367D01*
X41114568Y-33157366D01*
X41119955Y-33155537D01*
X41124916Y-33152759D01*
X41124922Y-33152756D01*
X41231530Y-33093052D01*
X41304442Y-33052219D01*
X41342165Y-33020846D01*
X41462645Y-32920644D01*
X41467012Y-32917012D01*
X41479398Y-32902119D01*
X41598584Y-32758813D01*
X41598585Y-32758811D01*
X41602219Y-32754442D01*
X41648078Y-32672556D01*
X41702756Y-32574922D01*
X41702759Y-32574916D01*
X41705537Y-32569955D01*
X41736009Y-32480189D01*
X41771675Y-32375118D01*
X41773504Y-32369730D01*
X41786471Y-32280300D01*
X41797820Y-32202033D01*
X41826921Y-32138512D01*
X41880225Y-32104346D01*
X41960974Y-32104346D01*
X42014347Y-32138736D01*
X42043296Y-32202327D01*
X42044271Y-32211707D01*
X42048796Y-32280749D01*
X42100845Y-32485690D01*
X42103219Y-32490841D01*
X42103221Y-32490845D01*
X42141981Y-32574922D01*
X42189369Y-32677714D01*
X42311405Y-32850391D01*
X42462865Y-32997937D01*
X42467588Y-33001093D01*
X42467592Y-33001096D01*
X42538663Y-33048584D01*
X42638677Y-33115411D01*
X42832953Y-33198878D01*
X42868277Y-33206871D01*
X43033638Y-33244289D01*
X43033642Y-33244290D01*
X43039186Y-33245544D01*
X43165315Y-33250500D01*
X43244789Y-33253623D01*
X43244791Y-33253623D01*
X43250470Y-33253846D01*
X43256090Y-33253031D01*
X43256092Y-33253031D01*
X43454103Y-33224320D01*
X43454104Y-33224320D01*
X43459730Y-33223504D01*
X43478588Y-33217103D01*
X43654565Y-33157367D01*
X43654568Y-33157366D01*
X43659955Y-33155537D01*
X43664916Y-33152759D01*
X43664922Y-33152756D01*
X43771530Y-33093052D01*
X43844442Y-33052219D01*
X43882165Y-33020846D01*
X44002645Y-32920644D01*
X44007012Y-32917012D01*
X44019398Y-32902119D01*
X44138584Y-32758813D01*
X44138585Y-32758811D01*
X44142219Y-32754442D01*
X44188078Y-32672556D01*
X44242756Y-32574922D01*
X44242759Y-32574916D01*
X44245537Y-32569955D01*
X44276009Y-32480189D01*
X44311675Y-32375118D01*
X44313504Y-32369730D01*
X44343846Y-32160470D01*
X44345429Y-32100000D01*
X44342650Y-32069754D01*
X47114967Y-32069754D01*
X47115338Y-32075416D01*
X47115338Y-32075420D01*
X47119488Y-32138736D01*
X47128796Y-32280749D01*
X47180845Y-32485690D01*
X47183219Y-32490841D01*
X47183221Y-32490845D01*
X47221981Y-32574922D01*
X47269369Y-32677714D01*
X47391405Y-32850391D01*
X47542865Y-32997937D01*
X47547588Y-33001093D01*
X47547592Y-33001096D01*
X47618663Y-33048584D01*
X47718677Y-33115411D01*
X47912953Y-33198878D01*
X47948277Y-33206871D01*
X48113638Y-33244289D01*
X48113642Y-33244290D01*
X48119186Y-33245544D01*
X48245315Y-33250500D01*
X48324789Y-33253623D01*
X48324791Y-33253623D01*
X48330470Y-33253846D01*
X48336090Y-33253031D01*
X48336092Y-33253031D01*
X48534103Y-33224320D01*
X48534104Y-33224320D01*
X48539730Y-33223504D01*
X48558588Y-33217103D01*
X48734565Y-33157367D01*
X48734568Y-33157366D01*
X48739955Y-33155537D01*
X48744916Y-33152759D01*
X48744922Y-33152756D01*
X48851530Y-33093052D01*
X48924442Y-33052219D01*
X48962165Y-33020846D01*
X49082645Y-32920644D01*
X49087012Y-32917012D01*
X49099398Y-32902119D01*
X49218584Y-32758813D01*
X49218585Y-32758811D01*
X49222219Y-32754442D01*
X49268078Y-32672556D01*
X49322756Y-32574922D01*
X49322759Y-32574916D01*
X49325537Y-32569955D01*
X49356009Y-32480189D01*
X49391675Y-32375118D01*
X49393504Y-32369730D01*
X49406471Y-32280300D01*
X49417820Y-32202033D01*
X49446921Y-32138512D01*
X49500225Y-32104346D01*
X49580974Y-32104346D01*
X49634347Y-32138736D01*
X49663296Y-32202327D01*
X49664271Y-32211707D01*
X49668796Y-32280749D01*
X49720845Y-32485690D01*
X49723219Y-32490841D01*
X49723221Y-32490845D01*
X49761981Y-32574922D01*
X49809369Y-32677714D01*
X49931405Y-32850391D01*
X50082865Y-32997937D01*
X50087588Y-33001093D01*
X50087592Y-33001096D01*
X50158663Y-33048584D01*
X50258677Y-33115411D01*
X50452953Y-33198878D01*
X50488277Y-33206871D01*
X50653638Y-33244289D01*
X50653642Y-33244290D01*
X50659186Y-33245544D01*
X50785315Y-33250500D01*
X50864789Y-33253623D01*
X50864791Y-33253623D01*
X50870470Y-33253846D01*
X50876090Y-33253031D01*
X50876092Y-33253031D01*
X51074103Y-33224320D01*
X51074104Y-33224320D01*
X51079730Y-33223504D01*
X51098588Y-33217103D01*
X51274565Y-33157367D01*
X51274568Y-33157366D01*
X51279955Y-33155537D01*
X51284916Y-33152759D01*
X51284922Y-33152756D01*
X51391530Y-33093052D01*
X51464442Y-33052219D01*
X51502165Y-33020846D01*
X51622645Y-32920644D01*
X51627012Y-32917012D01*
X51639398Y-32902119D01*
X51758584Y-32758813D01*
X51758585Y-32758811D01*
X51762219Y-32754442D01*
X51808078Y-32672556D01*
X51862756Y-32574922D01*
X51862759Y-32574916D01*
X51865537Y-32569955D01*
X51896009Y-32480189D01*
X51931675Y-32375118D01*
X51933504Y-32369730D01*
X51946471Y-32280300D01*
X51957820Y-32202033D01*
X51986921Y-32138512D01*
X52040225Y-32104346D01*
X52120974Y-32104346D01*
X52174347Y-32138736D01*
X52203296Y-32202327D01*
X52204271Y-32211707D01*
X52208796Y-32280749D01*
X52260845Y-32485690D01*
X52263219Y-32490841D01*
X52263221Y-32490845D01*
X52301981Y-32574922D01*
X52349369Y-32677714D01*
X52471405Y-32850391D01*
X52622865Y-32997937D01*
X52627588Y-33001093D01*
X52627592Y-33001096D01*
X52698663Y-33048584D01*
X52798677Y-33115411D01*
X52992953Y-33198878D01*
X53028277Y-33206871D01*
X53193638Y-33244289D01*
X53193642Y-33244290D01*
X53199186Y-33245544D01*
X53325315Y-33250500D01*
X53404789Y-33253623D01*
X53404791Y-33253623D01*
X53410470Y-33253846D01*
X53416090Y-33253031D01*
X53416092Y-33253031D01*
X53614103Y-33224320D01*
X53614104Y-33224320D01*
X53619730Y-33223504D01*
X53638588Y-33217103D01*
X53814565Y-33157367D01*
X53814568Y-33157366D01*
X53819955Y-33155537D01*
X53824916Y-33152759D01*
X53824922Y-33152756D01*
X53931530Y-33093052D01*
X54004442Y-33052219D01*
X54042165Y-33020846D01*
X54162645Y-32920644D01*
X54167012Y-32917012D01*
X54179398Y-32902119D01*
X54298584Y-32758813D01*
X54298585Y-32758811D01*
X54302219Y-32754442D01*
X54348078Y-32672556D01*
X54402756Y-32574922D01*
X54402759Y-32574916D01*
X54405537Y-32569955D01*
X54436009Y-32480189D01*
X54471675Y-32375118D01*
X54473504Y-32369730D01*
X54486471Y-32280300D01*
X54497820Y-32202033D01*
X54526921Y-32138512D01*
X54580225Y-32104346D01*
X54660974Y-32104346D01*
X54714347Y-32138736D01*
X54743296Y-32202327D01*
X54744271Y-32211707D01*
X54748796Y-32280749D01*
X54800845Y-32485690D01*
X54803219Y-32490841D01*
X54803221Y-32490845D01*
X54841981Y-32574922D01*
X54889369Y-32677714D01*
X55011405Y-32850391D01*
X55162865Y-32997937D01*
X55167588Y-33001093D01*
X55167592Y-33001096D01*
X55238663Y-33048584D01*
X55338677Y-33115411D01*
X55532953Y-33198878D01*
X55568277Y-33206871D01*
X55733638Y-33244289D01*
X55733642Y-33244290D01*
X55739186Y-33245544D01*
X55865315Y-33250500D01*
X55944789Y-33253623D01*
X55944791Y-33253623D01*
X55950470Y-33253846D01*
X55956090Y-33253031D01*
X55956092Y-33253031D01*
X56154103Y-33224320D01*
X56154104Y-33224320D01*
X56159730Y-33223504D01*
X56178588Y-33217103D01*
X56354565Y-33157367D01*
X56354568Y-33157366D01*
X56359955Y-33155537D01*
X56364916Y-33152759D01*
X56364922Y-33152756D01*
X56471530Y-33093052D01*
X56544442Y-33052219D01*
X56582165Y-33020846D01*
X56702645Y-32920644D01*
X56707012Y-32917012D01*
X56719398Y-32902119D01*
X56838584Y-32758813D01*
X56838585Y-32758811D01*
X56842219Y-32754442D01*
X56888078Y-32672556D01*
X56942756Y-32574922D01*
X56942759Y-32574916D01*
X56945537Y-32569955D01*
X56990904Y-32436306D01*
X57031092Y-32379152D01*
X57095801Y-32352799D01*
X57164486Y-32365613D01*
X57215339Y-32413527D01*
X57228098Y-32444071D01*
X57249496Y-32523928D01*
X57253187Y-32534068D01*
X57341043Y-32722476D01*
X57346441Y-32731826D01*
X57465681Y-32902119D01*
X57472616Y-32910383D01*
X57619615Y-33057382D01*
X57627881Y-33064318D01*
X57798183Y-33183565D01*
X57807515Y-33188953D01*
X57995932Y-33276813D01*
X58006075Y-33280505D01*
X58206886Y-33334312D01*
X58213478Y-33335474D01*
X58226951Y-33332766D01*
X58230000Y-33321203D01*
X58230000Y-33319447D01*
X58630000Y-33319447D01*
X58634228Y-33333846D01*
X58645117Y-33335722D01*
X58653114Y-33334312D01*
X58853925Y-33280505D01*
X58864068Y-33276813D01*
X59052485Y-33188953D01*
X59061817Y-33183565D01*
X59232119Y-33064318D01*
X59240385Y-33057382D01*
X59387384Y-32910383D01*
X59394319Y-32902119D01*
X59513559Y-32731826D01*
X59518957Y-32722476D01*
X59606813Y-32534068D01*
X59610505Y-32523925D01*
X59631292Y-32446347D01*
X59667657Y-32386686D01*
X59730504Y-32356157D01*
X59799879Y-32364452D01*
X59853757Y-32408937D01*
X59871251Y-32447916D01*
X59880845Y-32485690D01*
X59883219Y-32490841D01*
X59883221Y-32490845D01*
X59921981Y-32574922D01*
X59969369Y-32677714D01*
X60091405Y-32850391D01*
X60242865Y-32997937D01*
X60247588Y-33001093D01*
X60247592Y-33001096D01*
X60318663Y-33048584D01*
X60418677Y-33115411D01*
X60612953Y-33198878D01*
X60648277Y-33206871D01*
X60813638Y-33244289D01*
X60813642Y-33244290D01*
X60819186Y-33245544D01*
X60945315Y-33250500D01*
X61024789Y-33253623D01*
X61024791Y-33253623D01*
X61030470Y-33253846D01*
X61036090Y-33253031D01*
X61036092Y-33253031D01*
X61234103Y-33224320D01*
X61234104Y-33224320D01*
X61239730Y-33223504D01*
X61258588Y-33217103D01*
X61434565Y-33157367D01*
X61434568Y-33157366D01*
X61439955Y-33155537D01*
X61444916Y-33152759D01*
X61444922Y-33152756D01*
X61551530Y-33093052D01*
X61624442Y-33052219D01*
X61662165Y-33020846D01*
X61782645Y-32920644D01*
X61787012Y-32917012D01*
X61799398Y-32902119D01*
X61918584Y-32758813D01*
X61918585Y-32758811D01*
X61922219Y-32754442D01*
X61968078Y-32672556D01*
X62022756Y-32574922D01*
X62022759Y-32574916D01*
X62025537Y-32569955D01*
X62056009Y-32480189D01*
X62091675Y-32375118D01*
X62093504Y-32369730D01*
X62123846Y-32160470D01*
X62125429Y-32100000D01*
X62106081Y-31889440D01*
X62048686Y-31685931D01*
X61955165Y-31496290D01*
X61828651Y-31326867D01*
X61824481Y-31323012D01*
X61824478Y-31323009D01*
X61760319Y-31263702D01*
X61673381Y-31183337D01*
X61667574Y-31179673D01*
X61499363Y-31073539D01*
X61499361Y-31073538D01*
X61494554Y-31070505D01*
X61298160Y-30992152D01*
X61292579Y-30991042D01*
X61292576Y-30991041D01*
X61194467Y-30971526D01*
X61090775Y-30950901D01*
X61085088Y-30950827D01*
X61085083Y-30950826D01*
X60885034Y-30948207D01*
X60885029Y-30948207D01*
X60879346Y-30948133D01*
X60873742Y-30949096D01*
X60873741Y-30949096D01*
X60676550Y-30982979D01*
X60676547Y-30982980D01*
X60670953Y-30983941D01*
X60472575Y-31057127D01*
X60467697Y-31060029D01*
X60467695Y-31060030D01*
X60295740Y-31162332D01*
X60295737Y-31162334D01*
X60290856Y-31165238D01*
X60131881Y-31304655D01*
X60128362Y-31309119D01*
X60128359Y-31309122D01*
X60110782Y-31331419D01*
X60000976Y-31470708D01*
X59902523Y-31657836D01*
X59892099Y-31691407D01*
X59870336Y-31761495D01*
X59831657Y-31819681D01*
X59767660Y-31847719D01*
X59698664Y-31836707D01*
X59646574Y-31790140D01*
X59632139Y-31756816D01*
X59610505Y-31676074D01*
X59606813Y-31665932D01*
X59518957Y-31477524D01*
X59513559Y-31468174D01*
X59394319Y-31297881D01*
X59387384Y-31289617D01*
X59240385Y-31142618D01*
X59232119Y-31135682D01*
X59061817Y-31016435D01*
X59052485Y-31011047D01*
X58864068Y-30923187D01*
X58853925Y-30919495D01*
X58653114Y-30865688D01*
X58646522Y-30864526D01*
X58633049Y-30867234D01*
X58630000Y-30878797D01*
X58630000Y-33319447D01*
X58230000Y-33319447D01*
X58230000Y-30880553D01*
X58225772Y-30866154D01*
X58214883Y-30864278D01*
X58206886Y-30865688D01*
X58006075Y-30919495D01*
X57995932Y-30923187D01*
X57807524Y-31011043D01*
X57798174Y-31016441D01*
X57627881Y-31135681D01*
X57619617Y-31142616D01*
X57472616Y-31289617D01*
X57465681Y-31297881D01*
X57346441Y-31468174D01*
X57341043Y-31477524D01*
X57253187Y-31665932D01*
X57249495Y-31676075D01*
X57228045Y-31756128D01*
X57191680Y-31815789D01*
X57128833Y-31846318D01*
X57059458Y-31838023D01*
X57005580Y-31793538D01*
X56988926Y-31757694D01*
X56970231Y-31691407D01*
X56970228Y-31691400D01*
X56968686Y-31685931D01*
X56875165Y-31496290D01*
X56748651Y-31326867D01*
X56744481Y-31323012D01*
X56744478Y-31323009D01*
X56680319Y-31263702D01*
X56593381Y-31183337D01*
X56587574Y-31179673D01*
X56419363Y-31073539D01*
X56419361Y-31073538D01*
X56414554Y-31070505D01*
X56218160Y-30992152D01*
X56212579Y-30991042D01*
X56212576Y-30991041D01*
X56114467Y-30971526D01*
X56010775Y-30950901D01*
X56005088Y-30950827D01*
X56005083Y-30950826D01*
X55805034Y-30948207D01*
X55805029Y-30948207D01*
X55799346Y-30948133D01*
X55793742Y-30949096D01*
X55793741Y-30949096D01*
X55596550Y-30982979D01*
X55596547Y-30982980D01*
X55590953Y-30983941D01*
X55392575Y-31057127D01*
X55387697Y-31060029D01*
X55387695Y-31060030D01*
X55215740Y-31162332D01*
X55215737Y-31162334D01*
X55210856Y-31165238D01*
X55051881Y-31304655D01*
X55048362Y-31309119D01*
X55048359Y-31309122D01*
X55030782Y-31331419D01*
X54920976Y-31470708D01*
X54822523Y-31657836D01*
X54820837Y-31663267D01*
X54820835Y-31663271D01*
X54780386Y-31793538D01*
X54759820Y-31859773D01*
X54742851Y-32003140D01*
X54715425Y-32067398D01*
X54660974Y-32104346D01*
X54580225Y-32104346D01*
X54580667Y-32104063D01*
X54528057Y-32072081D01*
X54497453Y-32009271D01*
X54496232Y-31999909D01*
X54486601Y-31895100D01*
X54486081Y-31889440D01*
X54428686Y-31685931D01*
X54335165Y-31496290D01*
X54208651Y-31326867D01*
X54204481Y-31323012D01*
X54204478Y-31323009D01*
X54140319Y-31263702D01*
X54053381Y-31183337D01*
X54047574Y-31179673D01*
X53879363Y-31073539D01*
X53879361Y-31073538D01*
X53874554Y-31070505D01*
X53678160Y-30992152D01*
X53672579Y-30991042D01*
X53672576Y-30991041D01*
X53574467Y-30971526D01*
X53470775Y-30950901D01*
X53465088Y-30950827D01*
X53465083Y-30950826D01*
X53265034Y-30948207D01*
X53265029Y-30948207D01*
X53259346Y-30948133D01*
X53253742Y-30949096D01*
X53253741Y-30949096D01*
X53056550Y-30982979D01*
X53056547Y-30982980D01*
X53050953Y-30983941D01*
X52852575Y-31057127D01*
X52847697Y-31060029D01*
X52847695Y-31060030D01*
X52675740Y-31162332D01*
X52675737Y-31162334D01*
X52670856Y-31165238D01*
X52511881Y-31304655D01*
X52508362Y-31309119D01*
X52508359Y-31309122D01*
X52490782Y-31331419D01*
X52380976Y-31470708D01*
X52282523Y-31657836D01*
X52280837Y-31663267D01*
X52280835Y-31663271D01*
X52240386Y-31793538D01*
X52219820Y-31859773D01*
X52202851Y-32003140D01*
X52175425Y-32067398D01*
X52120974Y-32104346D01*
X52040225Y-32104346D01*
X52040667Y-32104063D01*
X51988057Y-32072081D01*
X51957453Y-32009271D01*
X51956232Y-31999909D01*
X51946601Y-31895100D01*
X51946081Y-31889440D01*
X51888686Y-31685931D01*
X51795165Y-31496290D01*
X51668651Y-31326867D01*
X51664481Y-31323012D01*
X51664478Y-31323009D01*
X51600319Y-31263702D01*
X51513381Y-31183337D01*
X51507574Y-31179673D01*
X51339363Y-31073539D01*
X51339361Y-31073538D01*
X51334554Y-31070505D01*
X51138160Y-30992152D01*
X51132579Y-30991042D01*
X51132576Y-30991041D01*
X51034467Y-30971526D01*
X50930775Y-30950901D01*
X50925088Y-30950827D01*
X50925083Y-30950826D01*
X50725034Y-30948207D01*
X50725029Y-30948207D01*
X50719346Y-30948133D01*
X50713742Y-30949096D01*
X50713741Y-30949096D01*
X50516550Y-30982979D01*
X50516547Y-30982980D01*
X50510953Y-30983941D01*
X50312575Y-31057127D01*
X50307697Y-31060029D01*
X50307695Y-31060030D01*
X50135740Y-31162332D01*
X50135737Y-31162334D01*
X50130856Y-31165238D01*
X49971881Y-31304655D01*
X49968362Y-31309119D01*
X49968359Y-31309122D01*
X49950782Y-31331419D01*
X49840976Y-31470708D01*
X49742523Y-31657836D01*
X49740837Y-31663267D01*
X49740835Y-31663271D01*
X49700386Y-31793538D01*
X49679820Y-31859773D01*
X49662851Y-32003140D01*
X49635425Y-32067398D01*
X49580974Y-32104346D01*
X49500225Y-32104346D01*
X49500667Y-32104063D01*
X49448057Y-32072081D01*
X49417453Y-32009271D01*
X49416232Y-31999909D01*
X49406601Y-31895100D01*
X49406081Y-31889440D01*
X49348686Y-31685931D01*
X49255165Y-31496290D01*
X49128651Y-31326867D01*
X49124481Y-31323012D01*
X49124478Y-31323009D01*
X49060319Y-31263702D01*
X48973381Y-31183337D01*
X48967574Y-31179673D01*
X48799363Y-31073539D01*
X48799361Y-31073538D01*
X48794554Y-31070505D01*
X48598160Y-30992152D01*
X48592579Y-30991042D01*
X48592576Y-30991041D01*
X48494467Y-30971526D01*
X48390775Y-30950901D01*
X48385088Y-30950827D01*
X48385083Y-30950826D01*
X48185034Y-30948207D01*
X48185029Y-30948207D01*
X48179346Y-30948133D01*
X48173742Y-30949096D01*
X48173741Y-30949096D01*
X47976550Y-30982979D01*
X47976547Y-30982980D01*
X47970953Y-30983941D01*
X47772575Y-31057127D01*
X47767697Y-31060029D01*
X47767695Y-31060030D01*
X47595740Y-31162332D01*
X47595737Y-31162334D01*
X47590856Y-31165238D01*
X47431881Y-31304655D01*
X47428362Y-31309119D01*
X47428359Y-31309122D01*
X47410782Y-31331419D01*
X47300976Y-31470708D01*
X47202523Y-31657836D01*
X47200837Y-31663267D01*
X47200835Y-31663271D01*
X47160386Y-31793538D01*
X47139820Y-31859773D01*
X47139152Y-31865418D01*
X47139151Y-31865422D01*
X47129365Y-31948106D01*
X47114967Y-32069754D01*
X44342650Y-32069754D01*
X44326081Y-31889440D01*
X44268686Y-31685931D01*
X44175165Y-31496290D01*
X44048651Y-31326867D01*
X44044481Y-31323012D01*
X44044478Y-31323009D01*
X43980319Y-31263702D01*
X43893381Y-31183337D01*
X43887574Y-31179673D01*
X43719363Y-31073539D01*
X43719361Y-31073538D01*
X43714554Y-31070505D01*
X43518160Y-30992152D01*
X43512579Y-30991042D01*
X43512576Y-30991041D01*
X43414467Y-30971526D01*
X43310775Y-30950901D01*
X43305088Y-30950827D01*
X43305083Y-30950826D01*
X43105034Y-30948207D01*
X43105029Y-30948207D01*
X43099346Y-30948133D01*
X43093742Y-30949096D01*
X43093741Y-30949096D01*
X42896550Y-30982979D01*
X42896547Y-30982980D01*
X42890953Y-30983941D01*
X42692575Y-31057127D01*
X42687697Y-31060029D01*
X42687695Y-31060030D01*
X42515740Y-31162332D01*
X42515737Y-31162334D01*
X42510856Y-31165238D01*
X42351881Y-31304655D01*
X42348362Y-31309119D01*
X42348359Y-31309122D01*
X42330782Y-31331419D01*
X42220976Y-31470708D01*
X42122523Y-31657836D01*
X42120837Y-31663267D01*
X42120835Y-31663271D01*
X42080386Y-31793538D01*
X42059820Y-31859773D01*
X42042851Y-32003140D01*
X42015425Y-32067398D01*
X41960974Y-32104346D01*
X41880225Y-32104346D01*
X41880667Y-32104063D01*
X41828057Y-32072081D01*
X41797453Y-32009271D01*
X41796232Y-31999909D01*
X41786601Y-31895100D01*
X41786081Y-31889440D01*
X41728686Y-31685931D01*
X41635165Y-31496290D01*
X41508651Y-31326867D01*
X41504481Y-31323012D01*
X41504478Y-31323009D01*
X41440319Y-31263702D01*
X41353381Y-31183337D01*
X41347574Y-31179673D01*
X41179363Y-31073539D01*
X41179361Y-31073538D01*
X41174554Y-31070505D01*
X40978160Y-30992152D01*
X40972579Y-30991042D01*
X40972576Y-30991041D01*
X40874467Y-30971526D01*
X40770775Y-30950901D01*
X40765088Y-30950827D01*
X40765083Y-30950826D01*
X40565034Y-30948207D01*
X40565029Y-30948207D01*
X40559346Y-30948133D01*
X40553742Y-30949096D01*
X40553741Y-30949096D01*
X40356550Y-30982979D01*
X40356547Y-30982980D01*
X40350953Y-30983941D01*
X40152575Y-31057127D01*
X40147697Y-31060029D01*
X40147695Y-31060030D01*
X39975740Y-31162332D01*
X39975737Y-31162334D01*
X39970856Y-31165238D01*
X39811881Y-31304655D01*
X39808362Y-31309119D01*
X39808359Y-31309122D01*
X39790782Y-31331419D01*
X39680976Y-31470708D01*
X39582523Y-31657836D01*
X39580837Y-31663267D01*
X39580835Y-31663271D01*
X39540386Y-31793538D01*
X39519820Y-31859773D01*
X39502851Y-32003140D01*
X39475425Y-32067398D01*
X39420974Y-32104346D01*
X39340225Y-32104346D01*
X39340667Y-32104063D01*
X39288057Y-32072081D01*
X39257453Y-32009271D01*
X39256232Y-31999909D01*
X39246601Y-31895100D01*
X39246081Y-31889440D01*
X39188686Y-31685931D01*
X39095165Y-31496290D01*
X38968651Y-31326867D01*
X38964481Y-31323012D01*
X38964478Y-31323009D01*
X38900319Y-31263702D01*
X38813381Y-31183337D01*
X38807574Y-31179673D01*
X38639363Y-31073539D01*
X38639361Y-31073538D01*
X38634554Y-31070505D01*
X38438160Y-30992152D01*
X38432579Y-30991042D01*
X38432576Y-30991041D01*
X38334467Y-30971526D01*
X38230775Y-30950901D01*
X38225088Y-30950827D01*
X38225083Y-30950826D01*
X38025034Y-30948207D01*
X38025029Y-30948207D01*
X38019346Y-30948133D01*
X38013742Y-30949096D01*
X38013741Y-30949096D01*
X37816550Y-30982979D01*
X37816547Y-30982980D01*
X37810953Y-30983941D01*
X37612575Y-31057127D01*
X37607697Y-31060029D01*
X37607695Y-31060030D01*
X37435740Y-31162332D01*
X37435737Y-31162334D01*
X37430856Y-31165238D01*
X37271881Y-31304655D01*
X37268362Y-31309119D01*
X37268359Y-31309122D01*
X37250782Y-31331419D01*
X37140976Y-31470708D01*
X37042523Y-31657836D01*
X37040837Y-31663267D01*
X37040835Y-31663271D01*
X37000386Y-31793538D01*
X36979820Y-31859773D01*
X36962851Y-32003140D01*
X36935425Y-32067398D01*
X36880974Y-32104346D01*
X36800225Y-32104346D01*
X36800667Y-32104063D01*
X36748057Y-32072081D01*
X36717453Y-32009271D01*
X36716232Y-31999909D01*
X36706601Y-31895100D01*
X36706081Y-31889440D01*
X36648686Y-31685931D01*
X36555165Y-31496290D01*
X36428651Y-31326867D01*
X36424481Y-31323012D01*
X36424478Y-31323009D01*
X36360319Y-31263702D01*
X36273381Y-31183337D01*
X36267574Y-31179673D01*
X36099363Y-31073539D01*
X36099361Y-31073538D01*
X36094554Y-31070505D01*
X35898160Y-30992152D01*
X35892579Y-30991042D01*
X35892576Y-30991041D01*
X35794467Y-30971526D01*
X35690775Y-30950901D01*
X35685088Y-30950827D01*
X35685083Y-30950826D01*
X35485034Y-30948207D01*
X35485029Y-30948207D01*
X35479346Y-30948133D01*
X35473742Y-30949096D01*
X35473741Y-30949096D01*
X35276550Y-30982979D01*
X35276547Y-30982980D01*
X35270953Y-30983941D01*
X35072575Y-31057127D01*
X35067697Y-31060029D01*
X35067695Y-31060030D01*
X34895740Y-31162332D01*
X34895737Y-31162334D01*
X34890856Y-31165238D01*
X34731881Y-31304655D01*
X34728362Y-31309119D01*
X34728359Y-31309122D01*
X34710782Y-31331419D01*
X34600976Y-31470708D01*
X34502523Y-31657836D01*
X34500837Y-31663267D01*
X34500835Y-31663271D01*
X34460386Y-31793538D01*
X34439820Y-31859773D01*
X34439152Y-31865418D01*
X34439151Y-31865422D01*
X34427640Y-31962681D01*
X34400213Y-32026942D01*
X34342397Y-32066173D01*
X34272549Y-32067919D01*
X34212845Y-32031625D01*
X34182241Y-31968814D01*
X34180500Y-31948106D01*
X34180500Y-31205354D01*
X34177382Y-31179154D01*
X34131939Y-31076847D01*
X34052713Y-30997759D01*
X34042242Y-30993130D01*
X34042241Y-30993129D01*
X33958853Y-30956263D01*
X33958851Y-30956262D01*
X33950327Y-30952494D01*
X33924646Y-30949500D01*
X32135354Y-30949500D01*
X32131700Y-30949935D01*
X32131698Y-30949935D01*
X32126734Y-30950526D01*
X32109154Y-30952618D01*
X32006847Y-30998061D01*
X31927759Y-31077287D01*
X31923130Y-31087758D01*
X31923129Y-31087759D01*
X31888876Y-31165238D01*
X31882494Y-31179673D01*
X31879500Y-31205354D01*
X31879500Y-32994646D01*
X22000500Y-32994646D01*
X22000500Y-25000000D01*
X23344396Y-25000000D01*
X23364779Y-25258994D01*
X23425427Y-25511610D01*
X23524846Y-25751628D01*
X23660588Y-25973140D01*
X23829311Y-26170689D01*
X24026860Y-26339412D01*
X24248372Y-26475154D01*
X24488390Y-26574573D01*
X24493126Y-26575710D01*
X24736273Y-26634085D01*
X24736277Y-26634086D01*
X24741006Y-26635221D01*
X24745856Y-26635603D01*
X24745858Y-26635603D01*
X24799071Y-26639791D01*
X24935147Y-26650500D01*
X25064853Y-26650500D01*
X25200929Y-26639791D01*
X25254142Y-26635603D01*
X25254144Y-26635603D01*
X25258994Y-26635221D01*
X25263723Y-26634086D01*
X25263727Y-26634085D01*
X25506874Y-26575710D01*
X25511610Y-26574573D01*
X25751628Y-26475154D01*
X25973140Y-26339412D01*
X26170689Y-26170689D01*
X26339412Y-25973140D01*
X26475154Y-25751628D01*
X26574573Y-25511610D01*
X26635221Y-25258994D01*
X26655604Y-25000000D01*
X67344396Y-25000000D01*
X67364779Y-25258994D01*
X67425427Y-25511610D01*
X67524846Y-25751628D01*
X67660588Y-25973140D01*
X67829311Y-26170689D01*
X68026860Y-26339412D01*
X68248372Y-26475154D01*
X68488390Y-26574573D01*
X68493126Y-26575710D01*
X68736273Y-26634085D01*
X68736277Y-26634086D01*
X68741006Y-26635221D01*
X68745856Y-26635603D01*
X68745858Y-26635603D01*
X68799071Y-26639791D01*
X68935147Y-26650500D01*
X69064853Y-26650500D01*
X69200929Y-26639791D01*
X69254142Y-26635603D01*
X69254144Y-26635603D01*
X69258994Y-26635221D01*
X69263723Y-26634086D01*
X69263727Y-26634085D01*
X69506874Y-26575710D01*
X69511610Y-26574573D01*
X69751628Y-26475154D01*
X69973140Y-26339412D01*
X70170689Y-26170689D01*
X70339412Y-25973140D01*
X70475154Y-25751628D01*
X70574573Y-25511610D01*
X70635221Y-25258994D01*
X70655604Y-25000000D01*
X70635221Y-24741006D01*
X70574573Y-24488390D01*
X70475154Y-24248372D01*
X70339412Y-24026860D01*
X70198460Y-23861826D01*
X70173850Y-23833012D01*
X70170689Y-23829311D01*
X70021949Y-23702275D01*
X69976847Y-23663754D01*
X69976846Y-23663754D01*
X69973140Y-23660588D01*
X69751628Y-23524846D01*
X69511610Y-23425427D01*
X69463672Y-23413918D01*
X69263727Y-23365915D01*
X69263723Y-23365914D01*
X69258994Y-23364779D01*
X69254144Y-23364397D01*
X69254142Y-23364397D01*
X69200929Y-23360209D01*
X69064853Y-23349500D01*
X68935147Y-23349500D01*
X68799071Y-23360209D01*
X68745858Y-23364397D01*
X68745856Y-23364397D01*
X68741006Y-23364779D01*
X68736277Y-23365914D01*
X68736273Y-23365915D01*
X68536328Y-23413918D01*
X68488390Y-23425427D01*
X68248372Y-23524846D01*
X68026860Y-23660588D01*
X68023154Y-23663754D01*
X68023153Y-23663754D01*
X67978051Y-23702275D01*
X67829311Y-23829311D01*
X67826150Y-23833012D01*
X67801541Y-23861826D01*
X67660588Y-24026860D01*
X67524846Y-24248372D01*
X67425427Y-24488390D01*
X67364779Y-24741006D01*
X67344396Y-25000000D01*
X26655604Y-25000000D01*
X26635221Y-24741006D01*
X26574573Y-24488390D01*
X26475154Y-24248372D01*
X26339412Y-24026860D01*
X26198460Y-23861826D01*
X26173850Y-23833012D01*
X26170689Y-23829311D01*
X26021949Y-23702275D01*
X25976847Y-23663754D01*
X25976846Y-23663754D01*
X25973140Y-23660588D01*
X25751628Y-23524846D01*
X25511610Y-23425427D01*
X25463672Y-23413918D01*
X25263727Y-23365915D01*
X25263723Y-23365914D01*
X25258994Y-23364779D01*
X25254144Y-23364397D01*
X25254142Y-23364397D01*
X25200929Y-23360209D01*
X25064853Y-23349500D01*
X24935147Y-23349500D01*
X24799071Y-23360209D01*
X24745858Y-23364397D01*
X24745856Y-23364397D01*
X24741006Y-23364779D01*
X24736277Y-23365914D01*
X24736273Y-23365915D01*
X24536328Y-23413918D01*
X24488390Y-23425427D01*
X24248372Y-23524846D01*
X24026860Y-23660588D01*
X24023154Y-23663754D01*
X24023153Y-23663754D01*
X23978051Y-23702275D01*
X23829311Y-23829311D01*
X23826150Y-23833012D01*
X23801541Y-23861826D01*
X23660588Y-24026860D01*
X23524846Y-24248372D01*
X23425427Y-24488390D01*
X23364779Y-24741006D01*
X23344396Y-25000000D01*
X22000500Y-25000000D01*
X22000500Y-23737139D01*
X22002384Y-23715606D01*
X22003252Y-23710683D01*
X22005136Y-23700000D01*
X22003252Y-23689315D01*
X22003252Y-23678469D01*
X22003574Y-23678469D01*
X22002931Y-23666011D01*
X22017166Y-23466979D01*
X22019683Y-23449470D01*
X22024914Y-23425427D01*
X22067457Y-23229861D01*
X22072441Y-23212887D01*
X22150981Y-23002311D01*
X22158331Y-22986217D01*
X22224115Y-22865743D01*
X22266044Y-22788956D01*
X22275596Y-22774093D01*
X22410295Y-22594157D01*
X22421875Y-22580793D01*
X22580793Y-22421875D01*
X22594157Y-22410295D01*
X22774093Y-22275596D01*
X22788956Y-22266044D01*
X22986217Y-22158331D01*
X23002311Y-22150981D01*
X23212887Y-22072441D01*
X23229861Y-22067457D01*
X23279613Y-22056634D01*
X23449473Y-22019683D01*
X23466979Y-22017166D01*
X23666012Y-22002931D01*
X23678469Y-22003574D01*
X23678469Y-22003252D01*
X23689315Y-22003252D01*
X23700000Y-22005136D01*
X23715609Y-22002384D01*
X23737139Y-22000500D01*
X28014481Y-22000500D01*
X28081520Y-22020185D01*
G37*
%TD.AperFunction*%
%TD*%
M02*
