%TF.GenerationSoftware,KiCad,Pcbnew,(6.0.5)*%
%TF.CreationDate,2023-05-01T10:01:18+02:00*%
%TF.ProjectId,arduboy_AS_flavor,61726475-626f-4795-9f41-535f666c6176,rev?*%
%TF.SameCoordinates,Original*%
%TF.FileFunction,Legend,Bot*%
%TF.FilePolarity,Positive*%
%FSLAX46Y46*%
G04 Gerber Fmt 4.6, Leading zero omitted, Abs format (unit mm)*
G04 Created by KiCad (PCBNEW (6.0.5)) date 2023-05-01 10:01:18*
%MOMM*%
%LPD*%
G01*
G04 APERTURE LIST*
G04 Aperture macros list*
%AMRoundRect*
0 Rectangle with rounded corners*
0 $1 Rounding radius*
0 $2 $3 $4 $5 $6 $7 $8 $9 X,Y pos of 4 corners*
0 Add a 4 corners polygon primitive as box body*
4,1,4,$2,$3,$4,$5,$6,$7,$8,$9,$2,$3,0*
0 Add four circle primitives for the rounded corners*
1,1,$1+$1,$2,$3*
1,1,$1+$1,$4,$5*
1,1,$1+$1,$6,$7*
1,1,$1+$1,$8,$9*
0 Add four rect primitives between the rounded corners*
20,1,$1+$1,$2,$3,$4,$5,0*
20,1,$1+$1,$4,$5,$6,$7,0*
20,1,$1+$1,$6,$7,$8,$9,0*
20,1,$1+$1,$8,$9,$2,$3,0*%
G04 Aperture macros list end*
%ADD10C,0.120000*%
%ADD11C,0.150000*%
%ADD12O,1.800000X1.800000*%
%ADD13RoundRect,0.050000X0.850000X-0.850000X0.850000X0.850000X-0.850000X0.850000X-0.850000X-0.850000X0*%
%ADD14C,1.252000*%
%ADD15C,2.800000*%
%ADD16C,4.500000*%
%ADD17C,0.750000*%
%ADD18O,1.350000X2.000000*%
G04 APERTURE END LIST*
D10*
%TO.C,J3*%
X68300000Y-100800000D02*
X68300000Y-102050000D01*
X67050000Y-99050000D02*
X61550000Y-99050000D01*
X60300000Y-100800000D02*
X60300000Y-102050000D01*
%TD*%
%LPC*%
D11*
%TO.C,H1*%
X24650000Y-102000000D02*
G75*
G03*
X24650000Y-102000000I-650000J0D01*
G01*
%TO.C,H2*%
X29150000Y-23000000D02*
G75*
G03*
X29150000Y-23000000I-650000J0D01*
G01*
%TO.C,H3*%
X66150000Y-23000000D02*
G75*
G03*
X66150000Y-23000000I-650000J0D01*
G01*
%TO.C,H4*%
X25650000Y-25000000D02*
G75*
G03*
X25650000Y-25000000I-650000J0D01*
G01*
%TO.C,H5*%
X69650000Y-25000000D02*
G75*
G03*
X69650000Y-25000000I-650000J0D01*
G01*
%TO.C,H6*%
X69650000Y-83900000D02*
G75*
G03*
X69650000Y-83900000I-650000J0D01*
G01*
%TO.C,H7*%
X25650000Y-79500000D02*
G75*
G03*
X25650000Y-79500000I-650000J0D01*
G01*
%TD*%
D12*
%TO.C,J2*%
X60970000Y-32100000D03*
X58430000Y-32100000D03*
X55890000Y-32100000D03*
X53350000Y-32100000D03*
X50810000Y-32100000D03*
X48270000Y-32100000D03*
X43190000Y-32100000D03*
X40650000Y-32100000D03*
X38110000Y-32100000D03*
X35570000Y-32100000D03*
D13*
X33030000Y-32100000D03*
%TD*%
D14*
%TO.C,H1*%
X24000000Y-102000000D03*
%TD*%
%TO.C,H2*%
X28500000Y-23000000D03*
%TD*%
%TO.C,H3*%
X65500000Y-23000000D03*
%TD*%
D15*
%TO.C,H4*%
X25000000Y-25000000D03*
D16*
X25000000Y-25000000D03*
%TD*%
D15*
%TO.C,H5*%
X69000000Y-25000000D03*
D16*
X69000000Y-25000000D03*
%TD*%
%TO.C,H6*%
X69000000Y-83900000D03*
D15*
X69000000Y-83900000D03*
%TD*%
D17*
%TO.C,J3*%
X66300000Y-101025000D03*
X62300000Y-101025000D03*
D18*
X60725000Y-99700000D03*
X60725000Y-103150000D03*
X67875000Y-99700000D03*
X67875000Y-103150000D03*
%TD*%
D16*
%TO.C,H7*%
X25000000Y-79500000D03*
D15*
X25000000Y-79500000D03*
%TD*%
D13*
%TO.C,JP2*%
X44900000Y-78600000D03*
D12*
X47440000Y-78600000D03*
%TD*%
M02*
