%TF.GenerationSoftware,KiCad,Pcbnew,(6.0.5)*%
%TF.CreationDate,2023-05-01T10:01:18+02:00*%
%TF.ProjectId,arduboy_AS_flavor,61726475-626f-4795-9f41-535f666c6176,rev?*%
%TF.SameCoordinates,Original*%
%TF.FileFunction,Copper,L1,Top*%
%TF.FilePolarity,Positive*%
%FSLAX46Y46*%
G04 Gerber Fmt 4.6, Leading zero omitted, Abs format (unit mm)*
G04 Created by KiCad (PCBNEW (6.0.5)) date 2023-05-01 10:01:18*
%MOMM*%
%LPD*%
G01*
G04 APERTURE LIST*
G04 Aperture macros list*
%AMRoundRect*
0 Rectangle with rounded corners*
0 $1 Rounding radius*
0 $2 $3 $4 $5 $6 $7 $8 $9 X,Y pos of 4 corners*
0 Add a 4 corners polygon primitive as box body*
4,1,4,$2,$3,$4,$5,$6,$7,$8,$9,$2,$3,0*
0 Add four circle primitives for the rounded corners*
1,1,$1+$1,$2,$3*
1,1,$1+$1,$4,$5*
1,1,$1+$1,$6,$7*
1,1,$1+$1,$8,$9*
0 Add four rect primitives between the rounded corners*
20,1,$1+$1,$2,$3,$4,$5,0*
20,1,$1+$1,$4,$5,$6,$7,0*
20,1,$1+$1,$6,$7,$8,$9,0*
20,1,$1+$1,$8,$9,$2,$3,0*%
%AMRotRect*
0 Rectangle, with rotation*
0 The origin of the aperture is its center*
0 $1 length*
0 $2 width*
0 $3 Rotation angle, in degrees counterclockwise*
0 Add horizontal line*
21,1,$1,$2,0,0,$3*%
G04 Aperture macros list end*
%TA.AperFunction,SMDPad,CuDef*%
%ADD10R,0.550000X1.500000*%
%TD*%
%TA.AperFunction,SMDPad,CuDef*%
%ADD11R,1.500000X0.550000*%
%TD*%
%TA.AperFunction,SMDPad,CuDef*%
%ADD12RoundRect,0.155000X-0.155000X0.212500X-0.155000X-0.212500X0.155000X-0.212500X0.155000X0.212500X0*%
%TD*%
%TA.AperFunction,SMDPad,CuDef*%
%ADD13RoundRect,0.155000X-0.212500X-0.155000X0.212500X-0.155000X0.212500X0.155000X-0.212500X0.155000X0*%
%TD*%
%TA.AperFunction,SMDPad,CuDef*%
%ADD14RoundRect,0.155000X0.155000X-0.212500X0.155000X0.212500X-0.155000X0.212500X-0.155000X-0.212500X0*%
%TD*%
%TA.AperFunction,SMDPad,CuDef*%
%ADD15RoundRect,0.237500X-0.300000X-0.237500X0.300000X-0.237500X0.300000X0.237500X-0.300000X0.237500X0*%
%TD*%
%TA.AperFunction,SMDPad,CuDef*%
%ADD16RoundRect,0.155000X0.212500X0.155000X-0.212500X0.155000X-0.212500X-0.155000X0.212500X-0.155000X0*%
%TD*%
%TA.AperFunction,SMDPad,CuDef*%
%ADD17RoundRect,0.237500X0.287500X0.237500X-0.287500X0.237500X-0.287500X-0.237500X0.287500X-0.237500X0*%
%TD*%
%TA.AperFunction,SMDPad,CuDef*%
%ADD18RoundRect,0.237500X0.237500X-0.287500X0.237500X0.287500X-0.237500X0.287500X-0.237500X-0.287500X0*%
%TD*%
%TA.AperFunction,SMDPad,CuDef*%
%ADD19RoundRect,0.237500X-0.287500X-0.237500X0.287500X-0.237500X0.287500X0.237500X-0.287500X0.237500X0*%
%TD*%
%TA.AperFunction,SMDPad,CuDef*%
%ADD20RoundRect,0.250000X-0.275000X-0.350000X0.275000X-0.350000X0.275000X0.350000X-0.275000X0.350000X0*%
%TD*%
%TA.AperFunction,ComponentPad*%
%ADD21O,1.700000X1.700000*%
%TD*%
%TA.AperFunction,ComponentPad*%
%ADD22R,1.700000X1.700000*%
%TD*%
%TA.AperFunction,SMDPad,CuDef*%
%ADD23RoundRect,0.237500X0.237500X-0.300000X0.237500X0.300000X-0.237500X0.300000X-0.237500X-0.300000X0*%
%TD*%
%TA.AperFunction,SMDPad,CuDef*%
%ADD24RoundRect,0.150000X-0.650000X-0.150000X0.650000X-0.150000X0.650000X0.150000X-0.650000X0.150000X0*%
%TD*%
%TA.AperFunction,SMDPad,CuDef*%
%ADD25R,1.560000X0.650000*%
%TD*%
%TA.AperFunction,SMDPad,CuDef*%
%ADD26R,1.000000X0.750000*%
%TD*%
%TA.AperFunction,SMDPad,CuDef*%
%ADD27R,2.000000X2.000000*%
%TD*%
%TA.AperFunction,SMDPad,CuDef*%
%ADD28RotRect,2.000000X2.000000X225.000000*%
%TD*%
%TA.AperFunction,SMDPad,CuDef*%
%ADD29RotRect,1.000000X0.750000X225.000000*%
%TD*%
%TA.AperFunction,SMDPad,CuDef*%
%ADD30RotRect,1.000000X0.750000X315.000000*%
%TD*%
%TA.AperFunction,SMDPad,CuDef*%
%ADD31RotRect,2.000000X2.000000X315.000000*%
%TD*%
%TA.AperFunction,SMDPad,CuDef*%
%ADD32RotRect,1.000000X0.750000X135.000000*%
%TD*%
%TA.AperFunction,SMDPad,CuDef*%
%ADD33RotRect,2.000000X2.000000X135.000000*%
%TD*%
%TA.AperFunction,SMDPad,CuDef*%
%ADD34RotRect,1.000000X0.750000X45.000000*%
%TD*%
%TA.AperFunction,SMDPad,CuDef*%
%ADD35RotRect,2.000000X2.000000X45.000000*%
%TD*%
%TA.AperFunction,SMDPad,CuDef*%
%ADD36R,0.350000X3.000000*%
%TD*%
%TA.AperFunction,SMDPad,CuDef*%
%ADD37R,0.400000X1.400000*%
%TD*%
%TA.AperFunction,ComponentPad*%
%ADD38O,1.250000X1.900000*%
%TD*%
%TA.AperFunction,SMDPad,CuDef*%
%ADD39R,1.400000X1.200000*%
%TD*%
%TA.AperFunction,SMDPad,CuDef*%
%ADD40R,6.000000X3.000000*%
%TD*%
%TA.AperFunction,SMDPad,CuDef*%
%ADD41C,2.000000*%
%TD*%
%TA.AperFunction,ViaPad*%
%ADD42C,0.600000*%
%TD*%
%TA.AperFunction,Conductor*%
%ADD43C,0.200000*%
%TD*%
%TA.AperFunction,Conductor*%
%ADD44C,0.250000*%
%TD*%
G04 APERTURE END LIST*
D10*
%TO.P,U1,1,PE6*%
%TO.N,Btn_A*%
X48500000Y-63700000D03*
%TO.P,U1,2,UVCC*%
%TO.N,+5V*%
X49300000Y-63700000D03*
%TO.P,U1,3,D-*%
%TO.N,D-*%
X50100000Y-63700000D03*
%TO.P,U1,4,D+*%
%TO.N,D+*%
X50900000Y-63700000D03*
%TO.P,U1,5,UGND*%
%TO.N,GND*%
X51700000Y-63700000D03*
%TO.P,U1,6,UCAP*%
%TO.N,UCAP*%
X52500000Y-63700000D03*
%TO.P,U1,7,VBUS*%
%TO.N,+5V*%
X53300000Y-63700000D03*
%TO.P,U1,8,PB0*%
%TO.N,RX_LED*%
X54100000Y-63700000D03*
%TO.P,U1,9,PB1*%
%TO.N,SCK*%
X54900000Y-63700000D03*
%TO.P,U1,10,PB2*%
%TO.N,MOSI*%
X55700000Y-63700000D03*
%TO.P,U1,11,PB3*%
%TO.N,MISO*%
X56500000Y-63700000D03*
D11*
%TO.P,U1,12,PB7*%
%TO.N,LED_G*%
X58200000Y-62000000D03*
%TO.P,U1,13,~{RESET}*%
%TO.N,RST*%
X58200000Y-61200000D03*
%TO.P,U1,14,VCC*%
%TO.N,VCC*%
X58200000Y-60400000D03*
%TO.P,U1,15,GND*%
%TO.N,GND*%
X58200000Y-59600000D03*
%TO.P,U1,16,XTAL2*%
%TO.N,XTAL2*%
X58200000Y-58800000D03*
%TO.P,U1,17,XTAL1*%
%TO.N,XTAL1*%
X58200000Y-58000000D03*
%TO.P,U1,18,PD0*%
%TO.N,SCL*%
X58200000Y-57200000D03*
%TO.P,U1,19,PD1*%
%TO.N,SDA+FCS*%
X58200000Y-56400000D03*
%TO.P,U1,20,PD2*%
%TO.N,RX*%
X58200000Y-55600000D03*
%TO.P,U1,21,PD3*%
%TO.N,TX*%
X58200000Y-54800000D03*
%TO.P,U1,22,PD5*%
%TO.N,TX_LED*%
X58200000Y-54000000D03*
D10*
%TO.P,U1,23,GND*%
%TO.N,GND*%
X56500000Y-52300000D03*
%TO.P,U1,24,AVCC*%
%TO.N,VCC*%
X55700000Y-52300000D03*
%TO.P,U1,25,PD4*%
%TO.N,OLED_DC*%
X54900000Y-52300000D03*
%TO.P,U1,26,PD6*%
%TO.N,OLED_CS*%
X54100000Y-52300000D03*
%TO.P,U1,27,PD7*%
%TO.N,OLED_RST*%
X53300000Y-52300000D03*
%TO.P,U1,28,PB4*%
%TO.N,Btn_B*%
X52500000Y-52300000D03*
%TO.P,U1,29,PB5*%
%TO.N,LED_B*%
X51700000Y-52300000D03*
%TO.P,U1,30,PB6*%
%TO.N,LED_R*%
X50900000Y-52300000D03*
%TO.P,U1,31,PC6*%
%TO.N,SPKR1*%
X50100000Y-52300000D03*
%TO.P,U1,32,PC7*%
%TO.N,SPKR2*%
X49300000Y-52300000D03*
%TO.P,U1,33,~{HWB}/PE2*%
%TO.N,GND*%
X48500000Y-52300000D03*
D11*
%TO.P,U1,34,VCC*%
%TO.N,VCC*%
X46800000Y-54000000D03*
%TO.P,U1,35,GND*%
%TO.N,GND*%
X46800000Y-54800000D03*
%TO.P,U1,36,PF7*%
%TO.N,Btn_UP*%
X46800000Y-55600000D03*
%TO.P,U1,37,PF6*%
%TO.N,Btn_RIGHT*%
X46800000Y-56400000D03*
%TO.P,U1,38,PF5*%
%TO.N,Btn_LEFT*%
X46800000Y-57200000D03*
%TO.P,U1,39,PF4*%
%TO.N,Btn_DOWN*%
X46800000Y-58000000D03*
%TO.P,U1,40,PF1*%
%TO.N,EN*%
X46800000Y-58800000D03*
%TO.P,U1,41,PF0*%
%TO.N,A5*%
X46800000Y-59600000D03*
%TO.P,U1,42,AREF*%
%TO.N,AREF*%
X46800000Y-60400000D03*
%TO.P,U1,43,GND*%
%TO.N,GND*%
X46800000Y-61200000D03*
%TO.P,U1,44,AVCC*%
%TO.N,VCC*%
X46800000Y-62000000D03*
%TD*%
D12*
%TO.P,C2,1*%
%TO.N,XTAL1*%
X67800000Y-59232500D03*
%TO.P,C2,2*%
%TO.N,GND*%
X67800000Y-60367500D03*
%TD*%
D13*
%TO.P,C3,1*%
%TO.N,XTAL2*%
X64532500Y-62100000D03*
%TO.P,C3,2*%
%TO.N,GND*%
X65667500Y-62100000D03*
%TD*%
%TO.P,C4,1*%
%TO.N,VCC*%
X68032500Y-41500000D03*
%TO.P,C4,2*%
%TO.N,GND*%
X69167500Y-41500000D03*
%TD*%
D14*
%TO.P,C5,1*%
%TO.N,Net-(C5-Pad1)*%
X39000000Y-42767500D03*
%TO.P,C5,2*%
%TO.N,Net-(C5-Pad2)*%
X39000000Y-41632500D03*
%TD*%
%TO.P,C6,1*%
%TO.N,Net-(C6-Pad1)*%
X41900000Y-42967500D03*
%TO.P,C6,2*%
%TO.N,Net-(C6-Pad2)*%
X41900000Y-41832500D03*
%TD*%
D15*
%TO.P,C7,1*%
%TO.N,VCC*%
X63437500Y-78800000D03*
%TO.P,C7,2*%
%TO.N,GND*%
X65162500Y-78800000D03*
%TD*%
D14*
%TO.P,C10,1*%
%TO.N,VCC*%
X43300000Y-43167500D03*
%TO.P,C10,2*%
%TO.N,GND*%
X43300000Y-42032500D03*
%TD*%
%TO.P,C11,1*%
%TO.N,VCC*%
X44500000Y-43367500D03*
%TO.P,C11,2*%
%TO.N,GND*%
X44500000Y-42232500D03*
%TD*%
D13*
%TO.P,C12,1*%
%TO.N,+BATT*%
X53732500Y-79000000D03*
%TO.P,C12,2*%
%TO.N,GND*%
X54867500Y-79000000D03*
%TD*%
%TO.P,C13,1*%
%TO.N,+5V*%
X50132500Y-82700000D03*
%TO.P,C13,2*%
%TO.N,GND*%
X51267500Y-82700000D03*
%TD*%
D15*
%TO.P,C14,1*%
%TO.N,Net-(C14-Pad1)*%
X46137500Y-42900000D03*
%TO.P,C14,2*%
%TO.N,GND*%
X47862500Y-42900000D03*
%TD*%
%TO.P,C15,1*%
%TO.N,Net-(C15-Pad1)*%
X49837500Y-43000000D03*
%TO.P,C15,2*%
%TO.N,GND*%
X51562500Y-43000000D03*
%TD*%
D16*
%TO.P,C16,1*%
%TO.N,AREF*%
X44467500Y-60400000D03*
%TO.P,C16,2*%
%TO.N,GND*%
X43332500Y-60400000D03*
%TD*%
D12*
%TO.P,C17,1*%
%TO.N,+5V*%
X49100000Y-66032500D03*
%TO.P,C17,2*%
%TO.N,GND*%
X49100000Y-67167500D03*
%TD*%
D16*
%TO.P,C19,1*%
%TO.N,VCC*%
X44467500Y-62000000D03*
%TO.P,C19,2*%
%TO.N,GND*%
X43332500Y-62000000D03*
%TD*%
D13*
%TO.P,C20,1*%
%TO.N,VCC*%
X60532500Y-60200000D03*
%TO.P,C20,2*%
%TO.N,GND*%
X61667500Y-60200000D03*
%TD*%
%TO.P,C21,1*%
%TO.N,VCC*%
X58632500Y-50000000D03*
%TO.P,C21,2*%
%TO.N,GND*%
X59767500Y-50000000D03*
%TD*%
D16*
%TO.P,C22,1*%
%TO.N,VCC*%
X44467500Y-54000000D03*
%TO.P,C22,2*%
%TO.N,GND*%
X43332500Y-54000000D03*
%TD*%
D13*
%TO.P,C27,1*%
%TO.N,+5V*%
X65032500Y-98300000D03*
%TO.P,C27,2*%
%TO.N,GND*%
X66167500Y-98300000D03*
%TD*%
D17*
%TO.P,D2,1,K*%
%TO.N,Net-(D2-Pad1)*%
X26475000Y-40300000D03*
%TO.P,D2,2,A*%
%TO.N,VCC*%
X24725000Y-40300000D03*
%TD*%
D18*
%TO.P,D5,1,K*%
%TO.N,GND*%
X70400000Y-101575000D03*
%TO.P,D5,2,A*%
%TO.N,Net-(D5-Pad2)*%
X70400000Y-99825000D03*
%TD*%
D19*
%TO.P,D6,1,K*%
%TO.N,GND*%
X63425000Y-86800000D03*
%TO.P,D6,2,A*%
%TO.N,Net-(D6-Pad2)*%
X65175000Y-86800000D03*
%TD*%
%TO.P,D9,1,K*%
%TO.N,GND*%
X26525000Y-31300000D03*
%TO.P,D9,2,A*%
%TO.N,Net-(D9-Pad2)*%
X28275000Y-31300000D03*
%TD*%
D20*
%TO.P,FB1,1*%
%TO.N,+5V*%
X61050000Y-97500000D03*
%TO.P,FB1,2*%
%TO.N,VBUS*%
X63350000Y-97500000D03*
%TD*%
D21*
%TO.P,J2,1,Pin_1*%
%TO.N,VCC*%
X60970000Y-32100000D03*
%TO.P,J2,2,Pin_2*%
%TO.N,GND*%
X58430000Y-32100000D03*
%TO.P,J2,3,Pin_3*%
%TO.N,RST*%
X55890000Y-32100000D03*
%TO.P,J2,4,Pin_4*%
%TO.N,SCLK*%
X53350000Y-32100000D03*
%TO.P,J2,5,Pin_5*%
%TO.N,MOSI*%
X50810000Y-32100000D03*
%TO.P,J2,6,Pin_6*%
%TO.N,MISO*%
X48270000Y-32100000D03*
%TO.P,J2,8,Pin_8*%
%TO.N,A5*%
X43190000Y-32100000D03*
%TO.P,J2,9,Pin_9*%
%TO.N,RX*%
X40650000Y-32100000D03*
%TO.P,J2,10,Pin_10*%
%TO.N,SCL*%
X38110000Y-32100000D03*
%TO.P,J2,11,Pin_11*%
%TO.N,SDA+FCS*%
X35570000Y-32100000D03*
D22*
%TO.P,J2,12,Pin_12*%
%TO.N,TX*%
X33030000Y-32100000D03*
%TD*%
D16*
%TO.P,R1,1*%
%TO.N,VCC*%
X61667500Y-61200000D03*
%TO.P,R1,2*%
%TO.N,RST*%
X60532500Y-61200000D03*
%TD*%
D13*
%TO.P,R2,1*%
%TO.N,VCC*%
X60532500Y-41500000D03*
%TO.P,R2,2*%
%TO.N,SDA+FCS*%
X61667500Y-41500000D03*
%TD*%
%TO.P,R3,1*%
%TO.N,VCC*%
X65432500Y-41600000D03*
%TO.P,R3,2*%
%TO.N,/~{WP}*%
X66567500Y-41600000D03*
%TD*%
%TO.P,R4,1*%
%TO.N,VCC*%
X62932500Y-41500000D03*
%TO.P,R4,2*%
%TO.N,/~{HOLD}*%
X64067500Y-41500000D03*
%TD*%
%TO.P,R6,1*%
%TO.N,+5V*%
X69532500Y-98200000D03*
%TO.P,R6,2*%
%TO.N,Net-(D5-Pad2)*%
X70667500Y-98200000D03*
%TD*%
%TO.P,R7,1*%
%TO.N,VCC*%
X66832500Y-87500000D03*
%TO.P,R7,2*%
%TO.N,Net-(D6-Pad2)*%
X67967500Y-87500000D03*
%TD*%
%TO.P,R9,1*%
%TO.N,Net-(D2-Pad1)*%
X25232500Y-35200000D03*
%TO.P,R9,2*%
%TO.N,LED_R*%
X26367500Y-35200000D03*
%TD*%
%TO.P,R10,1*%
%TO.N,Net-(D3-Pad1)*%
X25332500Y-32900000D03*
%TO.P,R10,2*%
%TO.N,LED_G*%
X26467500Y-32900000D03*
%TD*%
%TO.P,R11,1*%
%TO.N,Net-(D4-Pad1)*%
X25332500Y-34000000D03*
%TO.P,R11,2*%
%TO.N,LED_B*%
X26467500Y-34000000D03*
%TD*%
%TO.P,R12,1*%
%TO.N,+5V*%
X50232500Y-80100000D03*
%TO.P,R12,2*%
%TO.N,Net-(D7-Pad2)*%
X51367500Y-80100000D03*
%TD*%
%TO.P,R13,1*%
%TO.N,RX_LED*%
X23432500Y-30900000D03*
%TO.P,R13,2*%
%TO.N,Net-(D8-Pad2)*%
X24567500Y-30900000D03*
%TD*%
%TO.P,R14,1*%
%TO.N,TX_LED*%
X26665000Y-29700000D03*
%TO.P,R14,2*%
%TO.N,Net-(D9-Pad2)*%
X27800000Y-29700000D03*
%TD*%
D15*
%TO.P,R15,1*%
%TO.N,SPKR1*%
X23837500Y-56300000D03*
%TO.P,R15,2*%
%TO.N,Net-(JP1-Pad2)*%
X25562500Y-56300000D03*
%TD*%
D13*
%TO.P,R16,1*%
%TO.N,Net-(R16-Pad1)*%
X50232500Y-81400000D03*
%TO.P,R16,2*%
%TO.N,GND*%
X51367500Y-81400000D03*
%TD*%
D23*
%TO.P,R17,1*%
%TO.N,Net-(J1-Pad26)*%
X40500000Y-43062500D03*
%TO.P,R17,2*%
%TO.N,GND*%
X40500000Y-41337500D03*
%TD*%
D14*
%TO.P,R20,1*%
%TO.N,/USB_D+*%
X51100000Y-67167500D03*
%TO.P,R20,2*%
%TO.N,D+*%
X51100000Y-66032500D03*
%TD*%
%TO.P,R21,1*%
%TO.N,/USB_D-*%
X50100000Y-67167500D03*
%TO.P,R21,2*%
%TO.N,D-*%
X50100000Y-66032500D03*
%TD*%
D24*
%TO.P,U2,1,~{CS}*%
%TO.N,SDA+FCS*%
X61200000Y-35895000D03*
%TO.P,U2,2,DO(IO1)*%
%TO.N,MISO*%
X61200000Y-37165000D03*
%TO.P,U2,3,IO2*%
%TO.N,/~{WP}*%
X61200000Y-38435000D03*
%TO.P,U2,4,GND*%
%TO.N,GND*%
X61200000Y-39705000D03*
%TO.P,U2,5,DI(IO0)*%
%TO.N,MOSI*%
X68400000Y-39705000D03*
%TO.P,U2,6,CLK*%
%TO.N,SCLK*%
X68400000Y-38435000D03*
%TO.P,U2,7,IO3*%
%TO.N,/~{HOLD}*%
X68400000Y-37165000D03*
%TO.P,U2,8,VCC*%
%TO.N,VCC*%
X68400000Y-35895000D03*
%TD*%
D25*
%TO.P,U4,1,~{CHRG}*%
%TO.N,Net-(D7-Pad1)*%
X53900000Y-80600000D03*
%TO.P,U4,2,GND*%
%TO.N,GND*%
X53900000Y-81550000D03*
%TO.P,U4,3,BAT*%
%TO.N,+BATT*%
X53900000Y-82500000D03*
%TO.P,U4,4,VCC*%
%TO.N,+5V*%
X56600000Y-82500000D03*
%TO.P,U4,5,PROG*%
%TO.N,Net-(R16-Pad1)*%
X56600000Y-80600000D03*
%TD*%
D26*
%TO.P,SW1,1,1*%
%TO.N,GND*%
X68500000Y-91125000D03*
X62500000Y-91125000D03*
D27*
X62500000Y-93000000D03*
%TO.P,SW1,2,2*%
%TO.N,RST*%
X68500000Y-93000000D03*
D26*
X62500000Y-94875000D03*
X68500000Y-94875000D03*
%TD*%
D28*
%TO.P,SW2,1,1*%
%TO.N,Btn_UP*%
X37121320Y-60878680D03*
D29*
X34204505Y-66447146D03*
X38447146Y-62204505D03*
D28*
%TO.P,SW2,2,2*%
%TO.N,GND*%
X32878680Y-65121320D03*
D29*
X31552854Y-63795495D03*
X35795495Y-59552854D03*
%TD*%
D30*
%TO.P,SW4,1,1*%
%TO.N,Btn_LEFT*%
X31947146Y-70295495D03*
X27704505Y-66052854D03*
D31*
X26378680Y-67378680D03*
D30*
%TO.P,SW4,2,2*%
%TO.N,GND*%
X29295495Y-72947146D03*
D31*
X30621320Y-71621320D03*
D30*
X25052854Y-68704505D03*
%TD*%
D32*
%TO.P,SW5,1,1*%
%TO.N,Btn_RIGHT*%
X38052854Y-68704505D03*
X42295495Y-72947146D03*
D33*
X43621320Y-71621320D03*
D32*
%TO.P,SW5,2,2*%
%TO.N,GND*%
X40704505Y-66052854D03*
X44947146Y-70295495D03*
D33*
X39378680Y-67378680D03*
%TD*%
D27*
%TO.P,SW6,1,1*%
%TO.N,Btn_A*%
X53000000Y-73000000D03*
D26*
X53000000Y-71125000D03*
X59000000Y-71125000D03*
%TO.P,SW6,2,2*%
%TO.N,GND*%
X59000000Y-74875000D03*
X53000000Y-74875000D03*
D27*
X59000000Y-73000000D03*
%TD*%
%TO.P,SW7,1,1*%
%TO.N,Btn_B*%
X68500000Y-68500000D03*
D26*
X62500000Y-70375000D03*
X68500000Y-70375000D03*
%TO.P,SW7,2,2*%
%TO.N,GND*%
X62500000Y-66625000D03*
D27*
X62500000Y-68500000D03*
D26*
X68500000Y-66625000D03*
%TD*%
D34*
%TO.P,SW3,1,1*%
%TO.N,Btn_DOWN*%
X35795495Y-72552854D03*
D35*
X32878680Y-78121320D03*
D34*
X31552854Y-76795495D03*
D35*
%TO.P,SW3,2,2*%
%TO.N,GND*%
X37121320Y-73878680D03*
D34*
X34204505Y-79447146D03*
X38447146Y-75204505D03*
%TD*%
D36*
%TO.P,J1,1,NC*%
%TO.N,unconnected-(J1-Pad1)*%
X36850000Y-46300000D03*
%TO.P,J1,2,C2P*%
%TO.N,Net-(C5-Pad1)*%
X37550000Y-46300000D03*
%TO.P,J1,3,C2N*%
%TO.N,Net-(C5-Pad2)*%
X38250000Y-46300000D03*
%TO.P,J1,4,C1P*%
%TO.N,Net-(C6-Pad1)*%
X38950000Y-46300000D03*
%TO.P,J1,5,C1N*%
%TO.N,Net-(C6-Pad2)*%
X39650000Y-46300000D03*
%TO.P,J1,6,VBAT*%
%TO.N,VCC*%
X40350000Y-46300000D03*
%TO.P,J1,7,VSS*%
%TO.N,GND*%
X41050000Y-46300000D03*
%TO.P,J1,8,VSS*%
X41750000Y-46300000D03*
%TO.P,J1,9,VDD*%
%TO.N,VCC*%
X42450000Y-46300000D03*
%TO.P,J1,10,BS0*%
%TO.N,GND*%
X43150000Y-46300000D03*
%TO.P,J1,11,BS1*%
X43850000Y-46300000D03*
%TO.P,J1,12,BS2*%
X44550000Y-46300000D03*
%TO.P,J1,13,~{CS}*%
%TO.N,OLED_CS*%
X45250000Y-46300000D03*
%TO.P,J1,14,~{RST}*%
%TO.N,OLED_RST*%
X45950000Y-46300000D03*
%TO.P,J1,15,~{DC}*%
%TO.N,OLED_DC*%
X46650000Y-46300000D03*
%TO.P,J1,16,R/~{W}*%
%TO.N,GND*%
X47350000Y-46300000D03*
%TO.P,J1,17,E/~{RD}*%
X48050000Y-46300000D03*
%TO.P,J1,18,D0*%
%TO.N,SCK*%
X48750000Y-46300000D03*
%TO.P,J1,19,D1*%
%TO.N,MOSI*%
X49450000Y-46300000D03*
%TO.P,J1,20,D2*%
%TO.N,unconnected-(J1-Pad20)*%
X50150000Y-46300000D03*
%TO.P,J1,21,D3*%
%TO.N,unconnected-(J1-Pad21)*%
X50850000Y-46300000D03*
%TO.P,J1,22,D4*%
%TO.N,unconnected-(J1-Pad22)*%
X51550000Y-46300000D03*
%TO.P,J1,23,D5*%
%TO.N,unconnected-(J1-Pad23)*%
X52250000Y-46300000D03*
%TO.P,J1,24,D6*%
%TO.N,unconnected-(J1-Pad24)*%
X52950000Y-46300000D03*
%TO.P,J1,25,D7*%
%TO.N,unconnected-(J1-Pad25)*%
X53650000Y-46300000D03*
%TO.P,J1,26,IREF*%
%TO.N,Net-(J1-Pad26)*%
X54350000Y-46300000D03*
%TO.P,J1,27,VCMH*%
%TO.N,Net-(C14-Pad1)*%
X55050000Y-46300000D03*
%TO.P,J1,28,VCC*%
%TO.N,Net-(C15-Pad1)*%
X55750000Y-46300000D03*
%TO.P,J1,29,NC*%
%TO.N,unconnected-(J1-Pad29)*%
X56450000Y-46300000D03*
%TO.P,J1,30,NC*%
%TO.N,unconnected-(J1-Pad30)*%
X57150000Y-46300000D03*
%TD*%
D37*
%TO.P,J3,1,VBUS*%
%TO.N,VBUS*%
X63000000Y-100200000D03*
%TO.P,J3,2,D-*%
%TO.N,/USB_D-*%
X63650000Y-100200000D03*
%TO.P,J3,3,D+*%
%TO.N,/USB_D+*%
X64300000Y-100200000D03*
%TO.P,J3,4,ID*%
%TO.N,Net-(J3-Pad4)*%
X64950000Y-100200000D03*
%TO.P,J3,5,GND*%
%TO.N,GND*%
X65600000Y-100200000D03*
D38*
%TO.P,J3,6,Shield*%
%TO.N,unconnected-(J3-Pad6)*%
X60725000Y-99700000D03*
X60725000Y-103150000D03*
X67875000Y-99700000D03*
X67875000Y-103150000D03*
%TD*%
D39*
%TO.P,Y1,1,1*%
%TO.N,XTAL2*%
X64000000Y-60650000D03*
%TO.P,Y1,2,2*%
%TO.N,GND*%
X66200000Y-60650000D03*
%TO.P,Y1,3,3*%
%TO.N,XTAL1*%
X66200000Y-58950000D03*
%TO.P,Y1,4,4*%
%TO.N,GND*%
X64000000Y-58950000D03*
%TD*%
D17*
%TO.P,D3,1,K*%
%TO.N,Net-(D3-Pad1)*%
X26475000Y-38600000D03*
%TO.P,D3,2,A*%
%TO.N,VCC*%
X24725000Y-38600000D03*
%TD*%
%TO.P,D4,1,K*%
%TO.N,Net-(D4-Pad1)*%
X26475000Y-36900000D03*
%TO.P,D4,2,A*%
%TO.N,VCC*%
X24725000Y-36900000D03*
%TD*%
D40*
%TO.P,JP1,1,1*%
%TO.N,SPKR2*%
X28900000Y-53400000D03*
%TO.P,JP1,2,2*%
%TO.N,Net-(JP1-Pad2)*%
X28900000Y-43400000D03*
%TD*%
D19*
%TO.P,D8,1,K*%
%TO.N,GND*%
X23225000Y-29400000D03*
%TO.P,D8,2,A*%
%TO.N,Net-(D8-Pad2)*%
X24975000Y-29400000D03*
%TD*%
D17*
%TO.P,D7,1,K*%
%TO.N,Net-(D7-Pad1)*%
X30875000Y-82500000D03*
%TO.P,D7,2,A*%
%TO.N,Net-(D7-Pad2)*%
X29125000Y-82500000D03*
%TD*%
D22*
%TO.P,JP2,1,1*%
%TO.N,GND*%
X44900000Y-78600000D03*
D21*
%TO.P,JP2,2,2*%
%TO.N,+BATT*%
X47440000Y-78600000D03*
%TD*%
D12*
%TO.P,C18,1*%
%TO.N,+5V*%
X53400000Y-66032500D03*
%TO.P,C18,2*%
%TO.N,GND*%
X53400000Y-67167500D03*
%TD*%
%TO.P,C28,1*%
%TO.N,UCAP*%
X52400000Y-66032500D03*
%TO.P,C28,2*%
%TO.N,GND*%
X52400000Y-67167500D03*
%TD*%
D41*
%TO.P,TP29,1,1*%
%TO.N,+3V3*%
X46100000Y-97050000D03*
%TD*%
%TO.P,TP32,1,1*%
%TO.N,GND*%
X58250000Y-84900000D03*
%TD*%
%TO.P,TP14,1,1*%
%TO.N,OLED_CS*%
X42050000Y-93000000D03*
%TD*%
%TO.P,TP28,1,1*%
%TO.N,SPKR1*%
X42050000Y-101100000D03*
%TD*%
%TO.P,TP2,1,1*%
%TO.N,SDA+FCS*%
X46100000Y-93000000D03*
%TD*%
%TO.P,TP27,1,1*%
%TO.N,Btn_DOWN*%
X38000000Y-93000000D03*
%TD*%
%TO.P,TP17,1,1*%
%TO.N,Btn_A*%
X33950000Y-101100000D03*
%TD*%
%TO.P,TP23,1,1*%
%TO.N,Btn_RIGHT*%
X29900000Y-101100000D03*
%TD*%
%TO.P,TP30,1,1*%
%TO.N,VCC*%
X54200000Y-88950000D03*
%TD*%
%TO.P,TP26,1,1*%
%TO.N,SPKR2*%
X54200000Y-84900000D03*
%TD*%
%TO.P,TP9,1,1*%
%TO.N,LED_B*%
X33950000Y-88950000D03*
%TD*%
%TO.P,TP15,1,1*%
%TO.N,SCK*%
X38000000Y-88950000D03*
%TD*%
%TO.P,TP19,1,1*%
%TO.N,Btn_B*%
X38000000Y-84900000D03*
%TD*%
%TO.P,TP5,1,1*%
%TO.N,LED_G*%
X33950000Y-84900000D03*
%TD*%
%TO.P,TP4,1,1*%
%TO.N,SCL_3V3*%
X50150000Y-88950000D03*
%TD*%
%TO.P,TP10,1,1*%
%TO.N,OLED_DC*%
X50150000Y-84900000D03*
%TD*%
%TO.P,TP18,1,1*%
%TO.N,EN*%
X42050000Y-88950000D03*
%TD*%
%TO.P,TP12,1,1*%
%TO.N,OLED_RST*%
X38000000Y-97050000D03*
%TD*%
%TO.P,TP22,1,1*%
%TO.N,TX*%
X38000000Y-101100000D03*
%TD*%
%TO.P,TP25,1,1*%
%TO.N,Btn_LEFT*%
X33950000Y-97050000D03*
%TD*%
%TO.P,TP13,1,1*%
%TO.N,MOSI*%
X33950000Y-93000000D03*
%TD*%
%TO.P,TP11,1,1*%
%TO.N,MISO*%
X29900000Y-97050000D03*
%TD*%
%TO.P,TP3,1,1*%
%TO.N,RST*%
X29900000Y-84900000D03*
%TD*%
%TO.P,TP16,1,1*%
%TO.N,Net-(J3-Pad4)*%
X46100000Y-101100000D03*
%TD*%
%TO.P,TP20,1,1*%
%TO.N,A5*%
X46100000Y-84900000D03*
%TD*%
%TO.P,TP21,1,1*%
%TO.N,Btn_UP*%
X42050000Y-84900000D03*
%TD*%
%TO.P,TP31,1,1*%
%TO.N,+5V*%
X50150000Y-93000000D03*
%TD*%
%TO.P,TP8,1,1*%
%TO.N,TX_LED*%
X46100000Y-88950000D03*
%TD*%
%TO.P,TP7,1,1*%
%TO.N,LED_R*%
X29900000Y-93000000D03*
%TD*%
%TO.P,TP24,1,1*%
%TO.N,RX*%
X42050000Y-97050000D03*
%TD*%
%TO.P,TP6,1,1*%
%TO.N,RX_LED*%
X29900000Y-88950000D03*
%TD*%
D42*
%TO.N,GND*%
X57500000Y-52300000D03*
X52400000Y-68100000D03*
X45400000Y-61200000D03*
X47500000Y-52300000D03*
X53400000Y-68100000D03*
X60800000Y-50000000D03*
X42400000Y-60400000D03*
X45300000Y-54800000D03*
X51700000Y-65200000D03*
X59700000Y-59600000D03*
X42400000Y-62000000D03*
X49100000Y-68100000D03*
%TO.N,MOSI*%
X55700000Y-61500000D03*
%TO.N,SCK*%
X54900000Y-62200000D03*
%TO.N,OLED_RST*%
X51164963Y-49600000D03*
X53100000Y-50800000D03*
%TO.N,MISO*%
X56500000Y-62200000D03*
%TO.N,LED_G*%
X51358058Y-58441942D03*
X52200000Y-59383884D03*
X46700000Y-51800000D03*
X48200000Y-55300000D03*
%TO.N,RX_LED*%
X51634313Y-59949571D03*
X46100000Y-52414579D03*
X48048440Y-56085514D03*
X50800486Y-59015629D03*
%TO.N,Btn_RIGHT*%
X40400000Y-62642886D03*
X41200000Y-64200000D03*
%TO.N,Btn_A*%
X48200000Y-65200000D03*
%TO.N,Btn_B*%
X52000000Y-50800000D03*
%TD*%
D43*
%TO.N,RST*%
X60532500Y-61200000D02*
X60532500Y-62200000D01*
X60532500Y-61200000D02*
X58200000Y-61200000D01*
D44*
%TO.N,GND*%
X43332500Y-60400000D02*
X42400000Y-60400000D01*
X46800000Y-54800000D02*
X45300000Y-54800000D01*
X60943828Y-59564990D02*
X59735010Y-59564990D01*
X65667500Y-61182500D02*
X66200000Y-60650000D01*
X61667500Y-60200000D02*
X61578838Y-60200000D01*
X47700000Y-52300000D02*
X47500000Y-52300000D01*
X48500000Y-52300000D02*
X47700000Y-52300000D01*
X59735010Y-59564990D02*
X59700000Y-59600000D01*
X43332500Y-62000000D02*
X42400000Y-62000000D01*
X59767500Y-50000000D02*
X60800000Y-50000000D01*
X67800000Y-60367500D02*
X66482500Y-60367500D01*
X61578838Y-60200000D02*
X60943828Y-59564990D01*
X58200000Y-59600000D02*
X59700000Y-59600000D01*
X65667500Y-62100000D02*
X65667500Y-61182500D01*
X49100000Y-67167500D02*
X49100000Y-68100000D01*
X56500000Y-52300000D02*
X57500000Y-52300000D01*
X51700000Y-63700000D02*
X51700000Y-65200000D01*
X53400000Y-67167500D02*
X53400000Y-68100000D01*
X66482500Y-60367500D02*
X66200000Y-60650000D01*
X46800000Y-61200000D02*
X45400000Y-61200000D01*
X52400000Y-67167500D02*
X52400000Y-68100000D01*
D43*
%TO.N,XTAL2*%
X63900000Y-60650000D02*
X64000000Y-60650000D01*
X64000000Y-60650000D02*
X64000000Y-61567500D01*
X64000000Y-61567500D02*
X64532500Y-62100000D01*
%TO.N,XTAL1*%
X67800000Y-59232500D02*
X66482500Y-59232500D01*
X66200000Y-58950000D02*
X65299999Y-58049999D01*
X66482500Y-59232500D02*
X66200000Y-58950000D01*
D44*
%TO.N,VCC*%
X55700000Y-51300000D02*
X57000000Y-50000000D01*
X48700000Y-62000000D02*
X52200000Y-58500000D01*
X60332500Y-60400000D02*
X60532500Y-60200000D01*
X54100000Y-60400000D02*
X52200000Y-58500000D01*
X58200000Y-60400000D02*
X60332500Y-60400000D01*
X52200000Y-58500000D02*
X55700000Y-55000000D01*
X58200000Y-60400000D02*
X54100000Y-60400000D01*
X46800000Y-62000000D02*
X48700000Y-62000000D01*
X55700000Y-52300000D02*
X55700000Y-51300000D01*
X47800000Y-54000000D02*
X52200000Y-58400000D01*
X52200000Y-58400000D02*
X52200000Y-58500000D01*
X60578838Y-60200000D02*
X60532500Y-60200000D01*
X46800000Y-62000000D02*
X44467500Y-62000000D01*
X61667500Y-61200000D02*
X61578838Y-61200000D01*
X46800000Y-54000000D02*
X47800000Y-54000000D01*
X57000000Y-50000000D02*
X58632500Y-50000000D01*
X55700000Y-55000000D02*
X55700000Y-52300000D01*
X61578838Y-61200000D02*
X60578838Y-60200000D01*
%TO.N,+5V*%
X53300000Y-65932500D02*
X53400000Y-66032500D01*
X49300000Y-63700000D02*
X49300000Y-65832500D01*
X53300000Y-63700000D02*
X53300000Y-65932500D01*
X49300000Y-65832500D02*
X49100000Y-66032500D01*
D43*
%TO.N,AREF*%
X46800000Y-60400000D02*
X44467500Y-60400000D01*
%TO.N,UCAP*%
X52500000Y-63700000D02*
X52500000Y-65932500D01*
X52500000Y-65932500D02*
X52400000Y-66032500D01*
%TO.N,MOSI*%
X55700000Y-63700000D02*
X55700000Y-61500000D01*
%TO.N,SCK*%
X54900000Y-63700000D02*
X54900000Y-62200000D01*
%TO.N,OLED_DC*%
X46650000Y-48000000D02*
X46650000Y-46300000D01*
X52252955Y-49799990D02*
X51252906Y-48799941D01*
X51252906Y-48799941D02*
X47449941Y-48799941D01*
X53553691Y-49799990D02*
X52252955Y-49799990D01*
X47449941Y-48799941D02*
X46650000Y-48000000D01*
X54900000Y-51146300D02*
X53553691Y-49799990D01*
X54900000Y-52300000D02*
X54900000Y-51146300D01*
%TO.N,OLED_RST*%
X53300000Y-52300000D02*
X53300000Y-51000000D01*
X45950000Y-47865699D02*
X45950000Y-46300000D01*
X47284252Y-49199951D02*
X45950000Y-47865699D01*
X50764914Y-49199951D02*
X47284252Y-49199951D01*
X53300000Y-51000000D02*
X53100000Y-50800000D01*
X51164963Y-49600000D02*
X50764914Y-49199951D01*
%TO.N,OLED_CS*%
X53388002Y-50200000D02*
X50881397Y-50200000D01*
X47099960Y-49599960D02*
X45250000Y-47750000D01*
X54100000Y-52300000D02*
X54100000Y-50911998D01*
X54100000Y-50911998D02*
X53388002Y-50200000D01*
X50281358Y-49599960D02*
X47099960Y-49599960D01*
X50881397Y-50200000D02*
X50281358Y-49599960D01*
X45250000Y-47750000D02*
X45250000Y-46300000D01*
%TO.N,MISO*%
X56500000Y-63700000D02*
X56500000Y-62200000D01*
%TO.N,SPKR2*%
X49300000Y-51350000D02*
X49150000Y-51200000D01*
X49300000Y-52300000D02*
X49300000Y-51350000D01*
X49150000Y-51200000D02*
X37800000Y-51200000D01*
%TO.N,LED_R*%
X50900000Y-51350000D02*
X49949980Y-50399980D01*
X49481378Y-50399980D02*
X37800000Y-50399980D01*
X49949980Y-50399980D02*
X49481378Y-50399980D01*
X50900000Y-52300000D02*
X50900000Y-51350000D01*
%TO.N,LED_G*%
X46600000Y-51800000D02*
X46400010Y-51600010D01*
X46400010Y-51600010D02*
X37900000Y-51600010D01*
X51358058Y-58441942D02*
X48216116Y-55300000D01*
X48216116Y-55300000D02*
X48200000Y-55300000D01*
X58200000Y-62000000D02*
X57200000Y-62000000D01*
X57200000Y-62000000D02*
X56025010Y-60825010D01*
X46700000Y-51800000D02*
X46600000Y-51800000D01*
X56025010Y-60825010D02*
X53641126Y-60825010D01*
X53641126Y-60825010D02*
X52200000Y-59383884D01*
%TO.N,LED_B*%
X51700000Y-52300000D02*
X51700000Y-51584301D01*
X49647067Y-49999970D02*
X37900000Y-49999970D01*
X50115669Y-49999970D02*
X49647067Y-49999970D01*
X51700000Y-51584301D02*
X50115669Y-49999970D01*
%TO.N,RX_LED*%
X54100000Y-62400000D02*
X51649571Y-59949571D01*
X45685441Y-52000020D02*
X37900000Y-52000020D01*
X50800486Y-59015629D02*
X48048440Y-56263583D01*
X54100000Y-63700000D02*
X54100000Y-62400000D01*
X51649571Y-59949571D02*
X51634313Y-59949571D01*
X46100000Y-52414579D02*
X45685441Y-52000020D01*
X48048440Y-56263583D02*
X48048440Y-56085514D01*
%TO.N,SPKR1*%
X49549990Y-50799990D02*
X49315689Y-50799990D01*
X50100000Y-51350000D02*
X49549990Y-50799990D01*
X49315689Y-50799990D02*
X37800010Y-50799990D01*
X50100000Y-52300000D02*
X50100000Y-51350000D01*
%TO.N,D+*%
X50900000Y-63700000D02*
X50675001Y-63924999D01*
X50550000Y-65471516D02*
X50710010Y-65631526D01*
X50675001Y-64690001D02*
X50550000Y-64815002D01*
X50675001Y-63924999D02*
X50675001Y-64690001D01*
X50710010Y-65631526D02*
X50710010Y-65642510D01*
X50710010Y-65642510D02*
X51100000Y-66032500D01*
X50550000Y-64815002D02*
X50550000Y-65471516D01*
%TO.N,D-*%
X50100000Y-63700000D02*
X50100000Y-65482500D01*
X50100000Y-65482500D02*
X50100000Y-66032500D01*
%TO.N,Btn_UP*%
X46800000Y-55600000D02*
X43502906Y-55600000D01*
X38447146Y-62204505D02*
X34204505Y-66447146D01*
X38224226Y-60878680D02*
X37121320Y-60878680D01*
X37121321Y-60878680D02*
X38447146Y-62204505D01*
X37121320Y-60878680D02*
X37121321Y-60878680D01*
X43502906Y-55600000D02*
X38224226Y-60878680D01*
%TO.N,Btn_DOWN*%
X31552854Y-76795495D02*
X31552855Y-76795495D01*
X35795495Y-68704505D02*
X35795495Y-72552854D01*
X46800000Y-58000000D02*
X42800000Y-58000000D01*
X35795495Y-72552854D02*
X31552854Y-76795495D01*
X31552855Y-76795495D02*
X32878680Y-78121320D01*
X41400000Y-63100000D02*
X35795495Y-68704505D01*
X42800000Y-58000000D02*
X41400000Y-59400000D01*
X41400000Y-59400000D02*
X41400000Y-63100000D01*
%TO.N,Btn_LEFT*%
X27704505Y-66052855D02*
X26378680Y-67378680D01*
X33638807Y-70295495D02*
X31947146Y-70295495D01*
X43034302Y-57200000D02*
X41000000Y-59234302D01*
X31947146Y-70295495D02*
X27704505Y-66052854D01*
X41000000Y-59234302D02*
X41000000Y-62934302D01*
X46800000Y-57200000D02*
X43034302Y-57200000D01*
X41000000Y-62934302D02*
X33638807Y-70295495D01*
X27704505Y-66052854D02*
X27704505Y-66052855D01*
%TO.N,Btn_RIGHT*%
X42295495Y-72947145D02*
X43621320Y-71621320D01*
X40400000Y-59268604D02*
X40400000Y-62642886D01*
X43621320Y-66621320D02*
X43621320Y-71621320D01*
X42295495Y-72947146D02*
X42295495Y-72947145D01*
X41200000Y-64200000D02*
X43621320Y-66621320D01*
X43268604Y-56400000D02*
X40400000Y-59268604D01*
X42295495Y-72947146D02*
X38052854Y-68704505D01*
X46800000Y-56400000D02*
X43268604Y-56400000D01*
%TO.N,Btn_A*%
X48500000Y-63700000D02*
X48500000Y-64900000D01*
X48500000Y-64900000D02*
X48200000Y-65200000D01*
%TO.N,Btn_B*%
X52500000Y-51300000D02*
X52000000Y-50800000D01*
X52500000Y-52300000D02*
X52500000Y-51300000D01*
%TD*%
M02*
