%TF.GenerationSoftware,KiCad,Pcbnew,(6.0.5)*%
%TF.CreationDate,2023-05-01T10:01:18+02:00*%
%TF.ProjectId,arduboy_AS_flavor,61726475-626f-4795-9f41-535f666c6176,rev?*%
%TF.SameCoordinates,Original*%
%TF.FileFunction,Soldermask,Top*%
%TF.FilePolarity,Negative*%
%FSLAX46Y46*%
G04 Gerber Fmt 4.6, Leading zero omitted, Abs format (unit mm)*
G04 Created by KiCad (PCBNEW (6.0.5)) date 2023-05-01 10:01:18*
%MOMM*%
%LPD*%
G01*
G04 APERTURE LIST*
G04 Aperture macros list*
%AMRoundRect*
0 Rectangle with rounded corners*
0 $1 Rounding radius*
0 $2 $3 $4 $5 $6 $7 $8 $9 X,Y pos of 4 corners*
0 Add a 4 corners polygon primitive as box body*
4,1,4,$2,$3,$4,$5,$6,$7,$8,$9,$2,$3,0*
0 Add four circle primitives for the rounded corners*
1,1,$1+$1,$2,$3*
1,1,$1+$1,$4,$5*
1,1,$1+$1,$6,$7*
1,1,$1+$1,$8,$9*
0 Add four rect primitives between the rounded corners*
20,1,$1+$1,$2,$3,$4,$5,0*
20,1,$1+$1,$4,$5,$6,$7,0*
20,1,$1+$1,$6,$7,$8,$9,0*
20,1,$1+$1,$8,$9,$2,$3,0*%
G04 Aperture macros list end*
%ADD10C,0.150000*%
%ADD11RoundRect,0.050000X0.275000X-0.750000X0.275000X0.750000X-0.275000X0.750000X-0.275000X-0.750000X0*%
%ADD12RoundRect,0.050000X0.750000X0.275000X-0.750000X0.275000X-0.750000X-0.275000X0.750000X-0.275000X0*%
%ADD13RoundRect,0.205000X-0.155000X0.212500X-0.155000X-0.212500X0.155000X-0.212500X0.155000X0.212500X0*%
%ADD14RoundRect,0.205000X-0.212500X-0.155000X0.212500X-0.155000X0.212500X0.155000X-0.212500X0.155000X0*%
%ADD15RoundRect,0.205000X0.155000X-0.212500X0.155000X0.212500X-0.155000X0.212500X-0.155000X-0.212500X0*%
%ADD16RoundRect,0.287500X-0.300000X-0.237500X0.300000X-0.237500X0.300000X0.237500X-0.300000X0.237500X0*%
%ADD17RoundRect,0.205000X0.212500X0.155000X-0.212500X0.155000X-0.212500X-0.155000X0.212500X-0.155000X0*%
%ADD18RoundRect,0.287500X0.287500X0.237500X-0.287500X0.237500X-0.287500X-0.237500X0.287500X-0.237500X0*%
%ADD19RoundRect,0.287500X0.237500X-0.287500X0.237500X0.287500X-0.237500X0.287500X-0.237500X-0.287500X0*%
%ADD20RoundRect,0.287500X-0.287500X-0.237500X0.287500X-0.237500X0.287500X0.237500X-0.287500X0.237500X0*%
%ADD21RoundRect,0.300000X-0.275000X-0.350000X0.275000X-0.350000X0.275000X0.350000X-0.275000X0.350000X0*%
%ADD22O,1.800000X1.800000*%
%ADD23RoundRect,0.050000X0.850000X-0.850000X0.850000X0.850000X-0.850000X0.850000X-0.850000X-0.850000X0*%
%ADD24RoundRect,0.287500X0.237500X-0.300000X0.237500X0.300000X-0.237500X0.300000X-0.237500X-0.300000X0*%
%ADD25RoundRect,0.200000X-0.650000X-0.150000X0.650000X-0.150000X0.650000X0.150000X-0.650000X0.150000X0*%
%ADD26RoundRect,0.050000X-0.780000X-0.325000X0.780000X-0.325000X0.780000X0.325000X-0.780000X0.325000X0*%
%ADD27RoundRect,0.050000X-0.500000X-0.375000X0.500000X-0.375000X0.500000X0.375000X-0.500000X0.375000X0*%
%ADD28RoundRect,0.050000X-1.000000X-1.000000X1.000000X-1.000000X1.000000X1.000000X-1.000000X1.000000X0*%
%ADD29RoundRect,0.050000X0.000000X1.414214X-1.414214X0.000000X0.000000X-1.414214X1.414214X0.000000X0*%
%ADD30RoundRect,0.050000X0.088388X0.618718X-0.618718X-0.088388X-0.088388X-0.618718X0.618718X0.088388X0*%
%ADD31RoundRect,0.050000X-0.618718X0.088388X0.088388X-0.618718X0.618718X-0.088388X-0.088388X0.618718X0*%
%ADD32RoundRect,0.050000X-1.414214X0.000000X0.000000X-1.414214X1.414214X0.000000X0.000000X1.414214X0*%
%ADD33RoundRect,0.050000X0.618718X-0.088388X-0.088388X0.618718X-0.618718X0.088388X0.088388X-0.618718X0*%
%ADD34RoundRect,0.050000X1.414214X0.000000X0.000000X1.414214X-1.414214X0.000000X0.000000X-1.414214X0*%
%ADD35RoundRect,0.050000X1.000000X1.000000X-1.000000X1.000000X-1.000000X-1.000000X1.000000X-1.000000X0*%
%ADD36RoundRect,0.050000X0.500000X0.375000X-0.500000X0.375000X-0.500000X-0.375000X0.500000X-0.375000X0*%
%ADD37RoundRect,0.050000X-0.088388X-0.618718X0.618718X0.088388X0.088388X0.618718X-0.618718X-0.088388X0*%
%ADD38RoundRect,0.050000X0.000000X-1.414214X1.414214X0.000000X0.000000X1.414214X-1.414214X0.000000X0*%
%ADD39C,1.252000*%
%ADD40C,2.800000*%
%ADD41C,4.500000*%
%ADD42RoundRect,0.050000X0.175000X1.500000X-0.175000X1.500000X-0.175000X-1.500000X0.175000X-1.500000X0*%
%ADD43C,0.750000*%
%ADD44RoundRect,0.050000X0.200000X0.700000X-0.200000X0.700000X-0.200000X-0.700000X0.200000X-0.700000X0*%
%ADD45O,1.350000X2.000000*%
%ADD46RoundRect,0.050000X-0.700000X-0.600000X0.700000X-0.600000X0.700000X0.600000X-0.700000X0.600000X0*%
%ADD47RoundRect,0.050000X3.000000X-1.500000X3.000000X1.500000X-3.000000X1.500000X-3.000000X-1.500000X0*%
%ADD48C,2.100000*%
G04 APERTURE END LIST*
D10*
%TO.C,H1*%
X24650000Y-102000000D02*
G75*
G03*
X24650000Y-102000000I-650000J0D01*
G01*
%TO.C,H2*%
X29150000Y-23000000D02*
G75*
G03*
X29150000Y-23000000I-650000J0D01*
G01*
%TO.C,H3*%
X66150000Y-23000000D02*
G75*
G03*
X66150000Y-23000000I-650000J0D01*
G01*
%TO.C,H4*%
X25650000Y-25000000D02*
G75*
G03*
X25650000Y-25000000I-650000J0D01*
G01*
%TO.C,H5*%
X69650000Y-25000000D02*
G75*
G03*
X69650000Y-25000000I-650000J0D01*
G01*
%TO.C,H6*%
X69650000Y-83900000D02*
G75*
G03*
X69650000Y-83900000I-650000J0D01*
G01*
%TO.C,H7*%
X25650000Y-79500000D02*
G75*
G03*
X25650000Y-79500000I-650000J0D01*
G01*
%TO.C,H1*%
X24650000Y-102000000D02*
G75*
G03*
X24650000Y-102000000I-650000J0D01*
G01*
%TO.C,H2*%
X29150000Y-23000000D02*
G75*
G03*
X29150000Y-23000000I-650000J0D01*
G01*
%TO.C,H3*%
X66150000Y-23000000D02*
G75*
G03*
X66150000Y-23000000I-650000J0D01*
G01*
%TO.C,H4*%
X25650000Y-25000000D02*
G75*
G03*
X25650000Y-25000000I-650000J0D01*
G01*
%TO.C,H5*%
X69650000Y-25000000D02*
G75*
G03*
X69650000Y-25000000I-650000J0D01*
G01*
%TO.C,H6*%
X69650000Y-83900000D02*
G75*
G03*
X69650000Y-83900000I-650000J0D01*
G01*
%TO.C,H7*%
X25650000Y-79500000D02*
G75*
G03*
X25650000Y-79500000I-650000J0D01*
G01*
%TD*%
D11*
%TO.C,U1*%
X48500000Y-63700000D03*
X49300000Y-63700000D03*
X50100000Y-63700000D03*
X50900000Y-63700000D03*
X51700000Y-63700000D03*
X52500000Y-63700000D03*
X53300000Y-63700000D03*
X54100000Y-63700000D03*
X54900000Y-63700000D03*
X55700000Y-63700000D03*
X56500000Y-63700000D03*
D12*
X58200000Y-62000000D03*
X58200000Y-61200000D03*
X58200000Y-60400000D03*
X58200000Y-59600000D03*
X58200000Y-58800000D03*
X58200000Y-58000000D03*
X58200000Y-57200000D03*
X58200000Y-56400000D03*
X58200000Y-55600000D03*
X58200000Y-54800000D03*
X58200000Y-54000000D03*
D11*
X56500000Y-52300000D03*
X55700000Y-52300000D03*
X54900000Y-52300000D03*
X54100000Y-52300000D03*
X53300000Y-52300000D03*
X52500000Y-52300000D03*
X51700000Y-52300000D03*
X50900000Y-52300000D03*
X50100000Y-52300000D03*
X49300000Y-52300000D03*
X48500000Y-52300000D03*
D12*
X46800000Y-54000000D03*
X46800000Y-54800000D03*
X46800000Y-55600000D03*
X46800000Y-56400000D03*
X46800000Y-57200000D03*
X46800000Y-58000000D03*
X46800000Y-58800000D03*
X46800000Y-59600000D03*
X46800000Y-60400000D03*
X46800000Y-61200000D03*
X46800000Y-62000000D03*
%TD*%
D13*
%TO.C,C2*%
X67800000Y-59232500D03*
X67800000Y-60367500D03*
%TD*%
D14*
%TO.C,C3*%
X64532500Y-62100000D03*
X65667500Y-62100000D03*
%TD*%
%TO.C,C4*%
X68032500Y-41500000D03*
X69167500Y-41500000D03*
%TD*%
D15*
%TO.C,C5*%
X39000000Y-42767500D03*
X39000000Y-41632500D03*
%TD*%
%TO.C,C6*%
X41900000Y-42967500D03*
X41900000Y-41832500D03*
%TD*%
D16*
%TO.C,C7*%
X63437500Y-78800000D03*
X65162500Y-78800000D03*
%TD*%
D15*
%TO.C,C10*%
X43300000Y-43167500D03*
X43300000Y-42032500D03*
%TD*%
%TO.C,C11*%
X44500000Y-43367500D03*
X44500000Y-42232500D03*
%TD*%
D14*
%TO.C,C12*%
X53732500Y-79000000D03*
X54867500Y-79000000D03*
%TD*%
%TO.C,C13*%
X50132500Y-82700000D03*
X51267500Y-82700000D03*
%TD*%
D16*
%TO.C,C14*%
X46137500Y-42900000D03*
X47862500Y-42900000D03*
%TD*%
%TO.C,C15*%
X49837500Y-43000000D03*
X51562500Y-43000000D03*
%TD*%
D17*
%TO.C,C16*%
X44467500Y-60400000D03*
X43332500Y-60400000D03*
%TD*%
D13*
%TO.C,C17*%
X49100000Y-66032500D03*
X49100000Y-67167500D03*
%TD*%
D17*
%TO.C,C19*%
X44467500Y-62000000D03*
X43332500Y-62000000D03*
%TD*%
D14*
%TO.C,C20*%
X60532500Y-60200000D03*
X61667500Y-60200000D03*
%TD*%
%TO.C,C21*%
X58632500Y-50000000D03*
X59767500Y-50000000D03*
%TD*%
D17*
%TO.C,C22*%
X44467500Y-54000000D03*
X43332500Y-54000000D03*
%TD*%
D14*
%TO.C,C27*%
X65032500Y-98300000D03*
X66167500Y-98300000D03*
%TD*%
D18*
%TO.C,D2*%
X26475000Y-40300000D03*
X24725000Y-40300000D03*
%TD*%
D19*
%TO.C,D5*%
X70400000Y-101575000D03*
X70400000Y-99825000D03*
%TD*%
D20*
%TO.C,D6*%
X63425000Y-86800000D03*
X65175000Y-86800000D03*
%TD*%
%TO.C,D9*%
X26525000Y-31300000D03*
X28275000Y-31300000D03*
%TD*%
D21*
%TO.C,FB1*%
X61050000Y-97500000D03*
X63350000Y-97500000D03*
%TD*%
D22*
%TO.C,J2*%
X60970000Y-32100000D03*
X58430000Y-32100000D03*
X55890000Y-32100000D03*
X53350000Y-32100000D03*
X50810000Y-32100000D03*
X48270000Y-32100000D03*
X43190000Y-32100000D03*
X40650000Y-32100000D03*
X38110000Y-32100000D03*
X35570000Y-32100000D03*
D23*
X33030000Y-32100000D03*
%TD*%
D17*
%TO.C,R1*%
X61667500Y-61200000D03*
X60532500Y-61200000D03*
%TD*%
D14*
%TO.C,R2*%
X60532500Y-41500000D03*
X61667500Y-41500000D03*
%TD*%
%TO.C,R3*%
X65432500Y-41600000D03*
X66567500Y-41600000D03*
%TD*%
%TO.C,R4*%
X62932500Y-41500000D03*
X64067500Y-41500000D03*
%TD*%
%TO.C,R6*%
X69532500Y-98200000D03*
X70667500Y-98200000D03*
%TD*%
%TO.C,R7*%
X66832500Y-87500000D03*
X67967500Y-87500000D03*
%TD*%
%TO.C,R9*%
X25232500Y-35200000D03*
X26367500Y-35200000D03*
%TD*%
%TO.C,R10*%
X25332500Y-32900000D03*
X26467500Y-32900000D03*
%TD*%
%TO.C,R11*%
X25332500Y-34000000D03*
X26467500Y-34000000D03*
%TD*%
%TO.C,R12*%
X50232500Y-80100000D03*
X51367500Y-80100000D03*
%TD*%
%TO.C,R13*%
X23432500Y-30900000D03*
X24567500Y-30900000D03*
%TD*%
%TO.C,R14*%
X26665000Y-29700000D03*
X27800000Y-29700000D03*
%TD*%
D16*
%TO.C,R15*%
X23837500Y-56300000D03*
X25562500Y-56300000D03*
%TD*%
D14*
%TO.C,R16*%
X50232500Y-81400000D03*
X51367500Y-81400000D03*
%TD*%
D24*
%TO.C,R17*%
X40500000Y-43062500D03*
X40500000Y-41337500D03*
%TD*%
D15*
%TO.C,R20*%
X51100000Y-67167500D03*
X51100000Y-66032500D03*
%TD*%
%TO.C,R21*%
X50100000Y-67167500D03*
X50100000Y-66032500D03*
%TD*%
D25*
%TO.C,U2*%
X61200000Y-35895000D03*
X61200000Y-37165000D03*
X61200000Y-38435000D03*
X61200000Y-39705000D03*
X68400000Y-39705000D03*
X68400000Y-38435000D03*
X68400000Y-37165000D03*
X68400000Y-35895000D03*
%TD*%
D26*
%TO.C,U4*%
X53900000Y-80600000D03*
X53900000Y-81550000D03*
X53900000Y-82500000D03*
X56600000Y-82500000D03*
X56600000Y-80600000D03*
%TD*%
D27*
%TO.C,SW1*%
X68500000Y-91125000D03*
X62500000Y-91125000D03*
D28*
X62500000Y-93000000D03*
X68500000Y-93000000D03*
D27*
X62500000Y-94875000D03*
X68500000Y-94875000D03*
%TD*%
D29*
%TO.C,SW2*%
X37121320Y-60878680D03*
D30*
X34204505Y-66447146D03*
X38447146Y-62204505D03*
D29*
X32878680Y-65121320D03*
D30*
X31552854Y-63795495D03*
X35795495Y-59552854D03*
%TD*%
D31*
%TO.C,SW4*%
X31947146Y-70295495D03*
X27704505Y-66052854D03*
D32*
X26378680Y-67378680D03*
D31*
X29295495Y-72947146D03*
D32*
X30621320Y-71621320D03*
D31*
X25052854Y-68704505D03*
%TD*%
D33*
%TO.C,SW5*%
X38052854Y-68704505D03*
X42295495Y-72947146D03*
D34*
X43621320Y-71621320D03*
D33*
X40704505Y-66052854D03*
X44947146Y-70295495D03*
D34*
X39378680Y-67378680D03*
%TD*%
D28*
%TO.C,SW6*%
X53000000Y-73000000D03*
D27*
X53000000Y-71125000D03*
X59000000Y-71125000D03*
X59000000Y-74875000D03*
X53000000Y-74875000D03*
D28*
X59000000Y-73000000D03*
%TD*%
D35*
%TO.C,SW7*%
X68500000Y-68500000D03*
D36*
X62500000Y-70375000D03*
X68500000Y-70375000D03*
X62500000Y-66625000D03*
D35*
X62500000Y-68500000D03*
D36*
X68500000Y-66625000D03*
%TD*%
D37*
%TO.C,SW3*%
X35795495Y-72552854D03*
D38*
X32878680Y-78121320D03*
D37*
X31552854Y-76795495D03*
D38*
X37121320Y-73878680D03*
D37*
X34204505Y-79447146D03*
X38447146Y-75204505D03*
%TD*%
D39*
%TO.C,H1*%
X24000000Y-102000000D03*
%TD*%
%TO.C,H2*%
X28500000Y-23000000D03*
%TD*%
%TO.C,H3*%
X65500000Y-23000000D03*
%TD*%
D40*
%TO.C,H4*%
X25000000Y-25000000D03*
D41*
X25000000Y-25000000D03*
%TD*%
D40*
%TO.C,H5*%
X69000000Y-25000000D03*
D41*
X69000000Y-25000000D03*
%TD*%
%TO.C,H6*%
X69000000Y-83900000D03*
D40*
X69000000Y-83900000D03*
%TD*%
D42*
%TO.C,J1*%
X36850000Y-46300000D03*
X37550000Y-46300000D03*
X38250000Y-46300000D03*
X38950000Y-46300000D03*
X39650000Y-46300000D03*
X40350000Y-46300000D03*
X41050000Y-46300000D03*
X41750000Y-46300000D03*
X42450000Y-46300000D03*
X43150000Y-46300000D03*
X43850000Y-46300000D03*
X44550000Y-46300000D03*
X45250000Y-46300000D03*
X45950000Y-46300000D03*
X46650000Y-46300000D03*
X47350000Y-46300000D03*
X48050000Y-46300000D03*
X48750000Y-46300000D03*
X49450000Y-46300000D03*
X50150000Y-46300000D03*
X50850000Y-46300000D03*
X51550000Y-46300000D03*
X52250000Y-46300000D03*
X52950000Y-46300000D03*
X53650000Y-46300000D03*
X54350000Y-46300000D03*
X55050000Y-46300000D03*
X55750000Y-46300000D03*
X56450000Y-46300000D03*
X57150000Y-46300000D03*
%TD*%
D43*
%TO.C,J3*%
X66300000Y-101025000D03*
X62300000Y-101025000D03*
D44*
X63000000Y-100200000D03*
X63650000Y-100200000D03*
X64300000Y-100200000D03*
X64950000Y-100200000D03*
X65600000Y-100200000D03*
D45*
X60725000Y-99700000D03*
X60725000Y-103150000D03*
X67875000Y-99700000D03*
X67875000Y-103150000D03*
%TD*%
D46*
%TO.C,Y1*%
X64000000Y-60650000D03*
X66200000Y-60650000D03*
X66200000Y-58950000D03*
X64000000Y-58950000D03*
%TD*%
D18*
%TO.C,D3*%
X26475000Y-38600000D03*
X24725000Y-38600000D03*
%TD*%
%TO.C,D4*%
X26475000Y-36900000D03*
X24725000Y-36900000D03*
%TD*%
D47*
%TO.C,JP1*%
X28900000Y-53400000D03*
X28900000Y-43400000D03*
%TD*%
D20*
%TO.C,D8*%
X23225000Y-29400000D03*
X24975000Y-29400000D03*
%TD*%
D41*
%TO.C,H7*%
X25000000Y-79500000D03*
D40*
X25000000Y-79500000D03*
%TD*%
D18*
%TO.C,D7*%
X30875000Y-82500000D03*
X29125000Y-82500000D03*
%TD*%
D23*
%TO.C,JP2*%
X44900000Y-78600000D03*
D22*
X47440000Y-78600000D03*
%TD*%
D13*
%TO.C,C18*%
X53400000Y-66032500D03*
X53400000Y-67167500D03*
%TD*%
%TO.C,C28*%
X52400000Y-66032500D03*
X52400000Y-67167500D03*
%TD*%
D48*
%TO.C,TP29*%
X46100000Y-97050000D03*
%TD*%
%TO.C,TP32*%
X58250000Y-84900000D03*
%TD*%
%TO.C,TP14*%
X42050000Y-93000000D03*
%TD*%
%TO.C,TP28*%
X42050000Y-101100000D03*
%TD*%
%TO.C,TP2*%
X46100000Y-93000000D03*
%TD*%
%TO.C,TP27*%
X38000000Y-93000000D03*
%TD*%
%TO.C,TP17*%
X33950000Y-101100000D03*
%TD*%
%TO.C,TP23*%
X29900000Y-101100000D03*
%TD*%
%TO.C,TP30*%
X54200000Y-88950000D03*
%TD*%
%TO.C,TP26*%
X54200000Y-84900000D03*
%TD*%
%TO.C,TP9*%
X33950000Y-88950000D03*
%TD*%
%TO.C,TP15*%
X38000000Y-88950000D03*
%TD*%
%TO.C,TP19*%
X38000000Y-84900000D03*
%TD*%
%TO.C,TP5*%
X33950000Y-84900000D03*
%TD*%
%TO.C,TP4*%
X50150000Y-88950000D03*
%TD*%
%TO.C,TP10*%
X50150000Y-84900000D03*
%TD*%
%TO.C,TP18*%
X42050000Y-88950000D03*
%TD*%
%TO.C,TP12*%
X38000000Y-97050000D03*
%TD*%
%TO.C,TP22*%
X38000000Y-101100000D03*
%TD*%
%TO.C,TP25*%
X33950000Y-97050000D03*
%TD*%
%TO.C,TP13*%
X33950000Y-93000000D03*
%TD*%
%TO.C,TP11*%
X29900000Y-97050000D03*
%TD*%
%TO.C,TP3*%
X29900000Y-84900000D03*
%TD*%
%TO.C,TP16*%
X46100000Y-101100000D03*
%TD*%
%TO.C,TP20*%
X46100000Y-84900000D03*
%TD*%
%TO.C,TP21*%
X42050000Y-84900000D03*
%TD*%
%TO.C,TP31*%
X50150000Y-93000000D03*
%TD*%
%TO.C,TP8*%
X46100000Y-88950000D03*
%TD*%
%TO.C,TP7*%
X29900000Y-93000000D03*
%TD*%
%TO.C,TP24*%
X42050000Y-97050000D03*
%TD*%
%TO.C,TP6*%
X29900000Y-88950000D03*
%TD*%
G36*
X62751430Y-100709473D02*
G01*
X62752000Y-100710872D01*
X62752000Y-100899801D01*
X62755691Y-100918355D01*
X62766087Y-100933913D01*
X62781645Y-100944309D01*
X62787214Y-100945417D01*
X62788718Y-100946736D01*
X62788328Y-100948698D01*
X62787059Y-100949365D01*
X62732507Y-100955822D01*
X62687963Y-100996998D01*
X62676822Y-101028635D01*
X62670456Y-101066471D01*
X62669183Y-101068013D01*
X62667210Y-101067681D01*
X62666509Y-101065826D01*
X62672975Y-101025000D01*
X62654721Y-100909746D01*
X62601742Y-100805770D01*
X62574605Y-100778633D01*
X62574087Y-100776701D01*
X62575501Y-100775287D01*
X62577057Y-100775509D01*
X62627565Y-100806158D01*
X62687859Y-100801148D01*
X62733729Y-100761624D01*
X62748074Y-100710333D01*
X62749503Y-100708935D01*
X62751430Y-100709473D01*
G37*
G36*
X65851902Y-100710372D02*
G01*
X65870799Y-100768531D01*
X65919748Y-100804095D01*
X65980303Y-100804095D01*
X66021126Y-100777305D01*
X66023122Y-100777191D01*
X66024220Y-100778863D01*
X66023637Y-100780391D01*
X65998258Y-100805770D01*
X65945279Y-100909746D01*
X65927025Y-101025000D01*
X65927256Y-101026458D01*
X65926540Y-101028325D01*
X65924565Y-101028638D01*
X65923475Y-101027630D01*
X65899397Y-100977039D01*
X65846132Y-100948058D01*
X65818996Y-100948224D01*
X65817258Y-100947235D01*
X65817246Y-100945235D01*
X65818087Y-100944627D01*
X65818023Y-100944531D01*
X65833913Y-100933913D01*
X65844309Y-100918355D01*
X65848000Y-100899801D01*
X65848000Y-100710990D01*
X65849000Y-100709258D01*
X65851000Y-100709258D01*
X65851902Y-100710372D01*
G37*
G36*
X63897523Y-99479752D02*
G01*
X63941118Y-99514119D01*
X64001573Y-99516493D01*
X64051977Y-99482814D01*
X64053973Y-99482683D01*
X64055084Y-99484346D01*
X64055050Y-99484867D01*
X64052000Y-99500199D01*
X64052000Y-100899801D01*
X64055677Y-100918287D01*
X64055034Y-100920181D01*
X64053072Y-100920571D01*
X64052477Y-100920248D01*
X64008882Y-100885881D01*
X63948427Y-100883507D01*
X63898023Y-100917186D01*
X63896027Y-100917317D01*
X63894916Y-100915654D01*
X63894950Y-100915133D01*
X63898000Y-100899801D01*
X63898000Y-99500199D01*
X63894323Y-99481713D01*
X63894966Y-99479819D01*
X63896928Y-99479429D01*
X63897523Y-99479752D01*
G37*
G36*
X63247523Y-99479752D02*
G01*
X63291118Y-99514119D01*
X63351573Y-99516493D01*
X63401977Y-99482814D01*
X63403973Y-99482683D01*
X63405084Y-99484346D01*
X63405050Y-99484867D01*
X63402000Y-99500199D01*
X63402000Y-100899801D01*
X63405677Y-100918287D01*
X63405034Y-100920181D01*
X63403072Y-100920571D01*
X63402477Y-100920248D01*
X63358882Y-100885881D01*
X63298427Y-100883507D01*
X63248023Y-100917186D01*
X63246027Y-100917317D01*
X63244916Y-100915654D01*
X63244950Y-100915133D01*
X63248000Y-100899801D01*
X63248000Y-99500199D01*
X63244323Y-99481713D01*
X63244966Y-99479819D01*
X63246928Y-99479429D01*
X63247523Y-99479752D01*
G37*
G36*
X64547523Y-99479752D02*
G01*
X64591118Y-99514119D01*
X64651573Y-99516493D01*
X64701977Y-99482814D01*
X64703973Y-99482683D01*
X64705084Y-99484346D01*
X64705050Y-99484867D01*
X64702000Y-99500199D01*
X64702000Y-100899801D01*
X64705677Y-100918287D01*
X64705034Y-100920181D01*
X64703072Y-100920571D01*
X64702477Y-100920248D01*
X64658882Y-100885881D01*
X64598427Y-100883507D01*
X64548023Y-100917186D01*
X64546027Y-100917317D01*
X64544916Y-100915654D01*
X64544950Y-100915133D01*
X64548000Y-100899801D01*
X64548000Y-99500199D01*
X64544323Y-99481713D01*
X64544966Y-99479819D01*
X64546928Y-99479429D01*
X64547523Y-99479752D01*
G37*
G36*
X65197523Y-99479752D02*
G01*
X65241118Y-99514119D01*
X65301573Y-99516493D01*
X65351977Y-99482814D01*
X65353973Y-99482683D01*
X65355084Y-99484346D01*
X65355050Y-99484867D01*
X65352000Y-99500199D01*
X65352000Y-100899801D01*
X65355677Y-100918287D01*
X65355034Y-100920181D01*
X65353072Y-100920571D01*
X65352477Y-100920248D01*
X65308882Y-100885881D01*
X65248427Y-100883507D01*
X65198023Y-100917186D01*
X65196027Y-100917317D01*
X65194916Y-100915654D01*
X65194950Y-100915133D01*
X65198000Y-100899801D01*
X65198000Y-99500199D01*
X65194323Y-99481713D01*
X65194966Y-99479819D01*
X65196928Y-99479429D01*
X65197523Y-99479752D01*
G37*
G36*
X49622523Y-62929752D02*
G01*
X49666118Y-62964119D01*
X49726573Y-62966493D01*
X49776977Y-62932814D01*
X49778973Y-62932683D01*
X49780084Y-62934346D01*
X49780050Y-62934867D01*
X49777000Y-62950199D01*
X49777000Y-64449801D01*
X49780677Y-64468287D01*
X49780034Y-64470181D01*
X49778072Y-64470571D01*
X49777477Y-64470248D01*
X49733882Y-64435881D01*
X49673427Y-64433507D01*
X49623023Y-64467186D01*
X49621027Y-64467317D01*
X49619916Y-64465654D01*
X49619950Y-64465133D01*
X49623000Y-64449801D01*
X49623000Y-62950199D01*
X49619323Y-62931713D01*
X49619966Y-62929819D01*
X49621928Y-62929429D01*
X49622523Y-62929752D01*
G37*
G36*
X52022523Y-62929752D02*
G01*
X52066118Y-62964119D01*
X52126573Y-62966493D01*
X52176977Y-62932814D01*
X52178973Y-62932683D01*
X52180084Y-62934346D01*
X52180050Y-62934867D01*
X52177000Y-62950199D01*
X52177000Y-64449801D01*
X52180677Y-64468287D01*
X52180034Y-64470181D01*
X52178072Y-64470571D01*
X52177477Y-64470248D01*
X52133882Y-64435881D01*
X52073427Y-64433507D01*
X52023023Y-64467186D01*
X52021027Y-64467317D01*
X52019916Y-64465654D01*
X52019950Y-64465133D01*
X52023000Y-64449801D01*
X52023000Y-62950199D01*
X52019323Y-62931713D01*
X52019966Y-62929819D01*
X52021928Y-62929429D01*
X52022523Y-62929752D01*
G37*
G36*
X52822523Y-62929752D02*
G01*
X52866118Y-62964119D01*
X52926573Y-62966493D01*
X52976977Y-62932814D01*
X52978973Y-62932683D01*
X52980084Y-62934346D01*
X52980050Y-62934867D01*
X52977000Y-62950199D01*
X52977000Y-64449801D01*
X52980677Y-64468287D01*
X52980034Y-64470181D01*
X52978072Y-64470571D01*
X52977477Y-64470248D01*
X52933882Y-64435881D01*
X52873427Y-64433507D01*
X52823023Y-64467186D01*
X52821027Y-64467317D01*
X52819916Y-64465654D01*
X52819950Y-64465133D01*
X52823000Y-64449801D01*
X52823000Y-62950199D01*
X52819323Y-62931713D01*
X52819966Y-62929819D01*
X52821928Y-62929429D01*
X52822523Y-62929752D01*
G37*
G36*
X54422523Y-62929752D02*
G01*
X54466118Y-62964119D01*
X54526573Y-62966493D01*
X54576977Y-62932814D01*
X54578973Y-62932683D01*
X54580084Y-62934346D01*
X54580050Y-62934867D01*
X54577000Y-62950199D01*
X54577000Y-64449801D01*
X54580677Y-64468287D01*
X54580034Y-64470181D01*
X54578072Y-64470571D01*
X54577477Y-64470248D01*
X54533882Y-64435881D01*
X54473427Y-64433507D01*
X54423023Y-64467186D01*
X54421027Y-64467317D01*
X54419916Y-64465654D01*
X54419950Y-64465133D01*
X54423000Y-64449801D01*
X54423000Y-62950199D01*
X54419323Y-62931713D01*
X54419966Y-62929819D01*
X54421928Y-62929429D01*
X54422523Y-62929752D01*
G37*
G36*
X53622523Y-62929752D02*
G01*
X53666118Y-62964119D01*
X53726573Y-62966493D01*
X53776977Y-62932814D01*
X53778973Y-62932683D01*
X53780084Y-62934346D01*
X53780050Y-62934867D01*
X53777000Y-62950199D01*
X53777000Y-64449801D01*
X53780677Y-64468287D01*
X53780034Y-64470181D01*
X53778072Y-64470571D01*
X53777477Y-64470248D01*
X53733882Y-64435881D01*
X53673427Y-64433507D01*
X53623023Y-64467186D01*
X53621027Y-64467317D01*
X53619916Y-64465654D01*
X53619950Y-64465133D01*
X53623000Y-64449801D01*
X53623000Y-62950199D01*
X53619323Y-62931713D01*
X53619966Y-62929819D01*
X53621928Y-62929429D01*
X53622523Y-62929752D01*
G37*
G36*
X48822523Y-62929752D02*
G01*
X48866118Y-62964119D01*
X48926573Y-62966493D01*
X48976977Y-62932814D01*
X48978973Y-62932683D01*
X48980084Y-62934346D01*
X48980050Y-62934867D01*
X48977000Y-62950199D01*
X48977000Y-64449801D01*
X48980677Y-64468287D01*
X48980034Y-64470181D01*
X48978072Y-64470571D01*
X48977477Y-64470248D01*
X48933882Y-64435881D01*
X48873427Y-64433507D01*
X48823023Y-64467186D01*
X48821027Y-64467317D01*
X48819916Y-64465654D01*
X48819950Y-64465133D01*
X48823000Y-64449801D01*
X48823000Y-62950199D01*
X48819323Y-62931713D01*
X48819966Y-62929819D01*
X48821928Y-62929429D01*
X48822523Y-62929752D01*
G37*
G36*
X55222523Y-62929752D02*
G01*
X55266118Y-62964119D01*
X55326573Y-62966493D01*
X55376977Y-62932814D01*
X55378973Y-62932683D01*
X55380084Y-62934346D01*
X55380050Y-62934867D01*
X55377000Y-62950199D01*
X55377000Y-64449801D01*
X55380677Y-64468287D01*
X55380034Y-64470181D01*
X55378072Y-64470571D01*
X55377477Y-64470248D01*
X55333882Y-64435881D01*
X55273427Y-64433507D01*
X55223023Y-64467186D01*
X55221027Y-64467317D01*
X55219916Y-64465654D01*
X55219950Y-64465133D01*
X55223000Y-64449801D01*
X55223000Y-62950199D01*
X55219323Y-62931713D01*
X55219966Y-62929819D01*
X55221928Y-62929429D01*
X55222523Y-62929752D01*
G37*
G36*
X51222523Y-62929752D02*
G01*
X51266118Y-62964119D01*
X51326573Y-62966493D01*
X51376977Y-62932814D01*
X51378973Y-62932683D01*
X51380084Y-62934346D01*
X51380050Y-62934867D01*
X51377000Y-62950199D01*
X51377000Y-64449801D01*
X51380677Y-64468287D01*
X51380034Y-64470181D01*
X51378072Y-64470571D01*
X51377477Y-64470248D01*
X51333882Y-64435881D01*
X51273427Y-64433507D01*
X51223023Y-64467186D01*
X51221027Y-64467317D01*
X51219916Y-64465654D01*
X51219950Y-64465133D01*
X51223000Y-64449801D01*
X51223000Y-62950199D01*
X51219323Y-62931713D01*
X51219966Y-62929819D01*
X51221928Y-62929429D01*
X51222523Y-62929752D01*
G37*
G36*
X56022523Y-62929752D02*
G01*
X56066118Y-62964119D01*
X56126573Y-62966493D01*
X56176977Y-62932814D01*
X56178973Y-62932683D01*
X56180084Y-62934346D01*
X56180050Y-62934867D01*
X56177000Y-62950199D01*
X56177000Y-64449801D01*
X56180677Y-64468287D01*
X56180034Y-64470181D01*
X56178072Y-64470571D01*
X56177477Y-64470248D01*
X56133882Y-64435881D01*
X56073427Y-64433507D01*
X56023023Y-64467186D01*
X56021027Y-64467317D01*
X56019916Y-64465654D01*
X56019950Y-64465133D01*
X56023000Y-64449801D01*
X56023000Y-62950199D01*
X56019323Y-62931713D01*
X56019966Y-62929819D01*
X56021928Y-62929429D01*
X56022523Y-62929752D01*
G37*
G36*
X50422523Y-62929752D02*
G01*
X50466118Y-62964119D01*
X50526573Y-62966493D01*
X50576977Y-62932814D01*
X50578973Y-62932683D01*
X50580084Y-62934346D01*
X50580050Y-62934867D01*
X50577000Y-62950199D01*
X50577000Y-64449801D01*
X50580677Y-64468287D01*
X50580034Y-64470181D01*
X50578072Y-64470571D01*
X50577477Y-64470248D01*
X50533882Y-64435881D01*
X50473427Y-64433507D01*
X50423023Y-64467186D01*
X50421027Y-64467317D01*
X50419916Y-64465654D01*
X50419950Y-64465133D01*
X50423000Y-64449801D01*
X50423000Y-62950199D01*
X50419323Y-62931713D01*
X50419966Y-62929819D01*
X50421928Y-62929429D01*
X50422523Y-62929752D01*
G37*
G36*
X47570181Y-61519966D02*
G01*
X47570571Y-61521928D01*
X47570248Y-61522523D01*
X47535881Y-61566118D01*
X47533507Y-61626573D01*
X47567186Y-61676977D01*
X47567317Y-61678973D01*
X47565654Y-61680084D01*
X47565133Y-61680050D01*
X47549801Y-61677000D01*
X46050199Y-61677000D01*
X46031713Y-61680677D01*
X46029819Y-61680034D01*
X46029429Y-61678072D01*
X46029752Y-61677477D01*
X46064119Y-61633882D01*
X46066493Y-61573427D01*
X46032814Y-61523023D01*
X46032683Y-61521027D01*
X46034346Y-61519916D01*
X46034867Y-61519950D01*
X46050199Y-61523000D01*
X47549801Y-61523000D01*
X47568287Y-61519323D01*
X47570181Y-61519966D01*
G37*
G36*
X58970181Y-61519966D02*
G01*
X58970571Y-61521928D01*
X58970248Y-61522523D01*
X58935881Y-61566118D01*
X58933507Y-61626573D01*
X58967186Y-61676977D01*
X58967317Y-61678973D01*
X58965654Y-61680084D01*
X58965133Y-61680050D01*
X58949801Y-61677000D01*
X57450199Y-61677000D01*
X57431713Y-61680677D01*
X57429819Y-61680034D01*
X57429429Y-61678072D01*
X57429752Y-61677477D01*
X57464119Y-61633882D01*
X57466493Y-61573427D01*
X57432814Y-61523023D01*
X57432683Y-61521027D01*
X57434346Y-61519916D01*
X57434867Y-61519950D01*
X57450199Y-61523000D01*
X58949801Y-61523000D01*
X58968287Y-61519323D01*
X58970181Y-61519966D01*
G37*
G36*
X47570181Y-60719966D02*
G01*
X47570571Y-60721928D01*
X47570248Y-60722523D01*
X47535881Y-60766118D01*
X47533507Y-60826573D01*
X47567186Y-60876977D01*
X47567317Y-60878973D01*
X47565654Y-60880084D01*
X47565133Y-60880050D01*
X47549801Y-60877000D01*
X46050199Y-60877000D01*
X46031713Y-60880677D01*
X46029819Y-60880034D01*
X46029429Y-60878072D01*
X46029752Y-60877477D01*
X46064119Y-60833882D01*
X46066493Y-60773427D01*
X46032814Y-60723023D01*
X46032683Y-60721027D01*
X46034346Y-60719916D01*
X46034867Y-60719950D01*
X46050199Y-60723000D01*
X47549801Y-60723000D01*
X47568287Y-60719323D01*
X47570181Y-60719966D01*
G37*
G36*
X58970181Y-60719966D02*
G01*
X58970571Y-60721928D01*
X58970248Y-60722523D01*
X58935881Y-60766118D01*
X58933507Y-60826573D01*
X58967186Y-60876977D01*
X58967317Y-60878973D01*
X58965654Y-60880084D01*
X58965133Y-60880050D01*
X58949801Y-60877000D01*
X57450199Y-60877000D01*
X57431713Y-60880677D01*
X57429819Y-60880034D01*
X57429429Y-60878072D01*
X57429752Y-60877477D01*
X57464119Y-60833882D01*
X57466493Y-60773427D01*
X57432814Y-60723023D01*
X57432683Y-60721027D01*
X57434346Y-60719916D01*
X57434867Y-60719950D01*
X57450199Y-60723000D01*
X58949801Y-60723000D01*
X58968287Y-60719323D01*
X58970181Y-60719966D01*
G37*
G36*
X58970181Y-59919966D02*
G01*
X58970571Y-59921928D01*
X58970248Y-59922523D01*
X58935881Y-59966118D01*
X58933507Y-60026573D01*
X58967186Y-60076977D01*
X58967317Y-60078973D01*
X58965654Y-60080084D01*
X58965133Y-60080050D01*
X58949801Y-60077000D01*
X57450199Y-60077000D01*
X57431713Y-60080677D01*
X57429819Y-60080034D01*
X57429429Y-60078072D01*
X57429752Y-60077477D01*
X57464119Y-60033882D01*
X57466493Y-59973427D01*
X57432814Y-59923023D01*
X57432683Y-59921027D01*
X57434346Y-59919916D01*
X57434867Y-59919950D01*
X57450199Y-59923000D01*
X58949801Y-59923000D01*
X58968287Y-59919323D01*
X58970181Y-59919966D01*
G37*
G36*
X47570181Y-59919966D02*
G01*
X47570571Y-59921928D01*
X47570248Y-59922523D01*
X47535881Y-59966118D01*
X47533507Y-60026573D01*
X47567186Y-60076977D01*
X47567317Y-60078973D01*
X47565654Y-60080084D01*
X47565133Y-60080050D01*
X47549801Y-60077000D01*
X46050199Y-60077000D01*
X46031713Y-60080677D01*
X46029819Y-60080034D01*
X46029429Y-60078072D01*
X46029752Y-60077477D01*
X46064119Y-60033882D01*
X46066493Y-59973427D01*
X46032814Y-59923023D01*
X46032683Y-59921027D01*
X46034346Y-59919916D01*
X46034867Y-59919950D01*
X46050199Y-59923000D01*
X47549801Y-59923000D01*
X47568287Y-59919323D01*
X47570181Y-59919966D01*
G37*
G36*
X47570181Y-59119966D02*
G01*
X47570571Y-59121928D01*
X47570248Y-59122523D01*
X47535881Y-59166118D01*
X47533507Y-59226573D01*
X47567186Y-59276977D01*
X47567317Y-59278973D01*
X47565654Y-59280084D01*
X47565133Y-59280050D01*
X47549801Y-59277000D01*
X46050199Y-59277000D01*
X46031713Y-59280677D01*
X46029819Y-59280034D01*
X46029429Y-59278072D01*
X46029752Y-59277477D01*
X46064119Y-59233882D01*
X46066493Y-59173427D01*
X46032814Y-59123023D01*
X46032683Y-59121027D01*
X46034346Y-59119916D01*
X46034867Y-59119950D01*
X46050199Y-59123000D01*
X47549801Y-59123000D01*
X47568287Y-59119323D01*
X47570181Y-59119966D01*
G37*
G36*
X58970181Y-59119966D02*
G01*
X58970571Y-59121928D01*
X58970248Y-59122523D01*
X58935881Y-59166118D01*
X58933507Y-59226573D01*
X58967186Y-59276977D01*
X58967317Y-59278973D01*
X58965654Y-59280084D01*
X58965133Y-59280050D01*
X58949801Y-59277000D01*
X57450199Y-59277000D01*
X57431713Y-59280677D01*
X57429819Y-59280034D01*
X57429429Y-59278072D01*
X57429752Y-59277477D01*
X57464119Y-59233882D01*
X57466493Y-59173427D01*
X57432814Y-59123023D01*
X57432683Y-59121027D01*
X57434346Y-59119916D01*
X57434867Y-59119950D01*
X57450199Y-59123000D01*
X58949801Y-59123000D01*
X58968287Y-59119323D01*
X58970181Y-59119966D01*
G37*
G36*
X47570181Y-58319966D02*
G01*
X47570571Y-58321928D01*
X47570248Y-58322523D01*
X47535881Y-58366118D01*
X47533507Y-58426573D01*
X47567186Y-58476977D01*
X47567317Y-58478973D01*
X47565654Y-58480084D01*
X47565133Y-58480050D01*
X47549801Y-58477000D01*
X46050199Y-58477000D01*
X46031713Y-58480677D01*
X46029819Y-58480034D01*
X46029429Y-58478072D01*
X46029752Y-58477477D01*
X46064119Y-58433882D01*
X46066493Y-58373427D01*
X46032814Y-58323023D01*
X46032683Y-58321027D01*
X46034346Y-58319916D01*
X46034867Y-58319950D01*
X46050199Y-58323000D01*
X47549801Y-58323000D01*
X47568287Y-58319323D01*
X47570181Y-58319966D01*
G37*
G36*
X58970181Y-58319966D02*
G01*
X58970571Y-58321928D01*
X58970248Y-58322523D01*
X58935881Y-58366118D01*
X58933507Y-58426573D01*
X58967186Y-58476977D01*
X58967317Y-58478973D01*
X58965654Y-58480084D01*
X58965133Y-58480050D01*
X58949801Y-58477000D01*
X57450199Y-58477000D01*
X57431713Y-58480677D01*
X57429819Y-58480034D01*
X57429429Y-58478072D01*
X57429752Y-58477477D01*
X57464119Y-58433882D01*
X57466493Y-58373427D01*
X57432814Y-58323023D01*
X57432683Y-58321027D01*
X57434346Y-58319916D01*
X57434867Y-58319950D01*
X57450199Y-58323000D01*
X58949801Y-58323000D01*
X58968287Y-58319323D01*
X58970181Y-58319966D01*
G37*
G36*
X47570181Y-57519966D02*
G01*
X47570571Y-57521928D01*
X47570248Y-57522523D01*
X47535881Y-57566118D01*
X47533507Y-57626573D01*
X47567186Y-57676977D01*
X47567317Y-57678973D01*
X47565654Y-57680084D01*
X47565133Y-57680050D01*
X47549801Y-57677000D01*
X46050199Y-57677000D01*
X46031713Y-57680677D01*
X46029819Y-57680034D01*
X46029429Y-57678072D01*
X46029752Y-57677477D01*
X46064119Y-57633882D01*
X46066493Y-57573427D01*
X46032814Y-57523023D01*
X46032683Y-57521027D01*
X46034346Y-57519916D01*
X46034867Y-57519950D01*
X46050199Y-57523000D01*
X47549801Y-57523000D01*
X47568287Y-57519323D01*
X47570181Y-57519966D01*
G37*
G36*
X58970181Y-57519966D02*
G01*
X58970571Y-57521928D01*
X58970248Y-57522523D01*
X58935881Y-57566118D01*
X58933507Y-57626573D01*
X58967186Y-57676977D01*
X58967317Y-57678973D01*
X58965654Y-57680084D01*
X58965133Y-57680050D01*
X58949801Y-57677000D01*
X57450199Y-57677000D01*
X57431713Y-57680677D01*
X57429819Y-57680034D01*
X57429429Y-57678072D01*
X57429752Y-57677477D01*
X57464119Y-57633882D01*
X57466493Y-57573427D01*
X57432814Y-57523023D01*
X57432683Y-57521027D01*
X57434346Y-57519916D01*
X57434867Y-57519950D01*
X57450199Y-57523000D01*
X58949801Y-57523000D01*
X58968287Y-57519323D01*
X58970181Y-57519966D01*
G37*
G36*
X47570181Y-56719966D02*
G01*
X47570571Y-56721928D01*
X47570248Y-56722523D01*
X47535881Y-56766118D01*
X47533507Y-56826573D01*
X47567186Y-56876977D01*
X47567317Y-56878973D01*
X47565654Y-56880084D01*
X47565133Y-56880050D01*
X47549801Y-56877000D01*
X46050199Y-56877000D01*
X46031713Y-56880677D01*
X46029819Y-56880034D01*
X46029429Y-56878072D01*
X46029752Y-56877477D01*
X46064119Y-56833882D01*
X46066493Y-56773427D01*
X46032814Y-56723023D01*
X46032683Y-56721027D01*
X46034346Y-56719916D01*
X46034867Y-56719950D01*
X46050199Y-56723000D01*
X47549801Y-56723000D01*
X47568287Y-56719323D01*
X47570181Y-56719966D01*
G37*
G36*
X58970181Y-56719966D02*
G01*
X58970571Y-56721928D01*
X58970248Y-56722523D01*
X58935881Y-56766118D01*
X58933507Y-56826573D01*
X58967186Y-56876977D01*
X58967317Y-56878973D01*
X58965654Y-56880084D01*
X58965133Y-56880050D01*
X58949801Y-56877000D01*
X57450199Y-56877000D01*
X57431713Y-56880677D01*
X57429819Y-56880034D01*
X57429429Y-56878072D01*
X57429752Y-56877477D01*
X57464119Y-56833882D01*
X57466493Y-56773427D01*
X57432814Y-56723023D01*
X57432683Y-56721027D01*
X57434346Y-56719916D01*
X57434867Y-56719950D01*
X57450199Y-56723000D01*
X58949801Y-56723000D01*
X58968287Y-56719323D01*
X58970181Y-56719966D01*
G37*
G36*
X47570181Y-55919966D02*
G01*
X47570571Y-55921928D01*
X47570248Y-55922523D01*
X47535881Y-55966118D01*
X47533507Y-56026573D01*
X47567186Y-56076977D01*
X47567317Y-56078973D01*
X47565654Y-56080084D01*
X47565133Y-56080050D01*
X47549801Y-56077000D01*
X46050199Y-56077000D01*
X46031713Y-56080677D01*
X46029819Y-56080034D01*
X46029429Y-56078072D01*
X46029752Y-56077477D01*
X46064119Y-56033882D01*
X46066493Y-55973427D01*
X46032814Y-55923023D01*
X46032683Y-55921027D01*
X46034346Y-55919916D01*
X46034867Y-55919950D01*
X46050199Y-55923000D01*
X47549801Y-55923000D01*
X47568287Y-55919323D01*
X47570181Y-55919966D01*
G37*
G36*
X58970181Y-55919966D02*
G01*
X58970571Y-55921928D01*
X58970248Y-55922523D01*
X58935881Y-55966118D01*
X58933507Y-56026573D01*
X58967186Y-56076977D01*
X58967317Y-56078973D01*
X58965654Y-56080084D01*
X58965133Y-56080050D01*
X58949801Y-56077000D01*
X57450199Y-56077000D01*
X57431713Y-56080677D01*
X57429819Y-56080034D01*
X57429429Y-56078072D01*
X57429752Y-56077477D01*
X57464119Y-56033882D01*
X57466493Y-55973427D01*
X57432814Y-55923023D01*
X57432683Y-55921027D01*
X57434346Y-55919916D01*
X57434867Y-55919950D01*
X57450199Y-55923000D01*
X58949801Y-55923000D01*
X58968287Y-55919323D01*
X58970181Y-55919966D01*
G37*
G36*
X47570181Y-55119966D02*
G01*
X47570571Y-55121928D01*
X47570248Y-55122523D01*
X47535881Y-55166118D01*
X47533507Y-55226573D01*
X47567186Y-55276977D01*
X47567317Y-55278973D01*
X47565654Y-55280084D01*
X47565133Y-55280050D01*
X47549801Y-55277000D01*
X46050199Y-55277000D01*
X46031713Y-55280677D01*
X46029819Y-55280034D01*
X46029429Y-55278072D01*
X46029752Y-55277477D01*
X46064119Y-55233882D01*
X46066493Y-55173427D01*
X46032814Y-55123023D01*
X46032683Y-55121027D01*
X46034346Y-55119916D01*
X46034867Y-55119950D01*
X46050199Y-55123000D01*
X47549801Y-55123000D01*
X47568287Y-55119323D01*
X47570181Y-55119966D01*
G37*
G36*
X58970181Y-55119966D02*
G01*
X58970571Y-55121928D01*
X58970248Y-55122523D01*
X58935881Y-55166118D01*
X58933507Y-55226573D01*
X58967186Y-55276977D01*
X58967317Y-55278973D01*
X58965654Y-55280084D01*
X58965133Y-55280050D01*
X58949801Y-55277000D01*
X57450199Y-55277000D01*
X57431713Y-55280677D01*
X57429819Y-55280034D01*
X57429429Y-55278072D01*
X57429752Y-55277477D01*
X57464119Y-55233882D01*
X57466493Y-55173427D01*
X57432814Y-55123023D01*
X57432683Y-55121027D01*
X57434346Y-55119916D01*
X57434867Y-55119950D01*
X57450199Y-55123000D01*
X58949801Y-55123000D01*
X58968287Y-55119323D01*
X58970181Y-55119966D01*
G37*
G36*
X47570181Y-54319966D02*
G01*
X47570571Y-54321928D01*
X47570248Y-54322523D01*
X47535881Y-54366118D01*
X47533507Y-54426573D01*
X47567186Y-54476977D01*
X47567317Y-54478973D01*
X47565654Y-54480084D01*
X47565133Y-54480050D01*
X47549801Y-54477000D01*
X46050199Y-54477000D01*
X46031713Y-54480677D01*
X46029819Y-54480034D01*
X46029429Y-54478072D01*
X46029752Y-54477477D01*
X46064119Y-54433882D01*
X46066493Y-54373427D01*
X46032814Y-54323023D01*
X46032683Y-54321027D01*
X46034346Y-54319916D01*
X46034867Y-54319950D01*
X46050199Y-54323000D01*
X47549801Y-54323000D01*
X47568287Y-54319323D01*
X47570181Y-54319966D01*
G37*
G36*
X58970181Y-54319966D02*
G01*
X58970571Y-54321928D01*
X58970248Y-54322523D01*
X58935881Y-54366118D01*
X58933507Y-54426573D01*
X58967186Y-54476977D01*
X58967317Y-54478973D01*
X58965654Y-54480084D01*
X58965133Y-54480050D01*
X58949801Y-54477000D01*
X57450199Y-54477000D01*
X57431713Y-54480677D01*
X57429819Y-54480034D01*
X57429429Y-54478072D01*
X57429752Y-54477477D01*
X57464119Y-54433882D01*
X57466493Y-54373427D01*
X57432814Y-54323023D01*
X57432683Y-54321027D01*
X57434346Y-54319916D01*
X57434867Y-54319950D01*
X57450199Y-54323000D01*
X58949801Y-54323000D01*
X58968287Y-54319323D01*
X58970181Y-54319966D01*
G37*
G36*
X49622523Y-51529752D02*
G01*
X49666118Y-51564119D01*
X49726573Y-51566493D01*
X49776977Y-51532814D01*
X49778973Y-51532683D01*
X49780084Y-51534346D01*
X49780050Y-51534867D01*
X49777000Y-51550199D01*
X49777000Y-53049801D01*
X49780677Y-53068287D01*
X49780034Y-53070181D01*
X49778072Y-53070571D01*
X49777477Y-53070248D01*
X49733882Y-53035881D01*
X49673427Y-53033507D01*
X49623023Y-53067186D01*
X49621027Y-53067317D01*
X49619916Y-53065654D01*
X49619950Y-53065133D01*
X49623000Y-53049801D01*
X49623000Y-51550199D01*
X49619323Y-51531713D01*
X49619966Y-51529819D01*
X49621928Y-51529429D01*
X49622523Y-51529752D01*
G37*
G36*
X53622523Y-51529752D02*
G01*
X53666118Y-51564119D01*
X53726573Y-51566493D01*
X53776977Y-51532814D01*
X53778973Y-51532683D01*
X53780084Y-51534346D01*
X53780050Y-51534867D01*
X53777000Y-51550199D01*
X53777000Y-53049801D01*
X53780677Y-53068287D01*
X53780034Y-53070181D01*
X53778072Y-53070571D01*
X53777477Y-53070248D01*
X53733882Y-53035881D01*
X53673427Y-53033507D01*
X53623023Y-53067186D01*
X53621027Y-53067317D01*
X53619916Y-53065654D01*
X53619950Y-53065133D01*
X53623000Y-53049801D01*
X53623000Y-51550199D01*
X53619323Y-51531713D01*
X53619966Y-51529819D01*
X53621928Y-51529429D01*
X53622523Y-51529752D01*
G37*
G36*
X52822523Y-51529752D02*
G01*
X52866118Y-51564119D01*
X52926573Y-51566493D01*
X52976977Y-51532814D01*
X52978973Y-51532683D01*
X52980084Y-51534346D01*
X52980050Y-51534867D01*
X52977000Y-51550199D01*
X52977000Y-53049801D01*
X52980677Y-53068287D01*
X52980034Y-53070181D01*
X52978072Y-53070571D01*
X52977477Y-53070248D01*
X52933882Y-53035881D01*
X52873427Y-53033507D01*
X52823023Y-53067186D01*
X52821027Y-53067317D01*
X52819916Y-53065654D01*
X52819950Y-53065133D01*
X52823000Y-53049801D01*
X52823000Y-51550199D01*
X52819323Y-51531713D01*
X52819966Y-51529819D01*
X52821928Y-51529429D01*
X52822523Y-51529752D01*
G37*
G36*
X52022523Y-51529752D02*
G01*
X52066118Y-51564119D01*
X52126573Y-51566493D01*
X52176977Y-51532814D01*
X52178973Y-51532683D01*
X52180084Y-51534346D01*
X52180050Y-51534867D01*
X52177000Y-51550199D01*
X52177000Y-53049801D01*
X52180677Y-53068287D01*
X52180034Y-53070181D01*
X52178072Y-53070571D01*
X52177477Y-53070248D01*
X52133882Y-53035881D01*
X52073427Y-53033507D01*
X52023023Y-53067186D01*
X52021027Y-53067317D01*
X52019916Y-53065654D01*
X52019950Y-53065133D01*
X52023000Y-53049801D01*
X52023000Y-51550199D01*
X52019323Y-51531713D01*
X52019966Y-51529819D01*
X52021928Y-51529429D01*
X52022523Y-51529752D01*
G37*
G36*
X48822523Y-51529752D02*
G01*
X48866118Y-51564119D01*
X48926573Y-51566493D01*
X48976977Y-51532814D01*
X48978973Y-51532683D01*
X48980084Y-51534346D01*
X48980050Y-51534867D01*
X48977000Y-51550199D01*
X48977000Y-53049801D01*
X48980677Y-53068287D01*
X48980034Y-53070181D01*
X48978072Y-53070571D01*
X48977477Y-53070248D01*
X48933882Y-53035881D01*
X48873427Y-53033507D01*
X48823023Y-53067186D01*
X48821027Y-53067317D01*
X48819916Y-53065654D01*
X48819950Y-53065133D01*
X48823000Y-53049801D01*
X48823000Y-51550199D01*
X48819323Y-51531713D01*
X48819966Y-51529819D01*
X48821928Y-51529429D01*
X48822523Y-51529752D01*
G37*
G36*
X50422523Y-51529752D02*
G01*
X50466118Y-51564119D01*
X50526573Y-51566493D01*
X50576977Y-51532814D01*
X50578973Y-51532683D01*
X50580084Y-51534346D01*
X50580050Y-51534867D01*
X50577000Y-51550199D01*
X50577000Y-53049801D01*
X50580677Y-53068287D01*
X50580034Y-53070181D01*
X50578072Y-53070571D01*
X50577477Y-53070248D01*
X50533882Y-53035881D01*
X50473427Y-53033507D01*
X50423023Y-53067186D01*
X50421027Y-53067317D01*
X50419916Y-53065654D01*
X50419950Y-53065133D01*
X50423000Y-53049801D01*
X50423000Y-51550199D01*
X50419323Y-51531713D01*
X50419966Y-51529819D01*
X50421928Y-51529429D01*
X50422523Y-51529752D01*
G37*
G36*
X51222523Y-51529752D02*
G01*
X51266118Y-51564119D01*
X51326573Y-51566493D01*
X51376977Y-51532814D01*
X51378973Y-51532683D01*
X51380084Y-51534346D01*
X51380050Y-51534867D01*
X51377000Y-51550199D01*
X51377000Y-53049801D01*
X51380677Y-53068287D01*
X51380034Y-53070181D01*
X51378072Y-53070571D01*
X51377477Y-53070248D01*
X51333882Y-53035881D01*
X51273427Y-53033507D01*
X51223023Y-53067186D01*
X51221027Y-53067317D01*
X51219916Y-53065654D01*
X51219950Y-53065133D01*
X51223000Y-53049801D01*
X51223000Y-51550199D01*
X51219323Y-51531713D01*
X51219966Y-51529819D01*
X51221928Y-51529429D01*
X51222523Y-51529752D01*
G37*
G36*
X56022523Y-51529752D02*
G01*
X56066118Y-51564119D01*
X56126573Y-51566493D01*
X56176977Y-51532814D01*
X56178973Y-51532683D01*
X56180084Y-51534346D01*
X56180050Y-51534867D01*
X56177000Y-51550199D01*
X56177000Y-53049801D01*
X56180677Y-53068287D01*
X56180034Y-53070181D01*
X56178072Y-53070571D01*
X56177477Y-53070248D01*
X56133882Y-53035881D01*
X56073427Y-53033507D01*
X56023023Y-53067186D01*
X56021027Y-53067317D01*
X56019916Y-53065654D01*
X56019950Y-53065133D01*
X56023000Y-53049801D01*
X56023000Y-51550199D01*
X56019323Y-51531713D01*
X56019966Y-51529819D01*
X56021928Y-51529429D01*
X56022523Y-51529752D01*
G37*
G36*
X55222523Y-51529752D02*
G01*
X55266118Y-51564119D01*
X55326573Y-51566493D01*
X55376977Y-51532814D01*
X55378973Y-51532683D01*
X55380084Y-51534346D01*
X55380050Y-51534867D01*
X55377000Y-51550199D01*
X55377000Y-53049801D01*
X55380677Y-53068287D01*
X55380034Y-53070181D01*
X55378072Y-53070571D01*
X55377477Y-53070248D01*
X55333882Y-53035881D01*
X55273427Y-53033507D01*
X55223023Y-53067186D01*
X55221027Y-53067317D01*
X55219916Y-53065654D01*
X55219950Y-53065133D01*
X55223000Y-53049801D01*
X55223000Y-51550199D01*
X55219323Y-51531713D01*
X55219966Y-51529819D01*
X55221928Y-51529429D01*
X55222523Y-51529752D01*
G37*
G36*
X54422523Y-51529752D02*
G01*
X54466118Y-51564119D01*
X54526573Y-51566493D01*
X54576977Y-51532814D01*
X54578973Y-51532683D01*
X54580084Y-51534346D01*
X54580050Y-51534867D01*
X54577000Y-51550199D01*
X54577000Y-53049801D01*
X54580677Y-53068287D01*
X54580034Y-53070181D01*
X54578072Y-53070571D01*
X54577477Y-53070248D01*
X54533882Y-53035881D01*
X54473427Y-53033507D01*
X54423023Y-53067186D01*
X54421027Y-53067317D01*
X54419916Y-53065654D01*
X54419950Y-53065133D01*
X54423000Y-53049801D01*
X54423000Y-51550199D01*
X54419323Y-51531713D01*
X54419966Y-51529819D01*
X54421928Y-51529429D01*
X54422523Y-51529752D01*
G37*
M02*
