%TF.GenerationSoftware,KiCad,Pcbnew,(6.0.5)*%
%TF.CreationDate,2023-05-01T10:01:18+02:00*%
%TF.ProjectId,arduboy_AS_flavor,61726475-626f-4795-9f41-535f666c6176,rev?*%
%TF.SameCoordinates,Original*%
%TF.FileFunction,Legend,Top*%
%TF.FilePolarity,Positive*%
%FSLAX46Y46*%
G04 Gerber Fmt 4.6, Leading zero omitted, Abs format (unit mm)*
G04 Created by KiCad (PCBNEW (6.0.5)) date 2023-05-01 10:01:18*
%MOMM*%
%LPD*%
G01*
G04 APERTURE LIST*
G04 Aperture macros list*
%AMRoundRect*
0 Rectangle with rounded corners*
0 $1 Rounding radius*
0 $2 $3 $4 $5 $6 $7 $8 $9 X,Y pos of 4 corners*
0 Add a 4 corners polygon primitive as box body*
4,1,4,$2,$3,$4,$5,$6,$7,$8,$9,$2,$3,0*
0 Add four circle primitives for the rounded corners*
1,1,$1+$1,$2,$3*
1,1,$1+$1,$4,$5*
1,1,$1+$1,$6,$7*
1,1,$1+$1,$8,$9*
0 Add four rect primitives between the rounded corners*
20,1,$1+$1,$2,$3,$4,$5,0*
20,1,$1+$1,$4,$5,$6,$7,0*
20,1,$1+$1,$6,$7,$8,$9,0*
20,1,$1+$1,$8,$9,$2,$3,0*%
G04 Aperture macros list end*
%ADD10C,0.120000*%
%ADD11C,0.400000*%
%ADD12C,0.150000*%
%ADD13C,0.300000*%
%ADD14RoundRect,0.050000X0.275000X-0.750000X0.275000X0.750000X-0.275000X0.750000X-0.275000X-0.750000X0*%
%ADD15RoundRect,0.050000X0.750000X0.275000X-0.750000X0.275000X-0.750000X-0.275000X0.750000X-0.275000X0*%
%ADD16RoundRect,0.205000X-0.155000X0.212500X-0.155000X-0.212500X0.155000X-0.212500X0.155000X0.212500X0*%
%ADD17RoundRect,0.205000X-0.212500X-0.155000X0.212500X-0.155000X0.212500X0.155000X-0.212500X0.155000X0*%
%ADD18RoundRect,0.205000X0.155000X-0.212500X0.155000X0.212500X-0.155000X0.212500X-0.155000X-0.212500X0*%
%ADD19RoundRect,0.287500X-0.300000X-0.237500X0.300000X-0.237500X0.300000X0.237500X-0.300000X0.237500X0*%
%ADD20RoundRect,0.205000X0.212500X0.155000X-0.212500X0.155000X-0.212500X-0.155000X0.212500X-0.155000X0*%
%ADD21RoundRect,0.287500X0.287500X0.237500X-0.287500X0.237500X-0.287500X-0.237500X0.287500X-0.237500X0*%
%ADD22RoundRect,0.287500X0.237500X-0.287500X0.237500X0.287500X-0.237500X0.287500X-0.237500X-0.287500X0*%
%ADD23RoundRect,0.287500X-0.287500X-0.237500X0.287500X-0.237500X0.287500X0.237500X-0.287500X0.237500X0*%
%ADD24RoundRect,0.300000X-0.275000X-0.350000X0.275000X-0.350000X0.275000X0.350000X-0.275000X0.350000X0*%
%ADD25O,1.800000X1.800000*%
%ADD26RoundRect,0.050000X0.850000X-0.850000X0.850000X0.850000X-0.850000X0.850000X-0.850000X-0.850000X0*%
%ADD27RoundRect,0.287500X0.237500X-0.300000X0.237500X0.300000X-0.237500X0.300000X-0.237500X-0.300000X0*%
%ADD28RoundRect,0.200000X-0.650000X-0.150000X0.650000X-0.150000X0.650000X0.150000X-0.650000X0.150000X0*%
%ADD29RoundRect,0.050000X-0.780000X-0.325000X0.780000X-0.325000X0.780000X0.325000X-0.780000X0.325000X0*%
%ADD30RoundRect,0.050000X-0.500000X-0.375000X0.500000X-0.375000X0.500000X0.375000X-0.500000X0.375000X0*%
%ADD31RoundRect,0.050000X-1.000000X-1.000000X1.000000X-1.000000X1.000000X1.000000X-1.000000X1.000000X0*%
%ADD32RoundRect,0.050000X0.000000X1.414214X-1.414214X0.000000X0.000000X-1.414214X1.414214X0.000000X0*%
%ADD33RoundRect,0.050000X0.088388X0.618718X-0.618718X-0.088388X-0.088388X-0.618718X0.618718X0.088388X0*%
%ADD34RoundRect,0.050000X-0.618718X0.088388X0.088388X-0.618718X0.618718X-0.088388X-0.088388X0.618718X0*%
%ADD35RoundRect,0.050000X-1.414214X0.000000X0.000000X-1.414214X1.414214X0.000000X0.000000X1.414214X0*%
%ADD36RoundRect,0.050000X0.618718X-0.088388X-0.088388X0.618718X-0.618718X0.088388X0.088388X-0.618718X0*%
%ADD37RoundRect,0.050000X1.414214X0.000000X0.000000X1.414214X-1.414214X0.000000X0.000000X-1.414214X0*%
%ADD38RoundRect,0.050000X1.000000X1.000000X-1.000000X1.000000X-1.000000X-1.000000X1.000000X-1.000000X0*%
%ADD39RoundRect,0.050000X0.500000X0.375000X-0.500000X0.375000X-0.500000X-0.375000X0.500000X-0.375000X0*%
%ADD40RoundRect,0.050000X-0.088388X-0.618718X0.618718X0.088388X0.088388X0.618718X-0.618718X-0.088388X0*%
%ADD41RoundRect,0.050000X0.000000X-1.414214X1.414214X0.000000X0.000000X1.414214X-1.414214X0.000000X0*%
%ADD42C,1.252000*%
%ADD43C,2.800000*%
%ADD44C,4.500000*%
%ADD45RoundRect,0.050000X0.175000X1.500000X-0.175000X1.500000X-0.175000X-1.500000X0.175000X-1.500000X0*%
%ADD46C,0.750000*%
%ADD47RoundRect,0.050000X0.200000X0.700000X-0.200000X0.700000X-0.200000X-0.700000X0.200000X-0.700000X0*%
%ADD48O,1.350000X2.000000*%
%ADD49RoundRect,0.050000X-0.700000X-0.600000X0.700000X-0.600000X0.700000X0.600000X-0.700000X0.600000X0*%
%ADD50RoundRect,0.050000X3.000000X-1.500000X3.000000X1.500000X-3.000000X1.500000X-3.000000X-1.500000X0*%
%ADD51C,2.100000*%
G04 APERTURE END LIST*
D10*
X23000000Y-84000000D02*
X22000000Y-84000000D01*
X58000000Y-104000000D02*
X58000000Y-84000000D01*
X58000000Y-84000000D02*
X23000000Y-84000000D01*
D11*
X38433333Y-91684761D02*
X37480952Y-91684761D01*
X37480952Y-89684761D01*
X39100000Y-91684761D02*
X39100000Y-90351428D01*
X39100000Y-89684761D02*
X39004761Y-89780000D01*
X39100000Y-89875238D01*
X39195238Y-89780000D01*
X39100000Y-89684761D01*
X39100000Y-89875238D01*
X40052380Y-90351428D02*
X40052380Y-92351428D01*
X40052380Y-90446666D02*
X40242857Y-90351428D01*
X40623809Y-90351428D01*
X40814285Y-90446666D01*
X40909523Y-90541904D01*
X41004761Y-90732380D01*
X41004761Y-91303809D01*
X40909523Y-91494285D01*
X40814285Y-91589523D01*
X40623809Y-91684761D01*
X40242857Y-91684761D01*
X40052380Y-91589523D01*
X42147619Y-91684761D02*
X41957142Y-91589523D01*
X41861904Y-91494285D01*
X41766666Y-91303809D01*
X41766666Y-90732380D01*
X41861904Y-90541904D01*
X41957142Y-90446666D01*
X42147619Y-90351428D01*
X42433333Y-90351428D01*
X42623809Y-90446666D01*
X42719047Y-90541904D01*
X42814285Y-90732380D01*
X42814285Y-91303809D01*
X42719047Y-91494285D01*
X42623809Y-91589523D01*
X42433333Y-91684761D01*
X42147619Y-91684761D01*
X33528571Y-93571428D02*
X33528571Y-95571428D01*
X33528571Y-93666666D02*
X33719047Y-93571428D01*
X34100000Y-93571428D01*
X34290476Y-93666666D01*
X34385714Y-93761904D01*
X34480952Y-93952380D01*
X34480952Y-94523809D01*
X34385714Y-94714285D01*
X34290476Y-94809523D01*
X34100000Y-94904761D01*
X33719047Y-94904761D01*
X33528571Y-94809523D01*
X35338095Y-94904761D02*
X35338095Y-93571428D01*
X35338095Y-93952380D02*
X35433333Y-93761904D01*
X35528571Y-93666666D01*
X35719047Y-93571428D01*
X35909523Y-93571428D01*
X36861904Y-94904761D02*
X36671428Y-94809523D01*
X36576190Y-94714285D01*
X36480952Y-94523809D01*
X36480952Y-93952380D01*
X36576190Y-93761904D01*
X36671428Y-93666666D01*
X36861904Y-93571428D01*
X37147619Y-93571428D01*
X37338095Y-93666666D01*
X37433333Y-93761904D01*
X37528571Y-93952380D01*
X37528571Y-94523809D01*
X37433333Y-94714285D01*
X37338095Y-94809523D01*
X37147619Y-94904761D01*
X36861904Y-94904761D01*
X38100000Y-93571428D02*
X38861904Y-93571428D01*
X38385714Y-92904761D02*
X38385714Y-94619047D01*
X38480952Y-94809523D01*
X38671428Y-94904761D01*
X38861904Y-94904761D01*
X40290476Y-94809523D02*
X40100000Y-94904761D01*
X39719047Y-94904761D01*
X39528571Y-94809523D01*
X39433333Y-94619047D01*
X39433333Y-93857142D01*
X39528571Y-93666666D01*
X39719047Y-93571428D01*
X40100000Y-93571428D01*
X40290476Y-93666666D01*
X40385714Y-93857142D01*
X40385714Y-94047619D01*
X39433333Y-94238095D01*
X42100000Y-94809523D02*
X41909523Y-94904761D01*
X41528571Y-94904761D01*
X41338095Y-94809523D01*
X41242857Y-94714285D01*
X41147619Y-94523809D01*
X41147619Y-93952380D01*
X41242857Y-93761904D01*
X41338095Y-93666666D01*
X41528571Y-93571428D01*
X41909523Y-93571428D01*
X42100000Y-93666666D01*
X42671428Y-93571428D02*
X43433333Y-93571428D01*
X42957142Y-92904761D02*
X42957142Y-94619047D01*
X43052380Y-94809523D01*
X43242857Y-94904761D01*
X43433333Y-94904761D01*
X44861904Y-94809523D02*
X44671428Y-94904761D01*
X44290476Y-94904761D01*
X44100000Y-94809523D01*
X44004761Y-94619047D01*
X44004761Y-93857142D01*
X44100000Y-93666666D01*
X44290476Y-93571428D01*
X44671428Y-93571428D01*
X44861904Y-93666666D01*
X44957142Y-93857142D01*
X44957142Y-94047619D01*
X44004761Y-94238095D01*
X46671428Y-94904761D02*
X46671428Y-92904761D01*
X46671428Y-94809523D02*
X46480952Y-94904761D01*
X46100000Y-94904761D01*
X45909523Y-94809523D01*
X45814285Y-94714285D01*
X45719047Y-94523809D01*
X45719047Y-93952380D01*
X45814285Y-93761904D01*
X45909523Y-93666666D01*
X46100000Y-93571428D01*
X46480952Y-93571428D01*
X46671428Y-93666666D01*
X35814285Y-96124761D02*
X34861904Y-96124761D01*
X34766666Y-97077142D01*
X34861904Y-96981904D01*
X35052380Y-96886666D01*
X35528571Y-96886666D01*
X35719047Y-96981904D01*
X35814285Y-97077142D01*
X35909523Y-97267619D01*
X35909523Y-97743809D01*
X35814285Y-97934285D01*
X35719047Y-98029523D01*
X35528571Y-98124761D01*
X35052380Y-98124761D01*
X34861904Y-98029523D01*
X34766666Y-97934285D01*
X37147619Y-96124761D02*
X37338095Y-96124761D01*
X37528571Y-96220000D01*
X37623809Y-96315238D01*
X37719047Y-96505714D01*
X37814285Y-96886666D01*
X37814285Y-97362857D01*
X37719047Y-97743809D01*
X37623809Y-97934285D01*
X37528571Y-98029523D01*
X37338095Y-98124761D01*
X37147619Y-98124761D01*
X36957142Y-98029523D01*
X36861904Y-97934285D01*
X36766666Y-97743809D01*
X36671428Y-97362857D01*
X36671428Y-96886666D01*
X36766666Y-96505714D01*
X36861904Y-96315238D01*
X36957142Y-96220000D01*
X37147619Y-96124761D01*
X38576190Y-96315238D02*
X38671428Y-96220000D01*
X38861904Y-96124761D01*
X39338095Y-96124761D01*
X39528571Y-96220000D01*
X39623809Y-96315238D01*
X39719047Y-96505714D01*
X39719047Y-96696190D01*
X39623809Y-96981904D01*
X38480952Y-98124761D01*
X39719047Y-98124761D01*
X40957142Y-96124761D02*
X41147619Y-96124761D01*
X41338095Y-96220000D01*
X41433333Y-96315238D01*
X41528571Y-96505714D01*
X41623809Y-96886666D01*
X41623809Y-97362857D01*
X41528571Y-97743809D01*
X41433333Y-97934285D01*
X41338095Y-98029523D01*
X41147619Y-98124761D01*
X40957142Y-98124761D01*
X40766666Y-98029523D01*
X40671428Y-97934285D01*
X40576190Y-97743809D01*
X40480952Y-97362857D01*
X40480952Y-96886666D01*
X40576190Y-96505714D01*
X40671428Y-96315238D01*
X40766666Y-96220000D01*
X40957142Y-96124761D01*
X42290476Y-96124761D02*
X43528571Y-96124761D01*
X42861904Y-96886666D01*
X43147619Y-96886666D01*
X43338095Y-96981904D01*
X43433333Y-97077142D01*
X43528571Y-97267619D01*
X43528571Y-97743809D01*
X43433333Y-97934285D01*
X43338095Y-98029523D01*
X43147619Y-98124761D01*
X42576190Y-98124761D01*
X42385714Y-98029523D01*
X42290476Y-97934285D01*
X44766666Y-96124761D02*
X44957142Y-96124761D01*
X45147619Y-96220000D01*
X45242857Y-96315238D01*
X45338095Y-96505714D01*
X45433333Y-96886666D01*
X45433333Y-97362857D01*
X45338095Y-97743809D01*
X45242857Y-97934285D01*
X45147619Y-98029523D01*
X44957142Y-98124761D01*
X44766666Y-98124761D01*
X44576190Y-98029523D01*
X44480952Y-97934285D01*
X44385714Y-97743809D01*
X44290476Y-97362857D01*
X44290476Y-96886666D01*
X44385714Y-96505714D01*
X44480952Y-96315238D01*
X44576190Y-96220000D01*
X44766666Y-96124761D01*
D12*
%TO.C,J2*%
X30212380Y-28048333D02*
X30926666Y-28048333D01*
X31069523Y-28095952D01*
X31164761Y-28191190D01*
X31212380Y-28334047D01*
X31212380Y-28429285D01*
X30307619Y-27619761D02*
X30260000Y-27572142D01*
X30212380Y-27476904D01*
X30212380Y-27238809D01*
X30260000Y-27143571D01*
X30307619Y-27095952D01*
X30402857Y-27048333D01*
X30498095Y-27048333D01*
X30640952Y-27095952D01*
X31212380Y-27667380D01*
X31212380Y-27048333D01*
%TO.C,J1*%
X54190476Y-48252380D02*
X54809523Y-48252380D01*
X54476190Y-48633333D01*
X54619047Y-48633333D01*
X54714285Y-48680952D01*
X54761904Y-48728571D01*
X54809523Y-48823809D01*
X54809523Y-49061904D01*
X54761904Y-49157142D01*
X54714285Y-49204761D01*
X54619047Y-49252380D01*
X54333333Y-49252380D01*
X54238095Y-49204761D01*
X54190476Y-49157142D01*
X55428571Y-48252380D02*
X55523809Y-48252380D01*
X55619047Y-48300000D01*
X55666666Y-48347619D01*
X55714285Y-48442857D01*
X55761904Y-48633333D01*
X55761904Y-48871428D01*
X55714285Y-49061904D01*
X55666666Y-49157142D01*
X55619047Y-49204761D01*
X55523809Y-49252380D01*
X55428571Y-49252380D01*
X55333333Y-49204761D01*
X55285714Y-49157142D01*
X55238095Y-49061904D01*
X55190476Y-48871428D01*
X55190476Y-48633333D01*
X55238095Y-48442857D01*
X55285714Y-48347619D01*
X55333333Y-48300000D01*
X55428571Y-48252380D01*
X38285714Y-49252380D02*
X37714285Y-49252380D01*
X38000000Y-49252380D02*
X38000000Y-48252380D01*
X37904761Y-48395238D01*
X37809523Y-48490476D01*
X37714285Y-48538095D01*
%TO.C,TP29*%
X44361904Y-94504380D02*
X44933333Y-94504380D01*
X44647619Y-95504380D02*
X44647619Y-94504380D01*
X45266666Y-95504380D02*
X45266666Y-94504380D01*
X45647619Y-94504380D01*
X45742857Y-94552000D01*
X45790476Y-94599619D01*
X45838095Y-94694857D01*
X45838095Y-94837714D01*
X45790476Y-94932952D01*
X45742857Y-94980571D01*
X45647619Y-95028190D01*
X45266666Y-95028190D01*
X46219047Y-94599619D02*
X46266666Y-94552000D01*
X46361904Y-94504380D01*
X46600000Y-94504380D01*
X46695238Y-94552000D01*
X46742857Y-94599619D01*
X46790476Y-94694857D01*
X46790476Y-94790095D01*
X46742857Y-94932952D01*
X46171428Y-95504380D01*
X46790476Y-95504380D01*
X47266666Y-95504380D02*
X47457142Y-95504380D01*
X47552380Y-95456761D01*
X47600000Y-95409142D01*
X47695238Y-95266285D01*
X47742857Y-95075809D01*
X47742857Y-94694857D01*
X47695238Y-94599619D01*
X47647619Y-94552000D01*
X47552380Y-94504380D01*
X47361904Y-94504380D01*
X47266666Y-94552000D01*
X47219047Y-94599619D01*
X47171428Y-94694857D01*
X47171428Y-94932952D01*
X47219047Y-95028190D01*
X47266666Y-95075809D01*
X47361904Y-95123428D01*
X47552380Y-95123428D01*
X47647619Y-95075809D01*
X47695238Y-95028190D01*
X47742857Y-94932952D01*
%TO.C,TP32*%
X56511904Y-82354380D02*
X57083333Y-82354380D01*
X56797619Y-83354380D02*
X56797619Y-82354380D01*
X57416666Y-83354380D02*
X57416666Y-82354380D01*
X57797619Y-82354380D01*
X57892857Y-82402000D01*
X57940476Y-82449619D01*
X57988095Y-82544857D01*
X57988095Y-82687714D01*
X57940476Y-82782952D01*
X57892857Y-82830571D01*
X57797619Y-82878190D01*
X57416666Y-82878190D01*
X58321428Y-82354380D02*
X58940476Y-82354380D01*
X58607142Y-82735333D01*
X58750000Y-82735333D01*
X58845238Y-82782952D01*
X58892857Y-82830571D01*
X58940476Y-82925809D01*
X58940476Y-83163904D01*
X58892857Y-83259142D01*
X58845238Y-83306761D01*
X58750000Y-83354380D01*
X58464285Y-83354380D01*
X58369047Y-83306761D01*
X58321428Y-83259142D01*
X59321428Y-82449619D02*
X59369047Y-82402000D01*
X59464285Y-82354380D01*
X59702380Y-82354380D01*
X59797619Y-82402000D01*
X59845238Y-82449619D01*
X59892857Y-82544857D01*
X59892857Y-82640095D01*
X59845238Y-82782952D01*
X59273809Y-83354380D01*
X59892857Y-83354380D01*
%TO.C,TP14*%
X40311904Y-90454380D02*
X40883333Y-90454380D01*
X40597619Y-91454380D02*
X40597619Y-90454380D01*
X41216666Y-91454380D02*
X41216666Y-90454380D01*
X41597619Y-90454380D01*
X41692857Y-90502000D01*
X41740476Y-90549619D01*
X41788095Y-90644857D01*
X41788095Y-90787714D01*
X41740476Y-90882952D01*
X41692857Y-90930571D01*
X41597619Y-90978190D01*
X41216666Y-90978190D01*
X42740476Y-91454380D02*
X42169047Y-91454380D01*
X42454761Y-91454380D02*
X42454761Y-90454380D01*
X42359523Y-90597238D01*
X42264285Y-90692476D01*
X42169047Y-90740095D01*
X43597619Y-90787714D02*
X43597619Y-91454380D01*
X43359523Y-90406761D02*
X43121428Y-91121047D01*
X43740476Y-91121047D01*
%TO.C,TP28*%
X40311904Y-98554380D02*
X40883333Y-98554380D01*
X40597619Y-99554380D02*
X40597619Y-98554380D01*
X41216666Y-99554380D02*
X41216666Y-98554380D01*
X41597619Y-98554380D01*
X41692857Y-98602000D01*
X41740476Y-98649619D01*
X41788095Y-98744857D01*
X41788095Y-98887714D01*
X41740476Y-98982952D01*
X41692857Y-99030571D01*
X41597619Y-99078190D01*
X41216666Y-99078190D01*
X42169047Y-98649619D02*
X42216666Y-98602000D01*
X42311904Y-98554380D01*
X42550000Y-98554380D01*
X42645238Y-98602000D01*
X42692857Y-98649619D01*
X42740476Y-98744857D01*
X42740476Y-98840095D01*
X42692857Y-98982952D01*
X42121428Y-99554380D01*
X42740476Y-99554380D01*
X43311904Y-98982952D02*
X43216666Y-98935333D01*
X43169047Y-98887714D01*
X43121428Y-98792476D01*
X43121428Y-98744857D01*
X43169047Y-98649619D01*
X43216666Y-98602000D01*
X43311904Y-98554380D01*
X43502380Y-98554380D01*
X43597619Y-98602000D01*
X43645238Y-98649619D01*
X43692857Y-98744857D01*
X43692857Y-98792476D01*
X43645238Y-98887714D01*
X43597619Y-98935333D01*
X43502380Y-98982952D01*
X43311904Y-98982952D01*
X43216666Y-99030571D01*
X43169047Y-99078190D01*
X43121428Y-99173428D01*
X43121428Y-99363904D01*
X43169047Y-99459142D01*
X43216666Y-99506761D01*
X43311904Y-99554380D01*
X43502380Y-99554380D01*
X43597619Y-99506761D01*
X43645238Y-99459142D01*
X43692857Y-99363904D01*
X43692857Y-99173428D01*
X43645238Y-99078190D01*
X43597619Y-99030571D01*
X43502380Y-98982952D01*
%TO.C,TP2*%
X44838095Y-90454380D02*
X45409523Y-90454380D01*
X45123809Y-91454380D02*
X45123809Y-90454380D01*
X45742857Y-91454380D02*
X45742857Y-90454380D01*
X46123809Y-90454380D01*
X46219047Y-90502000D01*
X46266666Y-90549619D01*
X46314285Y-90644857D01*
X46314285Y-90787714D01*
X46266666Y-90882952D01*
X46219047Y-90930571D01*
X46123809Y-90978190D01*
X45742857Y-90978190D01*
X46695238Y-90549619D02*
X46742857Y-90502000D01*
X46838095Y-90454380D01*
X47076190Y-90454380D01*
X47171428Y-90502000D01*
X47219047Y-90549619D01*
X47266666Y-90644857D01*
X47266666Y-90740095D01*
X47219047Y-90882952D01*
X46647619Y-91454380D01*
X47266666Y-91454380D01*
%TO.C,TP27*%
X36261904Y-90454380D02*
X36833333Y-90454380D01*
X36547619Y-91454380D02*
X36547619Y-90454380D01*
X37166666Y-91454380D02*
X37166666Y-90454380D01*
X37547619Y-90454380D01*
X37642857Y-90502000D01*
X37690476Y-90549619D01*
X37738095Y-90644857D01*
X37738095Y-90787714D01*
X37690476Y-90882952D01*
X37642857Y-90930571D01*
X37547619Y-90978190D01*
X37166666Y-90978190D01*
X38119047Y-90549619D02*
X38166666Y-90502000D01*
X38261904Y-90454380D01*
X38500000Y-90454380D01*
X38595238Y-90502000D01*
X38642857Y-90549619D01*
X38690476Y-90644857D01*
X38690476Y-90740095D01*
X38642857Y-90882952D01*
X38071428Y-91454380D01*
X38690476Y-91454380D01*
X39023809Y-90454380D02*
X39690476Y-90454380D01*
X39261904Y-91454380D01*
%TO.C,TP17*%
X32211904Y-98554380D02*
X32783333Y-98554380D01*
X32497619Y-99554380D02*
X32497619Y-98554380D01*
X33116666Y-99554380D02*
X33116666Y-98554380D01*
X33497619Y-98554380D01*
X33592857Y-98602000D01*
X33640476Y-98649619D01*
X33688095Y-98744857D01*
X33688095Y-98887714D01*
X33640476Y-98982952D01*
X33592857Y-99030571D01*
X33497619Y-99078190D01*
X33116666Y-99078190D01*
X34640476Y-99554380D02*
X34069047Y-99554380D01*
X34354761Y-99554380D02*
X34354761Y-98554380D01*
X34259523Y-98697238D01*
X34164285Y-98792476D01*
X34069047Y-98840095D01*
X34973809Y-98554380D02*
X35640476Y-98554380D01*
X35211904Y-99554380D01*
%TO.C,TP23*%
X28161904Y-98554380D02*
X28733333Y-98554380D01*
X28447619Y-99554380D02*
X28447619Y-98554380D01*
X29066666Y-99554380D02*
X29066666Y-98554380D01*
X29447619Y-98554380D01*
X29542857Y-98602000D01*
X29590476Y-98649619D01*
X29638095Y-98744857D01*
X29638095Y-98887714D01*
X29590476Y-98982952D01*
X29542857Y-99030571D01*
X29447619Y-99078190D01*
X29066666Y-99078190D01*
X30019047Y-98649619D02*
X30066666Y-98602000D01*
X30161904Y-98554380D01*
X30400000Y-98554380D01*
X30495238Y-98602000D01*
X30542857Y-98649619D01*
X30590476Y-98744857D01*
X30590476Y-98840095D01*
X30542857Y-98982952D01*
X29971428Y-99554380D01*
X30590476Y-99554380D01*
X30923809Y-98554380D02*
X31542857Y-98554380D01*
X31209523Y-98935333D01*
X31352380Y-98935333D01*
X31447619Y-98982952D01*
X31495238Y-99030571D01*
X31542857Y-99125809D01*
X31542857Y-99363904D01*
X31495238Y-99459142D01*
X31447619Y-99506761D01*
X31352380Y-99554380D01*
X31066666Y-99554380D01*
X30971428Y-99506761D01*
X30923809Y-99459142D01*
%TO.C,TP30*%
X52461904Y-86404380D02*
X53033333Y-86404380D01*
X52747619Y-87404380D02*
X52747619Y-86404380D01*
X53366666Y-87404380D02*
X53366666Y-86404380D01*
X53747619Y-86404380D01*
X53842857Y-86452000D01*
X53890476Y-86499619D01*
X53938095Y-86594857D01*
X53938095Y-86737714D01*
X53890476Y-86832952D01*
X53842857Y-86880571D01*
X53747619Y-86928190D01*
X53366666Y-86928190D01*
X54271428Y-86404380D02*
X54890476Y-86404380D01*
X54557142Y-86785333D01*
X54700000Y-86785333D01*
X54795238Y-86832952D01*
X54842857Y-86880571D01*
X54890476Y-86975809D01*
X54890476Y-87213904D01*
X54842857Y-87309142D01*
X54795238Y-87356761D01*
X54700000Y-87404380D01*
X54414285Y-87404380D01*
X54319047Y-87356761D01*
X54271428Y-87309142D01*
X55509523Y-86404380D02*
X55604761Y-86404380D01*
X55700000Y-86452000D01*
X55747619Y-86499619D01*
X55795238Y-86594857D01*
X55842857Y-86785333D01*
X55842857Y-87023428D01*
X55795238Y-87213904D01*
X55747619Y-87309142D01*
X55700000Y-87356761D01*
X55604761Y-87404380D01*
X55509523Y-87404380D01*
X55414285Y-87356761D01*
X55366666Y-87309142D01*
X55319047Y-87213904D01*
X55271428Y-87023428D01*
X55271428Y-86785333D01*
X55319047Y-86594857D01*
X55366666Y-86499619D01*
X55414285Y-86452000D01*
X55509523Y-86404380D01*
%TO.C,TP26*%
X52461904Y-82354380D02*
X53033333Y-82354380D01*
X52747619Y-83354380D02*
X52747619Y-82354380D01*
X53366666Y-83354380D02*
X53366666Y-82354380D01*
X53747619Y-82354380D01*
X53842857Y-82402000D01*
X53890476Y-82449619D01*
X53938095Y-82544857D01*
X53938095Y-82687714D01*
X53890476Y-82782952D01*
X53842857Y-82830571D01*
X53747619Y-82878190D01*
X53366666Y-82878190D01*
X54319047Y-82449619D02*
X54366666Y-82402000D01*
X54461904Y-82354380D01*
X54700000Y-82354380D01*
X54795238Y-82402000D01*
X54842857Y-82449619D01*
X54890476Y-82544857D01*
X54890476Y-82640095D01*
X54842857Y-82782952D01*
X54271428Y-83354380D01*
X54890476Y-83354380D01*
X55747619Y-82354380D02*
X55557142Y-82354380D01*
X55461904Y-82402000D01*
X55414285Y-82449619D01*
X55319047Y-82592476D01*
X55271428Y-82782952D01*
X55271428Y-83163904D01*
X55319047Y-83259142D01*
X55366666Y-83306761D01*
X55461904Y-83354380D01*
X55652380Y-83354380D01*
X55747619Y-83306761D01*
X55795238Y-83259142D01*
X55842857Y-83163904D01*
X55842857Y-82925809D01*
X55795238Y-82830571D01*
X55747619Y-82782952D01*
X55652380Y-82735333D01*
X55461904Y-82735333D01*
X55366666Y-82782952D01*
X55319047Y-82830571D01*
X55271428Y-82925809D01*
%TO.C,TP9*%
X32688095Y-86404380D02*
X33259523Y-86404380D01*
X32973809Y-87404380D02*
X32973809Y-86404380D01*
X33592857Y-87404380D02*
X33592857Y-86404380D01*
X33973809Y-86404380D01*
X34069047Y-86452000D01*
X34116666Y-86499619D01*
X34164285Y-86594857D01*
X34164285Y-86737714D01*
X34116666Y-86832952D01*
X34069047Y-86880571D01*
X33973809Y-86928190D01*
X33592857Y-86928190D01*
X34640476Y-87404380D02*
X34830952Y-87404380D01*
X34926190Y-87356761D01*
X34973809Y-87309142D01*
X35069047Y-87166285D01*
X35116666Y-86975809D01*
X35116666Y-86594857D01*
X35069047Y-86499619D01*
X35021428Y-86452000D01*
X34926190Y-86404380D01*
X34735714Y-86404380D01*
X34640476Y-86452000D01*
X34592857Y-86499619D01*
X34545238Y-86594857D01*
X34545238Y-86832952D01*
X34592857Y-86928190D01*
X34640476Y-86975809D01*
X34735714Y-87023428D01*
X34926190Y-87023428D01*
X35021428Y-86975809D01*
X35069047Y-86928190D01*
X35116666Y-86832952D01*
%TO.C,TP15*%
X36261904Y-86404380D02*
X36833333Y-86404380D01*
X36547619Y-87404380D02*
X36547619Y-86404380D01*
X37166666Y-87404380D02*
X37166666Y-86404380D01*
X37547619Y-86404380D01*
X37642857Y-86452000D01*
X37690476Y-86499619D01*
X37738095Y-86594857D01*
X37738095Y-86737714D01*
X37690476Y-86832952D01*
X37642857Y-86880571D01*
X37547619Y-86928190D01*
X37166666Y-86928190D01*
X38690476Y-87404380D02*
X38119047Y-87404380D01*
X38404761Y-87404380D02*
X38404761Y-86404380D01*
X38309523Y-86547238D01*
X38214285Y-86642476D01*
X38119047Y-86690095D01*
X39595238Y-86404380D02*
X39119047Y-86404380D01*
X39071428Y-86880571D01*
X39119047Y-86832952D01*
X39214285Y-86785333D01*
X39452380Y-86785333D01*
X39547619Y-86832952D01*
X39595238Y-86880571D01*
X39642857Y-86975809D01*
X39642857Y-87213904D01*
X39595238Y-87309142D01*
X39547619Y-87356761D01*
X39452380Y-87404380D01*
X39214285Y-87404380D01*
X39119047Y-87356761D01*
X39071428Y-87309142D01*
%TO.C,TP19*%
X36261904Y-82354380D02*
X36833333Y-82354380D01*
X36547619Y-83354380D02*
X36547619Y-82354380D01*
X37166666Y-83354380D02*
X37166666Y-82354380D01*
X37547619Y-82354380D01*
X37642857Y-82402000D01*
X37690476Y-82449619D01*
X37738095Y-82544857D01*
X37738095Y-82687714D01*
X37690476Y-82782952D01*
X37642857Y-82830571D01*
X37547619Y-82878190D01*
X37166666Y-82878190D01*
X38690476Y-83354380D02*
X38119047Y-83354380D01*
X38404761Y-83354380D02*
X38404761Y-82354380D01*
X38309523Y-82497238D01*
X38214285Y-82592476D01*
X38119047Y-82640095D01*
X39166666Y-83354380D02*
X39357142Y-83354380D01*
X39452380Y-83306761D01*
X39500000Y-83259142D01*
X39595238Y-83116285D01*
X39642857Y-82925809D01*
X39642857Y-82544857D01*
X39595238Y-82449619D01*
X39547619Y-82402000D01*
X39452380Y-82354380D01*
X39261904Y-82354380D01*
X39166666Y-82402000D01*
X39119047Y-82449619D01*
X39071428Y-82544857D01*
X39071428Y-82782952D01*
X39119047Y-82878190D01*
X39166666Y-82925809D01*
X39261904Y-82973428D01*
X39452380Y-82973428D01*
X39547619Y-82925809D01*
X39595238Y-82878190D01*
X39642857Y-82782952D01*
%TO.C,TP5*%
X32688095Y-82354380D02*
X33259523Y-82354380D01*
X32973809Y-83354380D02*
X32973809Y-82354380D01*
X33592857Y-83354380D02*
X33592857Y-82354380D01*
X33973809Y-82354380D01*
X34069047Y-82402000D01*
X34116666Y-82449619D01*
X34164285Y-82544857D01*
X34164285Y-82687714D01*
X34116666Y-82782952D01*
X34069047Y-82830571D01*
X33973809Y-82878190D01*
X33592857Y-82878190D01*
X35069047Y-82354380D02*
X34592857Y-82354380D01*
X34545238Y-82830571D01*
X34592857Y-82782952D01*
X34688095Y-82735333D01*
X34926190Y-82735333D01*
X35021428Y-82782952D01*
X35069047Y-82830571D01*
X35116666Y-82925809D01*
X35116666Y-83163904D01*
X35069047Y-83259142D01*
X35021428Y-83306761D01*
X34926190Y-83354380D01*
X34688095Y-83354380D01*
X34592857Y-83306761D01*
X34545238Y-83259142D01*
%TO.C,TP4*%
X48888095Y-86404380D02*
X49459523Y-86404380D01*
X49173809Y-87404380D02*
X49173809Y-86404380D01*
X49792857Y-87404380D02*
X49792857Y-86404380D01*
X50173809Y-86404380D01*
X50269047Y-86452000D01*
X50316666Y-86499619D01*
X50364285Y-86594857D01*
X50364285Y-86737714D01*
X50316666Y-86832952D01*
X50269047Y-86880571D01*
X50173809Y-86928190D01*
X49792857Y-86928190D01*
X51221428Y-86737714D02*
X51221428Y-87404380D01*
X50983333Y-86356761D02*
X50745238Y-87071047D01*
X51364285Y-87071047D01*
%TO.C,TP10*%
X48411904Y-82354380D02*
X48983333Y-82354380D01*
X48697619Y-83354380D02*
X48697619Y-82354380D01*
X49316666Y-83354380D02*
X49316666Y-82354380D01*
X49697619Y-82354380D01*
X49792857Y-82402000D01*
X49840476Y-82449619D01*
X49888095Y-82544857D01*
X49888095Y-82687714D01*
X49840476Y-82782952D01*
X49792857Y-82830571D01*
X49697619Y-82878190D01*
X49316666Y-82878190D01*
X50840476Y-83354380D02*
X50269047Y-83354380D01*
X50554761Y-83354380D02*
X50554761Y-82354380D01*
X50459523Y-82497238D01*
X50364285Y-82592476D01*
X50269047Y-82640095D01*
X51459523Y-82354380D02*
X51554761Y-82354380D01*
X51650000Y-82402000D01*
X51697619Y-82449619D01*
X51745238Y-82544857D01*
X51792857Y-82735333D01*
X51792857Y-82973428D01*
X51745238Y-83163904D01*
X51697619Y-83259142D01*
X51650000Y-83306761D01*
X51554761Y-83354380D01*
X51459523Y-83354380D01*
X51364285Y-83306761D01*
X51316666Y-83259142D01*
X51269047Y-83163904D01*
X51221428Y-82973428D01*
X51221428Y-82735333D01*
X51269047Y-82544857D01*
X51316666Y-82449619D01*
X51364285Y-82402000D01*
X51459523Y-82354380D01*
%TO.C,TP18*%
X40311904Y-86404380D02*
X40883333Y-86404380D01*
X40597619Y-87404380D02*
X40597619Y-86404380D01*
X41216666Y-87404380D02*
X41216666Y-86404380D01*
X41597619Y-86404380D01*
X41692857Y-86452000D01*
X41740476Y-86499619D01*
X41788095Y-86594857D01*
X41788095Y-86737714D01*
X41740476Y-86832952D01*
X41692857Y-86880571D01*
X41597619Y-86928190D01*
X41216666Y-86928190D01*
X42740476Y-87404380D02*
X42169047Y-87404380D01*
X42454761Y-87404380D02*
X42454761Y-86404380D01*
X42359523Y-86547238D01*
X42264285Y-86642476D01*
X42169047Y-86690095D01*
X43311904Y-86832952D02*
X43216666Y-86785333D01*
X43169047Y-86737714D01*
X43121428Y-86642476D01*
X43121428Y-86594857D01*
X43169047Y-86499619D01*
X43216666Y-86452000D01*
X43311904Y-86404380D01*
X43502380Y-86404380D01*
X43597619Y-86452000D01*
X43645238Y-86499619D01*
X43692857Y-86594857D01*
X43692857Y-86642476D01*
X43645238Y-86737714D01*
X43597619Y-86785333D01*
X43502380Y-86832952D01*
X43311904Y-86832952D01*
X43216666Y-86880571D01*
X43169047Y-86928190D01*
X43121428Y-87023428D01*
X43121428Y-87213904D01*
X43169047Y-87309142D01*
X43216666Y-87356761D01*
X43311904Y-87404380D01*
X43502380Y-87404380D01*
X43597619Y-87356761D01*
X43645238Y-87309142D01*
X43692857Y-87213904D01*
X43692857Y-87023428D01*
X43645238Y-86928190D01*
X43597619Y-86880571D01*
X43502380Y-86832952D01*
%TO.C,TP12*%
X36261904Y-94504380D02*
X36833333Y-94504380D01*
X36547619Y-95504380D02*
X36547619Y-94504380D01*
X37166666Y-95504380D02*
X37166666Y-94504380D01*
X37547619Y-94504380D01*
X37642857Y-94552000D01*
X37690476Y-94599619D01*
X37738095Y-94694857D01*
X37738095Y-94837714D01*
X37690476Y-94932952D01*
X37642857Y-94980571D01*
X37547619Y-95028190D01*
X37166666Y-95028190D01*
X38690476Y-95504380D02*
X38119047Y-95504380D01*
X38404761Y-95504380D02*
X38404761Y-94504380D01*
X38309523Y-94647238D01*
X38214285Y-94742476D01*
X38119047Y-94790095D01*
X39071428Y-94599619D02*
X39119047Y-94552000D01*
X39214285Y-94504380D01*
X39452380Y-94504380D01*
X39547619Y-94552000D01*
X39595238Y-94599619D01*
X39642857Y-94694857D01*
X39642857Y-94790095D01*
X39595238Y-94932952D01*
X39023809Y-95504380D01*
X39642857Y-95504380D01*
%TO.C,TP22*%
X36261904Y-98554380D02*
X36833333Y-98554380D01*
X36547619Y-99554380D02*
X36547619Y-98554380D01*
X37166666Y-99554380D02*
X37166666Y-98554380D01*
X37547619Y-98554380D01*
X37642857Y-98602000D01*
X37690476Y-98649619D01*
X37738095Y-98744857D01*
X37738095Y-98887714D01*
X37690476Y-98982952D01*
X37642857Y-99030571D01*
X37547619Y-99078190D01*
X37166666Y-99078190D01*
X38119047Y-98649619D02*
X38166666Y-98602000D01*
X38261904Y-98554380D01*
X38500000Y-98554380D01*
X38595238Y-98602000D01*
X38642857Y-98649619D01*
X38690476Y-98744857D01*
X38690476Y-98840095D01*
X38642857Y-98982952D01*
X38071428Y-99554380D01*
X38690476Y-99554380D01*
X39071428Y-98649619D02*
X39119047Y-98602000D01*
X39214285Y-98554380D01*
X39452380Y-98554380D01*
X39547619Y-98602000D01*
X39595238Y-98649619D01*
X39642857Y-98744857D01*
X39642857Y-98840095D01*
X39595238Y-98982952D01*
X39023809Y-99554380D01*
X39642857Y-99554380D01*
%TO.C,TP25*%
X32211904Y-94504380D02*
X32783333Y-94504380D01*
X32497619Y-95504380D02*
X32497619Y-94504380D01*
X33116666Y-95504380D02*
X33116666Y-94504380D01*
X33497619Y-94504380D01*
X33592857Y-94552000D01*
X33640476Y-94599619D01*
X33688095Y-94694857D01*
X33688095Y-94837714D01*
X33640476Y-94932952D01*
X33592857Y-94980571D01*
X33497619Y-95028190D01*
X33116666Y-95028190D01*
X34069047Y-94599619D02*
X34116666Y-94552000D01*
X34211904Y-94504380D01*
X34450000Y-94504380D01*
X34545238Y-94552000D01*
X34592857Y-94599619D01*
X34640476Y-94694857D01*
X34640476Y-94790095D01*
X34592857Y-94932952D01*
X34021428Y-95504380D01*
X34640476Y-95504380D01*
X35545238Y-94504380D02*
X35069047Y-94504380D01*
X35021428Y-94980571D01*
X35069047Y-94932952D01*
X35164285Y-94885333D01*
X35402380Y-94885333D01*
X35497619Y-94932952D01*
X35545238Y-94980571D01*
X35592857Y-95075809D01*
X35592857Y-95313904D01*
X35545238Y-95409142D01*
X35497619Y-95456761D01*
X35402380Y-95504380D01*
X35164285Y-95504380D01*
X35069047Y-95456761D01*
X35021428Y-95409142D01*
%TO.C,TP13*%
X32211904Y-90454380D02*
X32783333Y-90454380D01*
X32497619Y-91454380D02*
X32497619Y-90454380D01*
X33116666Y-91454380D02*
X33116666Y-90454380D01*
X33497619Y-90454380D01*
X33592857Y-90502000D01*
X33640476Y-90549619D01*
X33688095Y-90644857D01*
X33688095Y-90787714D01*
X33640476Y-90882952D01*
X33592857Y-90930571D01*
X33497619Y-90978190D01*
X33116666Y-90978190D01*
X34640476Y-91454380D02*
X34069047Y-91454380D01*
X34354761Y-91454380D02*
X34354761Y-90454380D01*
X34259523Y-90597238D01*
X34164285Y-90692476D01*
X34069047Y-90740095D01*
X34973809Y-90454380D02*
X35592857Y-90454380D01*
X35259523Y-90835333D01*
X35402380Y-90835333D01*
X35497619Y-90882952D01*
X35545238Y-90930571D01*
X35592857Y-91025809D01*
X35592857Y-91263904D01*
X35545238Y-91359142D01*
X35497619Y-91406761D01*
X35402380Y-91454380D01*
X35116666Y-91454380D01*
X35021428Y-91406761D01*
X34973809Y-91359142D01*
%TO.C,TP11*%
X28161904Y-94504380D02*
X28733333Y-94504380D01*
X28447619Y-95504380D02*
X28447619Y-94504380D01*
X29066666Y-95504380D02*
X29066666Y-94504380D01*
X29447619Y-94504380D01*
X29542857Y-94552000D01*
X29590476Y-94599619D01*
X29638095Y-94694857D01*
X29638095Y-94837714D01*
X29590476Y-94932952D01*
X29542857Y-94980571D01*
X29447619Y-95028190D01*
X29066666Y-95028190D01*
X30590476Y-95504380D02*
X30019047Y-95504380D01*
X30304761Y-95504380D02*
X30304761Y-94504380D01*
X30209523Y-94647238D01*
X30114285Y-94742476D01*
X30019047Y-94790095D01*
X31542857Y-95504380D02*
X30971428Y-95504380D01*
X31257142Y-95504380D02*
X31257142Y-94504380D01*
X31161904Y-94647238D01*
X31066666Y-94742476D01*
X30971428Y-94790095D01*
%TO.C,TP3*%
X28638095Y-82354380D02*
X29209523Y-82354380D01*
X28923809Y-83354380D02*
X28923809Y-82354380D01*
X29542857Y-83354380D02*
X29542857Y-82354380D01*
X29923809Y-82354380D01*
X30019047Y-82402000D01*
X30066666Y-82449619D01*
X30114285Y-82544857D01*
X30114285Y-82687714D01*
X30066666Y-82782952D01*
X30019047Y-82830571D01*
X29923809Y-82878190D01*
X29542857Y-82878190D01*
X30447619Y-82354380D02*
X31066666Y-82354380D01*
X30733333Y-82735333D01*
X30876190Y-82735333D01*
X30971428Y-82782952D01*
X31019047Y-82830571D01*
X31066666Y-82925809D01*
X31066666Y-83163904D01*
X31019047Y-83259142D01*
X30971428Y-83306761D01*
X30876190Y-83354380D01*
X30590476Y-83354380D01*
X30495238Y-83306761D01*
X30447619Y-83259142D01*
%TO.C,TP16*%
X44361904Y-98554380D02*
X44933333Y-98554380D01*
X44647619Y-99554380D02*
X44647619Y-98554380D01*
X45266666Y-99554380D02*
X45266666Y-98554380D01*
X45647619Y-98554380D01*
X45742857Y-98602000D01*
X45790476Y-98649619D01*
X45838095Y-98744857D01*
X45838095Y-98887714D01*
X45790476Y-98982952D01*
X45742857Y-99030571D01*
X45647619Y-99078190D01*
X45266666Y-99078190D01*
X46790476Y-99554380D02*
X46219047Y-99554380D01*
X46504761Y-99554380D02*
X46504761Y-98554380D01*
X46409523Y-98697238D01*
X46314285Y-98792476D01*
X46219047Y-98840095D01*
X47647619Y-98554380D02*
X47457142Y-98554380D01*
X47361904Y-98602000D01*
X47314285Y-98649619D01*
X47219047Y-98792476D01*
X47171428Y-98982952D01*
X47171428Y-99363904D01*
X47219047Y-99459142D01*
X47266666Y-99506761D01*
X47361904Y-99554380D01*
X47552380Y-99554380D01*
X47647619Y-99506761D01*
X47695238Y-99459142D01*
X47742857Y-99363904D01*
X47742857Y-99125809D01*
X47695238Y-99030571D01*
X47647619Y-98982952D01*
X47552380Y-98935333D01*
X47361904Y-98935333D01*
X47266666Y-98982952D01*
X47219047Y-99030571D01*
X47171428Y-99125809D01*
%TO.C,TP20*%
X44361904Y-82354380D02*
X44933333Y-82354380D01*
X44647619Y-83354380D02*
X44647619Y-82354380D01*
X45266666Y-83354380D02*
X45266666Y-82354380D01*
X45647619Y-82354380D01*
X45742857Y-82402000D01*
X45790476Y-82449619D01*
X45838095Y-82544857D01*
X45838095Y-82687714D01*
X45790476Y-82782952D01*
X45742857Y-82830571D01*
X45647619Y-82878190D01*
X45266666Y-82878190D01*
X46219047Y-82449619D02*
X46266666Y-82402000D01*
X46361904Y-82354380D01*
X46600000Y-82354380D01*
X46695238Y-82402000D01*
X46742857Y-82449619D01*
X46790476Y-82544857D01*
X46790476Y-82640095D01*
X46742857Y-82782952D01*
X46171428Y-83354380D01*
X46790476Y-83354380D01*
X47409523Y-82354380D02*
X47504761Y-82354380D01*
X47600000Y-82402000D01*
X47647619Y-82449619D01*
X47695238Y-82544857D01*
X47742857Y-82735333D01*
X47742857Y-82973428D01*
X47695238Y-83163904D01*
X47647619Y-83259142D01*
X47600000Y-83306761D01*
X47504761Y-83354380D01*
X47409523Y-83354380D01*
X47314285Y-83306761D01*
X47266666Y-83259142D01*
X47219047Y-83163904D01*
X47171428Y-82973428D01*
X47171428Y-82735333D01*
X47219047Y-82544857D01*
X47266666Y-82449619D01*
X47314285Y-82402000D01*
X47409523Y-82354380D01*
%TO.C,TP21*%
X40311904Y-82354380D02*
X40883333Y-82354380D01*
X40597619Y-83354380D02*
X40597619Y-82354380D01*
X41216666Y-83354380D02*
X41216666Y-82354380D01*
X41597619Y-82354380D01*
X41692857Y-82402000D01*
X41740476Y-82449619D01*
X41788095Y-82544857D01*
X41788095Y-82687714D01*
X41740476Y-82782952D01*
X41692857Y-82830571D01*
X41597619Y-82878190D01*
X41216666Y-82878190D01*
X42169047Y-82449619D02*
X42216666Y-82402000D01*
X42311904Y-82354380D01*
X42550000Y-82354380D01*
X42645238Y-82402000D01*
X42692857Y-82449619D01*
X42740476Y-82544857D01*
X42740476Y-82640095D01*
X42692857Y-82782952D01*
X42121428Y-83354380D01*
X42740476Y-83354380D01*
X43692857Y-83354380D02*
X43121428Y-83354380D01*
X43407142Y-83354380D02*
X43407142Y-82354380D01*
X43311904Y-82497238D01*
X43216666Y-82592476D01*
X43121428Y-82640095D01*
%TO.C,TP31*%
X48411904Y-90454380D02*
X48983333Y-90454380D01*
X48697619Y-91454380D02*
X48697619Y-90454380D01*
X49316666Y-91454380D02*
X49316666Y-90454380D01*
X49697619Y-90454380D01*
X49792857Y-90502000D01*
X49840476Y-90549619D01*
X49888095Y-90644857D01*
X49888095Y-90787714D01*
X49840476Y-90882952D01*
X49792857Y-90930571D01*
X49697619Y-90978190D01*
X49316666Y-90978190D01*
X50221428Y-90454380D02*
X50840476Y-90454380D01*
X50507142Y-90835333D01*
X50650000Y-90835333D01*
X50745238Y-90882952D01*
X50792857Y-90930571D01*
X50840476Y-91025809D01*
X50840476Y-91263904D01*
X50792857Y-91359142D01*
X50745238Y-91406761D01*
X50650000Y-91454380D01*
X50364285Y-91454380D01*
X50269047Y-91406761D01*
X50221428Y-91359142D01*
X51792857Y-91454380D02*
X51221428Y-91454380D01*
X51507142Y-91454380D02*
X51507142Y-90454380D01*
X51411904Y-90597238D01*
X51316666Y-90692476D01*
X51221428Y-90740095D01*
%TO.C,TP8*%
X44838095Y-86404380D02*
X45409523Y-86404380D01*
X45123809Y-87404380D02*
X45123809Y-86404380D01*
X45742857Y-87404380D02*
X45742857Y-86404380D01*
X46123809Y-86404380D01*
X46219047Y-86452000D01*
X46266666Y-86499619D01*
X46314285Y-86594857D01*
X46314285Y-86737714D01*
X46266666Y-86832952D01*
X46219047Y-86880571D01*
X46123809Y-86928190D01*
X45742857Y-86928190D01*
X46885714Y-86832952D02*
X46790476Y-86785333D01*
X46742857Y-86737714D01*
X46695238Y-86642476D01*
X46695238Y-86594857D01*
X46742857Y-86499619D01*
X46790476Y-86452000D01*
X46885714Y-86404380D01*
X47076190Y-86404380D01*
X47171428Y-86452000D01*
X47219047Y-86499619D01*
X47266666Y-86594857D01*
X47266666Y-86642476D01*
X47219047Y-86737714D01*
X47171428Y-86785333D01*
X47076190Y-86832952D01*
X46885714Y-86832952D01*
X46790476Y-86880571D01*
X46742857Y-86928190D01*
X46695238Y-87023428D01*
X46695238Y-87213904D01*
X46742857Y-87309142D01*
X46790476Y-87356761D01*
X46885714Y-87404380D01*
X47076190Y-87404380D01*
X47171428Y-87356761D01*
X47219047Y-87309142D01*
X47266666Y-87213904D01*
X47266666Y-87023428D01*
X47219047Y-86928190D01*
X47171428Y-86880571D01*
X47076190Y-86832952D01*
%TO.C,TP7*%
X28638095Y-90454380D02*
X29209523Y-90454380D01*
X28923809Y-91454380D02*
X28923809Y-90454380D01*
X29542857Y-91454380D02*
X29542857Y-90454380D01*
X29923809Y-90454380D01*
X30019047Y-90502000D01*
X30066666Y-90549619D01*
X30114285Y-90644857D01*
X30114285Y-90787714D01*
X30066666Y-90882952D01*
X30019047Y-90930571D01*
X29923809Y-90978190D01*
X29542857Y-90978190D01*
X30447619Y-90454380D02*
X31114285Y-90454380D01*
X30685714Y-91454380D01*
%TO.C,TP24*%
X40311904Y-94504380D02*
X40883333Y-94504380D01*
X40597619Y-95504380D02*
X40597619Y-94504380D01*
X41216666Y-95504380D02*
X41216666Y-94504380D01*
X41597619Y-94504380D01*
X41692857Y-94552000D01*
X41740476Y-94599619D01*
X41788095Y-94694857D01*
X41788095Y-94837714D01*
X41740476Y-94932952D01*
X41692857Y-94980571D01*
X41597619Y-95028190D01*
X41216666Y-95028190D01*
X42169047Y-94599619D02*
X42216666Y-94552000D01*
X42311904Y-94504380D01*
X42550000Y-94504380D01*
X42645238Y-94552000D01*
X42692857Y-94599619D01*
X42740476Y-94694857D01*
X42740476Y-94790095D01*
X42692857Y-94932952D01*
X42121428Y-95504380D01*
X42740476Y-95504380D01*
X43597619Y-94837714D02*
X43597619Y-95504380D01*
X43359523Y-94456761D02*
X43121428Y-95171047D01*
X43740476Y-95171047D01*
%TO.C,TP6*%
X28638095Y-86404380D02*
X29209523Y-86404380D01*
X28923809Y-87404380D02*
X28923809Y-86404380D01*
X29542857Y-87404380D02*
X29542857Y-86404380D01*
X29923809Y-86404380D01*
X30019047Y-86452000D01*
X30066666Y-86499619D01*
X30114285Y-86594857D01*
X30114285Y-86737714D01*
X30066666Y-86832952D01*
X30019047Y-86880571D01*
X29923809Y-86928190D01*
X29542857Y-86928190D01*
X30971428Y-86404380D02*
X30780952Y-86404380D01*
X30685714Y-86452000D01*
X30638095Y-86499619D01*
X30542857Y-86642476D01*
X30495238Y-86832952D01*
X30495238Y-87213904D01*
X30542857Y-87309142D01*
X30590476Y-87356761D01*
X30685714Y-87404380D01*
X30876190Y-87404380D01*
X30971428Y-87356761D01*
X31019047Y-87309142D01*
X31066666Y-87213904D01*
X31066666Y-86975809D01*
X31019047Y-86880571D01*
X30971428Y-86832952D01*
X30876190Y-86785333D01*
X30685714Y-86785333D01*
X30590476Y-86832952D01*
X30542857Y-86880571D01*
X30495238Y-86975809D01*
%TO.C,U1*%
X47325000Y-63175000D02*
X47325000Y-62500000D01*
X57675000Y-52825000D02*
X57675000Y-53500000D01*
X47900000Y-63175000D02*
X47900000Y-64450000D01*
X57675000Y-52825000D02*
X57000000Y-52825000D01*
X47325000Y-63175000D02*
X47900000Y-63175000D01*
X47325000Y-52825000D02*
X47325000Y-53500000D01*
X47325000Y-52825000D02*
X48000000Y-52825000D01*
X57675000Y-63175000D02*
X57000000Y-63175000D01*
X57675000Y-63175000D02*
X57675000Y-62500000D01*
D10*
%TO.C,C2*%
X67440000Y-59684165D02*
X67440000Y-59915835D01*
X68160000Y-59684165D02*
X68160000Y-59915835D01*
%TO.C,C3*%
X64984165Y-62460000D02*
X65215835Y-62460000D01*
X64984165Y-61740000D02*
X65215835Y-61740000D01*
%TO.C,C4*%
X68484165Y-41140000D02*
X68715835Y-41140000D01*
X68484165Y-41860000D02*
X68715835Y-41860000D01*
%TO.C,C5*%
X38640000Y-42315835D02*
X38640000Y-42084165D01*
X39360000Y-42315835D02*
X39360000Y-42084165D01*
%TO.C,C6*%
X41540000Y-42515835D02*
X41540000Y-42284165D01*
X42260000Y-42515835D02*
X42260000Y-42284165D01*
%TO.C,C7*%
X64153733Y-78290000D02*
X64446267Y-78290000D01*
X64153733Y-79310000D02*
X64446267Y-79310000D01*
%TO.C,C10*%
X42940000Y-42715835D02*
X42940000Y-42484165D01*
X43660000Y-42715835D02*
X43660000Y-42484165D01*
%TO.C,C11*%
X44860000Y-42915835D02*
X44860000Y-42684165D01*
X44140000Y-42915835D02*
X44140000Y-42684165D01*
%TO.C,C12*%
X54184165Y-79360000D02*
X54415835Y-79360000D01*
X54184165Y-78640000D02*
X54415835Y-78640000D01*
%TO.C,C13*%
X50584165Y-83060000D02*
X50815835Y-83060000D01*
X50584165Y-82340000D02*
X50815835Y-82340000D01*
%TO.C,C14*%
X46853733Y-43410000D02*
X47146267Y-43410000D01*
X46853733Y-42390000D02*
X47146267Y-42390000D01*
%TO.C,C15*%
X50553733Y-42490000D02*
X50846267Y-42490000D01*
X50553733Y-43510000D02*
X50846267Y-43510000D01*
%TO.C,C16*%
X44015835Y-60760000D02*
X43784165Y-60760000D01*
X44015835Y-60040000D02*
X43784165Y-60040000D01*
%TO.C,C17*%
X49460000Y-66484165D02*
X49460000Y-66715835D01*
X48740000Y-66484165D02*
X48740000Y-66715835D01*
%TO.C,C19*%
X44015835Y-62360000D02*
X43784165Y-62360000D01*
X44015835Y-61640000D02*
X43784165Y-61640000D01*
%TO.C,C20*%
X60984165Y-59840000D02*
X61215835Y-59840000D01*
X60984165Y-60560000D02*
X61215835Y-60560000D01*
%TO.C,C21*%
X59084165Y-49640000D02*
X59315835Y-49640000D01*
X59084165Y-50360000D02*
X59315835Y-50360000D01*
%TO.C,C22*%
X44015835Y-54360000D02*
X43784165Y-54360000D01*
X44015835Y-53640000D02*
X43784165Y-53640000D01*
%TO.C,C27*%
X65484165Y-98660000D02*
X65715835Y-98660000D01*
X65484165Y-97940000D02*
X65715835Y-97940000D01*
%TO.C,D2*%
X27260000Y-39565000D02*
X24800000Y-39565000D01*
X27260000Y-41035000D02*
X27260000Y-39565000D01*
X24800000Y-41035000D02*
X27260000Y-41035000D01*
%TO.C,D5*%
X69665000Y-99900000D02*
X69665000Y-102360000D01*
X71135000Y-102360000D02*
X71135000Y-99900000D01*
X69665000Y-102360000D02*
X71135000Y-102360000D01*
%TO.C,D6*%
X62640000Y-86065000D02*
X62640000Y-87535000D01*
X65100000Y-86065000D02*
X62640000Y-86065000D01*
X62640000Y-87535000D02*
X65100000Y-87535000D01*
%TO.C,D9*%
X28200000Y-30565000D02*
X25740000Y-30565000D01*
X25740000Y-30565000D02*
X25740000Y-32035000D01*
X25740000Y-32035000D02*
X28200000Y-32035000D01*
%TO.C,FB1*%
X61789758Y-98060000D02*
X62610242Y-98060000D01*
X61789758Y-96940000D02*
X62610242Y-96940000D01*
%TO.C,J2*%
X33410000Y-30990000D02*
X33410000Y-30660000D01*
X39380000Y-30660000D02*
X39380000Y-28000000D01*
X52970000Y-31057071D02*
X52970000Y-30660000D01*
X42810000Y-31057071D02*
X42810000Y-30660000D01*
X58050000Y-31057071D02*
X58050000Y-30660000D01*
X47890000Y-31057071D02*
X47890000Y-30660000D01*
X57160000Y-30660000D02*
X57160000Y-28000000D01*
X54620000Y-30660000D02*
X54620000Y-28000000D01*
X36840000Y-30660000D02*
X36840000Y-28000000D01*
X52080000Y-30660000D02*
X52080000Y-28000000D01*
X31700000Y-30660000D02*
X62300000Y-30660000D01*
X32650000Y-30990000D02*
X32650000Y-30660000D01*
X62300000Y-30660000D02*
X62300000Y-28000000D01*
X59700000Y-30660000D02*
X59700000Y-28000000D01*
X33030000Y-33370000D02*
X31760000Y-33370000D01*
X48650000Y-31057071D02*
X48650000Y-30660000D01*
X31700000Y-28000000D02*
X31700000Y-30660000D01*
X35950000Y-31057071D02*
X35950000Y-30660000D01*
X56270000Y-31057071D02*
X56270000Y-30660000D01*
X41030000Y-31057071D02*
X41030000Y-30660000D01*
X43570000Y-31057071D02*
X43570000Y-30660000D01*
X41920000Y-30660000D02*
X41920000Y-28000000D01*
X35190000Y-31057071D02*
X35190000Y-30660000D01*
X49540000Y-30660000D02*
X49540000Y-28000000D01*
X53730000Y-31057071D02*
X53730000Y-30660000D01*
X58810000Y-31057071D02*
X58810000Y-30660000D01*
X34300000Y-30660000D02*
X34300000Y-28000000D01*
X44460000Y-30660000D02*
X44460000Y-28000000D01*
X50430000Y-31057071D02*
X50430000Y-30660000D01*
X60590000Y-31057071D02*
X60590000Y-30660000D01*
X61350000Y-31057071D02*
X61350000Y-30660000D01*
X40270000Y-31057071D02*
X40270000Y-30660000D01*
X31760000Y-33370000D02*
X31760000Y-32100000D01*
X62300000Y-28000000D02*
X31700000Y-28000000D01*
X55510000Y-31057071D02*
X55510000Y-30660000D01*
X38490000Y-31057071D02*
X38490000Y-30660000D01*
X37730000Y-31057071D02*
X37730000Y-30660000D01*
X51190000Y-31057071D02*
X51190000Y-30660000D01*
X47000000Y-30660000D02*
X47000000Y-28000000D01*
%TO.C,R1*%
X61215835Y-61560000D02*
X60984165Y-61560000D01*
X61215835Y-60840000D02*
X60984165Y-60840000D01*
%TO.C,R2*%
X60984165Y-41140000D02*
X61215835Y-41140000D01*
X60984165Y-41860000D02*
X61215835Y-41860000D01*
%TO.C,R3*%
X65884165Y-41960000D02*
X66115835Y-41960000D01*
X65884165Y-41240000D02*
X66115835Y-41240000D01*
%TO.C,R4*%
X63384165Y-41140000D02*
X63615835Y-41140000D01*
X63384165Y-41860000D02*
X63615835Y-41860000D01*
%TO.C,R6*%
X69984165Y-97840000D02*
X70215835Y-97840000D01*
X69984165Y-98560000D02*
X70215835Y-98560000D01*
%TO.C,R7*%
X67284165Y-87140000D02*
X67515835Y-87140000D01*
X67284165Y-87860000D02*
X67515835Y-87860000D01*
%TO.C,R9*%
X25684165Y-35560000D02*
X25915835Y-35560000D01*
X25684165Y-34840000D02*
X25915835Y-34840000D01*
%TO.C,R10*%
X25784165Y-32540000D02*
X26015835Y-32540000D01*
X25784165Y-33260000D02*
X26015835Y-33260000D01*
%TO.C,R11*%
X25784165Y-34360000D02*
X26015835Y-34360000D01*
X25784165Y-33640000D02*
X26015835Y-33640000D01*
%TO.C,R12*%
X50684165Y-80460000D02*
X50915835Y-80460000D01*
X50684165Y-79740000D02*
X50915835Y-79740000D01*
%TO.C,R13*%
X23884165Y-30540000D02*
X24115835Y-30540000D01*
X23884165Y-31260000D02*
X24115835Y-31260000D01*
%TO.C,R14*%
X27116665Y-29340000D02*
X27348335Y-29340000D01*
X27116665Y-30060000D02*
X27348335Y-30060000D01*
%TO.C,R15*%
X24553733Y-56810000D02*
X24846267Y-56810000D01*
X24553733Y-55790000D02*
X24846267Y-55790000D01*
%TO.C,R16*%
X50684165Y-81040000D02*
X50915835Y-81040000D01*
X50684165Y-81760000D02*
X50915835Y-81760000D01*
%TO.C,R17*%
X41010000Y-42346267D02*
X41010000Y-42053733D01*
X39990000Y-42346267D02*
X39990000Y-42053733D01*
%TO.C,R20*%
X51460000Y-66715835D02*
X51460000Y-66484165D01*
X50740000Y-66715835D02*
X50740000Y-66484165D01*
%TO.C,R21*%
X49740000Y-66715835D02*
X49740000Y-66484165D01*
X50460000Y-66715835D02*
X50460000Y-66484165D01*
%TO.C,U2*%
X62075000Y-40525000D02*
X62075000Y-40265000D01*
X62075000Y-35075000D02*
X62075000Y-35335000D01*
X62075000Y-35335000D02*
X60400000Y-35335000D01*
X64800000Y-40525000D02*
X62075000Y-40525000D01*
X67525000Y-40525000D02*
X67525000Y-40265000D01*
X64800000Y-40525000D02*
X67525000Y-40525000D01*
X64800000Y-35075000D02*
X67525000Y-35075000D01*
X64800000Y-35075000D02*
X62075000Y-35075000D01*
X67525000Y-35075000D02*
X67525000Y-35335000D01*
%TO.C,U4*%
X56150000Y-79940000D02*
X53700000Y-79940000D01*
X54350000Y-83160000D02*
X56150000Y-83160000D01*
%TO.C,SW1*%
X62500000Y-96000000D02*
X65500000Y-96000000D01*
X65500000Y-95600000D02*
X64200000Y-95600000D01*
X66800000Y-90400000D02*
X67800000Y-91400000D01*
X66800000Y-90400000D02*
X64200000Y-90400000D01*
X64200000Y-90400000D02*
X63200000Y-91400000D01*
X62500000Y-90500000D02*
X62500000Y-90000000D01*
X66800000Y-95600000D02*
X67800000Y-94600000D01*
X68500000Y-96000000D02*
X68500000Y-95500000D01*
X65500000Y-95600000D02*
X66800000Y-95600000D01*
X62500000Y-95500000D02*
X62500000Y-96000000D01*
X65500000Y-96000000D02*
X68500000Y-96000000D01*
X64200000Y-95600000D02*
X63200000Y-94600000D01*
X62500000Y-90000000D02*
X68500000Y-90000000D01*
X68500000Y-90000000D02*
X68500000Y-90500000D01*
X66500000Y-93000000D02*
G75*
G03*
X66500000Y-93000000I-1000000J0D01*
G01*
%TO.C,SW2*%
X32242284Y-62080761D02*
X32242284Y-63494975D01*
X38889087Y-62646447D02*
X39242641Y-63000000D01*
X33161522Y-61161522D02*
X34080761Y-60242284D01*
X35353553Y-59110913D02*
X35000000Y-58757359D01*
X39242641Y-63000000D02*
X35000000Y-67242641D01*
X37757716Y-63919239D02*
X37757716Y-62505025D01*
X35000000Y-67242641D02*
X34646447Y-66889087D01*
X32878680Y-60878680D02*
X30757359Y-63000000D01*
X30757359Y-63000000D02*
X31110913Y-63353553D01*
X35000000Y-58757359D02*
X32878680Y-60878680D01*
X35919239Y-65757716D02*
X37757716Y-63919239D01*
X33161522Y-61161522D02*
X32242284Y-62080761D01*
X34080761Y-60242284D02*
X35494975Y-60242284D01*
X35919239Y-65757716D02*
X34505025Y-65757716D01*
X36000000Y-63000000D02*
G75*
G03*
X36000000Y-63000000I-1000000J0D01*
G01*
%TO.C,SW4*%
X26661522Y-71338478D02*
X27580761Y-72257716D01*
X26378680Y-71621320D02*
X28500000Y-73742641D01*
X32742641Y-69500000D02*
X32389087Y-69853553D01*
X24610913Y-69146447D02*
X24257359Y-69500000D01*
X27580761Y-72257716D02*
X28994975Y-72257716D01*
X29419239Y-66742284D02*
X28005025Y-66742284D01*
X25742284Y-70419239D02*
X25742284Y-69005025D01*
X28500000Y-73742641D02*
X28853553Y-73389087D01*
X31257716Y-68580761D02*
X31257716Y-69994975D01*
X28500000Y-65257359D02*
X32742641Y-69500000D01*
X24257359Y-69500000D02*
X26378680Y-71621320D01*
X31257716Y-68580761D02*
X29419239Y-66742284D01*
X26661522Y-71338478D02*
X25742284Y-70419239D01*
X28146447Y-65610913D02*
X28500000Y-65257359D01*
X29500000Y-69500000D02*
G75*
G03*
X29500000Y-69500000I-1000000J0D01*
G01*
%TO.C,SW5*%
X37257359Y-69500000D02*
X37610913Y-69146447D01*
X40580761Y-72257716D02*
X41994975Y-72257716D01*
X41500000Y-65257359D02*
X41146447Y-65610913D01*
X44257716Y-68580761D02*
X44257716Y-69994975D01*
X38742284Y-70419239D02*
X40580761Y-72257716D01*
X41853553Y-73389087D02*
X41500000Y-73742641D01*
X43338478Y-67661522D02*
X42419239Y-66742284D01*
X43338478Y-67661522D02*
X44257716Y-68580761D01*
X42419239Y-66742284D02*
X41005025Y-66742284D01*
X45389087Y-69853553D02*
X45742641Y-69500000D01*
X41500000Y-73742641D02*
X37257359Y-69500000D01*
X38742284Y-70419239D02*
X38742284Y-69005025D01*
X43621320Y-67378680D02*
X41500000Y-65257359D01*
X45742641Y-69500000D02*
X43621320Y-67378680D01*
X42500000Y-69500000D02*
G75*
G03*
X42500000Y-69500000I-1000000J0D01*
G01*
%TO.C,SW6*%
X59000000Y-76000000D02*
X59000000Y-75500000D01*
X53000000Y-75500000D02*
X53000000Y-76000000D01*
X53000000Y-76000000D02*
X56000000Y-76000000D01*
X56000000Y-75600000D02*
X54700000Y-75600000D01*
X57300000Y-70400000D02*
X58300000Y-71400000D01*
X57300000Y-70400000D02*
X54700000Y-70400000D01*
X54700000Y-75600000D02*
X53700000Y-74600000D01*
X54700000Y-70400000D02*
X53700000Y-71400000D01*
X53000000Y-70000000D02*
X59000000Y-70000000D01*
X53000000Y-70500000D02*
X53000000Y-70000000D01*
X56000000Y-76000000D02*
X59000000Y-76000000D01*
X57300000Y-75600000D02*
X58300000Y-74600000D01*
X56000000Y-75600000D02*
X57300000Y-75600000D01*
X59000000Y-70000000D02*
X59000000Y-70500000D01*
X57000000Y-73000000D02*
G75*
G03*
X57000000Y-73000000I-1000000J0D01*
G01*
%TO.C,SW7*%
X65500000Y-65500000D02*
X62500000Y-65500000D01*
X66800000Y-71100000D02*
X67800000Y-70100000D01*
X68500000Y-71000000D02*
X68500000Y-71500000D01*
X68500000Y-66000000D02*
X68500000Y-65500000D01*
X66800000Y-65900000D02*
X67800000Y-66900000D01*
X64200000Y-71100000D02*
X63200000Y-70100000D01*
X64200000Y-65900000D02*
X63200000Y-66900000D01*
X65500000Y-65900000D02*
X64200000Y-65900000D01*
X64200000Y-71100000D02*
X66800000Y-71100000D01*
X62500000Y-71500000D02*
X62500000Y-71000000D01*
X65500000Y-65900000D02*
X66800000Y-65900000D01*
X62500000Y-65500000D02*
X62500000Y-66000000D01*
X68500000Y-71500000D02*
X62500000Y-71500000D01*
X68500000Y-65500000D02*
X65500000Y-65500000D01*
X66500000Y-68500000D02*
G75*
G03*
X66500000Y-68500000I-1000000J0D01*
G01*
%TO.C,SW3*%
X31110913Y-76353553D02*
X30757359Y-76000000D01*
X37121320Y-78121320D02*
X39242641Y-76000000D01*
X36838478Y-77838478D02*
X35919239Y-78757716D01*
X30757359Y-76000000D02*
X35000000Y-71757359D01*
X36838478Y-77838478D02*
X37757716Y-76919239D01*
X37757716Y-76919239D02*
X37757716Y-75505025D01*
X34646447Y-79889087D02*
X35000000Y-80242641D01*
X35919239Y-78757716D02*
X34505025Y-78757716D01*
X35000000Y-80242641D02*
X37121320Y-78121320D01*
X39242641Y-76000000D02*
X38889087Y-75646447D01*
X34080761Y-73242284D02*
X32242284Y-75080761D01*
X35000000Y-71757359D02*
X35353553Y-72110913D01*
X32242284Y-75080761D02*
X32242284Y-76494975D01*
X34080761Y-73242284D02*
X35494975Y-73242284D01*
X36000000Y-76000000D02*
G75*
G03*
X36000000Y-76000000I-1000000J0D01*
G01*
%TO.C,H4*%
X27800000Y-25000000D02*
G75*
G03*
X27800000Y-25000000I-2800000J0D01*
G01*
%TO.C,H5*%
X71800000Y-25000000D02*
G75*
G03*
X71800000Y-25000000I-2800000J0D01*
G01*
%TO.C,H6*%
X71800000Y-83900000D02*
G75*
G03*
X71800000Y-83900000I-2800000J0D01*
G01*
D13*
%TO.C,J1*%
X56450000Y-48100000D02*
X56450000Y-48950000D01*
D10*
X36400000Y-45800000D02*
X36000000Y-45800000D01*
X57600000Y-45800000D02*
X58000000Y-45800000D01*
X58000000Y-45800000D02*
X58000000Y-49800000D01*
X36000000Y-45800000D02*
X36000000Y-49800000D01*
D13*
X57150000Y-48100000D02*
X57150000Y-48950000D01*
X36850000Y-48100000D02*
X36850000Y-48950000D01*
D10*
%TO.C,J3*%
X67050000Y-99050000D02*
X61550000Y-99050000D01*
X60300000Y-100800000D02*
X60300000Y-102050000D01*
X68300000Y-100800000D02*
X68300000Y-102050000D01*
%TO.C,Y1*%
X63100000Y-61450000D02*
X67100000Y-61450000D01*
X63100000Y-58150000D02*
X63100000Y-61450000D01*
%TO.C,D3*%
X27260000Y-39335000D02*
X27260000Y-37865000D01*
X24800000Y-39335000D02*
X27260000Y-39335000D01*
X27260000Y-37865000D02*
X24800000Y-37865000D01*
%TO.C,D4*%
X24800000Y-37635000D02*
X27260000Y-37635000D01*
X27260000Y-37635000D02*
X27260000Y-36165000D01*
X27260000Y-36165000D02*
X24800000Y-36165000D01*
%TO.C,JP1*%
X32400000Y-42400000D02*
X32400000Y-45400000D01*
X34900000Y-54400000D02*
X32400000Y-54400000D01*
X34900000Y-42400000D02*
X32400000Y-42400000D01*
X32400000Y-54400000D02*
X32400000Y-51400000D01*
X25400000Y-51400000D02*
X25400000Y-54400000D01*
X32400000Y-51400000D02*
X25400000Y-51400000D01*
X25400000Y-42400000D02*
X22900000Y-42400000D01*
X32400000Y-45400000D02*
X25400000Y-45400000D01*
X25400000Y-54400000D02*
X22900000Y-54400000D01*
X34900000Y-42400000D02*
X34900000Y-54400000D01*
X25400000Y-45400000D02*
X25400000Y-42400000D01*
X22900000Y-54400000D02*
X22900000Y-42400000D01*
%TO.C,D8*%
X22440000Y-30135000D02*
X24900000Y-30135000D01*
X24900000Y-28665000D02*
X22440000Y-28665000D01*
X22440000Y-28665000D02*
X22440000Y-30135000D01*
%TO.C,H7*%
X27800000Y-79500000D02*
G75*
G03*
X27800000Y-79500000I-2800000J0D01*
G01*
%TO.C,D7*%
X31660000Y-81765000D02*
X29200000Y-81765000D01*
X29200000Y-83235000D02*
X31660000Y-83235000D01*
X31660000Y-83235000D02*
X31660000Y-81765000D01*
%TO.C,JP2*%
X48770000Y-79930000D02*
X48770000Y-77270000D01*
X44900000Y-79930000D02*
X43570000Y-79930000D01*
X43570000Y-79930000D02*
X43570000Y-78600000D01*
X46170000Y-77270000D02*
X48770000Y-77270000D01*
X46170000Y-79930000D02*
X46170000Y-77270000D01*
X46170000Y-79930000D02*
X48770000Y-79930000D01*
%TO.C,C18*%
X53760000Y-66484165D02*
X53760000Y-66715835D01*
X53040000Y-66484165D02*
X53040000Y-66715835D01*
%TO.C,C28*%
X52760000Y-66484165D02*
X52760000Y-66715835D01*
X52040000Y-66484165D02*
X52040000Y-66715835D01*
%TO.C,TP29*%
X47300000Y-97050000D02*
G75*
G03*
X47300000Y-97050000I-1200000J0D01*
G01*
%TO.C,TP32*%
X59450000Y-84900000D02*
G75*
G03*
X59450000Y-84900000I-1200000J0D01*
G01*
%TO.C,TP14*%
X43250000Y-93000000D02*
G75*
G03*
X43250000Y-93000000I-1200000J0D01*
G01*
%TO.C,TP28*%
X43250000Y-101100000D02*
G75*
G03*
X43250000Y-101100000I-1200000J0D01*
G01*
%TO.C,TP2*%
X47300000Y-93000000D02*
G75*
G03*
X47300000Y-93000000I-1200000J0D01*
G01*
%TO.C,TP27*%
X39200000Y-93000000D02*
G75*
G03*
X39200000Y-93000000I-1200000J0D01*
G01*
%TO.C,TP17*%
X35150000Y-101100000D02*
G75*
G03*
X35150000Y-101100000I-1200000J0D01*
G01*
%TO.C,TP23*%
X31100000Y-101100000D02*
G75*
G03*
X31100000Y-101100000I-1200000J0D01*
G01*
%TO.C,TP30*%
X55400000Y-88950000D02*
G75*
G03*
X55400000Y-88950000I-1200000J0D01*
G01*
%TO.C,TP26*%
X55400000Y-84900000D02*
G75*
G03*
X55400000Y-84900000I-1200000J0D01*
G01*
%TO.C,TP9*%
X35150000Y-88950000D02*
G75*
G03*
X35150000Y-88950000I-1200000J0D01*
G01*
%TO.C,TP15*%
X39200000Y-88950000D02*
G75*
G03*
X39200000Y-88950000I-1200000J0D01*
G01*
%TO.C,TP19*%
X39200000Y-84900000D02*
G75*
G03*
X39200000Y-84900000I-1200000J0D01*
G01*
%TO.C,TP5*%
X35150000Y-84900000D02*
G75*
G03*
X35150000Y-84900000I-1200000J0D01*
G01*
%TO.C,TP4*%
X51350000Y-88950000D02*
G75*
G03*
X51350000Y-88950000I-1200000J0D01*
G01*
%TO.C,TP10*%
X51350000Y-84900000D02*
G75*
G03*
X51350000Y-84900000I-1200000J0D01*
G01*
%TO.C,TP18*%
X43250000Y-88950000D02*
G75*
G03*
X43250000Y-88950000I-1200000J0D01*
G01*
%TO.C,TP12*%
X39200000Y-97050000D02*
G75*
G03*
X39200000Y-97050000I-1200000J0D01*
G01*
%TO.C,TP22*%
X39200000Y-101100000D02*
G75*
G03*
X39200000Y-101100000I-1200000J0D01*
G01*
%TO.C,TP25*%
X35150000Y-97050000D02*
G75*
G03*
X35150000Y-97050000I-1200000J0D01*
G01*
%TO.C,TP13*%
X35150000Y-93000000D02*
G75*
G03*
X35150000Y-93000000I-1200000J0D01*
G01*
%TO.C,TP11*%
X31100000Y-97050000D02*
G75*
G03*
X31100000Y-97050000I-1200000J0D01*
G01*
%TO.C,TP3*%
X31100000Y-84900000D02*
G75*
G03*
X31100000Y-84900000I-1200000J0D01*
G01*
%TO.C,TP16*%
X47300000Y-101100000D02*
G75*
G03*
X47300000Y-101100000I-1200000J0D01*
G01*
%TO.C,TP20*%
X47300000Y-84900000D02*
G75*
G03*
X47300000Y-84900000I-1200000J0D01*
G01*
%TO.C,TP21*%
X43250000Y-84900000D02*
G75*
G03*
X43250000Y-84900000I-1200000J0D01*
G01*
%TO.C,TP31*%
X51350000Y-93000000D02*
G75*
G03*
X51350000Y-93000000I-1200000J0D01*
G01*
%TO.C,TP8*%
X47300000Y-88950000D02*
G75*
G03*
X47300000Y-88950000I-1200000J0D01*
G01*
%TO.C,TP7*%
X31100000Y-93000000D02*
G75*
G03*
X31100000Y-93000000I-1200000J0D01*
G01*
%TO.C,TP24*%
X43250000Y-97050000D02*
G75*
G03*
X43250000Y-97050000I-1200000J0D01*
G01*
%TO.C,TP6*%
X31100000Y-88950000D02*
G75*
G03*
X31100000Y-88950000I-1200000J0D01*
G01*
%TD*%
%LPC*%
D12*
%TO.C,H1*%
X24650000Y-102000000D02*
G75*
G03*
X24650000Y-102000000I-650000J0D01*
G01*
%TO.C,H2*%
X29150000Y-23000000D02*
G75*
G03*
X29150000Y-23000000I-650000J0D01*
G01*
%TO.C,H3*%
X66150000Y-23000000D02*
G75*
G03*
X66150000Y-23000000I-650000J0D01*
G01*
%TO.C,H4*%
X25650000Y-25000000D02*
G75*
G03*
X25650000Y-25000000I-650000J0D01*
G01*
%TO.C,H5*%
X69650000Y-25000000D02*
G75*
G03*
X69650000Y-25000000I-650000J0D01*
G01*
%TO.C,H6*%
X69650000Y-83900000D02*
G75*
G03*
X69650000Y-83900000I-650000J0D01*
G01*
%TO.C,H7*%
X25650000Y-79500000D02*
G75*
G03*
X25650000Y-79500000I-650000J0D01*
G01*
%TD*%
D14*
%TO.C,U1*%
X48500000Y-63700000D03*
X49300000Y-63700000D03*
X50100000Y-63700000D03*
X50900000Y-63700000D03*
X51700000Y-63700000D03*
X52500000Y-63700000D03*
X53300000Y-63700000D03*
X54100000Y-63700000D03*
X54900000Y-63700000D03*
X55700000Y-63700000D03*
X56500000Y-63700000D03*
D15*
X58200000Y-62000000D03*
X58200000Y-61200000D03*
X58200000Y-60400000D03*
X58200000Y-59600000D03*
X58200000Y-58800000D03*
X58200000Y-58000000D03*
X58200000Y-57200000D03*
X58200000Y-56400000D03*
X58200000Y-55600000D03*
X58200000Y-54800000D03*
X58200000Y-54000000D03*
D14*
X56500000Y-52300000D03*
X55700000Y-52300000D03*
X54900000Y-52300000D03*
X54100000Y-52300000D03*
X53300000Y-52300000D03*
X52500000Y-52300000D03*
X51700000Y-52300000D03*
X50900000Y-52300000D03*
X50100000Y-52300000D03*
X49300000Y-52300000D03*
X48500000Y-52300000D03*
D15*
X46800000Y-54000000D03*
X46800000Y-54800000D03*
X46800000Y-55600000D03*
X46800000Y-56400000D03*
X46800000Y-57200000D03*
X46800000Y-58000000D03*
X46800000Y-58800000D03*
X46800000Y-59600000D03*
X46800000Y-60400000D03*
X46800000Y-61200000D03*
X46800000Y-62000000D03*
%TD*%
D16*
%TO.C,C2*%
X67800000Y-59232500D03*
X67800000Y-60367500D03*
%TD*%
D17*
%TO.C,C3*%
X64532500Y-62100000D03*
X65667500Y-62100000D03*
%TD*%
%TO.C,C4*%
X68032500Y-41500000D03*
X69167500Y-41500000D03*
%TD*%
D18*
%TO.C,C5*%
X39000000Y-42767500D03*
X39000000Y-41632500D03*
%TD*%
%TO.C,C6*%
X41900000Y-42967500D03*
X41900000Y-41832500D03*
%TD*%
D19*
%TO.C,C7*%
X63437500Y-78800000D03*
X65162500Y-78800000D03*
%TD*%
D18*
%TO.C,C10*%
X43300000Y-43167500D03*
X43300000Y-42032500D03*
%TD*%
%TO.C,C11*%
X44500000Y-43367500D03*
X44500000Y-42232500D03*
%TD*%
D17*
%TO.C,C12*%
X53732500Y-79000000D03*
X54867500Y-79000000D03*
%TD*%
%TO.C,C13*%
X50132500Y-82700000D03*
X51267500Y-82700000D03*
%TD*%
D19*
%TO.C,C14*%
X46137500Y-42900000D03*
X47862500Y-42900000D03*
%TD*%
%TO.C,C15*%
X49837500Y-43000000D03*
X51562500Y-43000000D03*
%TD*%
D20*
%TO.C,C16*%
X44467500Y-60400000D03*
X43332500Y-60400000D03*
%TD*%
D16*
%TO.C,C17*%
X49100000Y-66032500D03*
X49100000Y-67167500D03*
%TD*%
D20*
%TO.C,C19*%
X44467500Y-62000000D03*
X43332500Y-62000000D03*
%TD*%
D17*
%TO.C,C20*%
X60532500Y-60200000D03*
X61667500Y-60200000D03*
%TD*%
%TO.C,C21*%
X58632500Y-50000000D03*
X59767500Y-50000000D03*
%TD*%
D20*
%TO.C,C22*%
X44467500Y-54000000D03*
X43332500Y-54000000D03*
%TD*%
D17*
%TO.C,C27*%
X65032500Y-98300000D03*
X66167500Y-98300000D03*
%TD*%
D21*
%TO.C,D2*%
X26475000Y-40300000D03*
X24725000Y-40300000D03*
%TD*%
D22*
%TO.C,D5*%
X70400000Y-101575000D03*
X70400000Y-99825000D03*
%TD*%
D23*
%TO.C,D6*%
X63425000Y-86800000D03*
X65175000Y-86800000D03*
%TD*%
%TO.C,D9*%
X26525000Y-31300000D03*
X28275000Y-31300000D03*
%TD*%
D24*
%TO.C,FB1*%
X61050000Y-97500000D03*
X63350000Y-97500000D03*
%TD*%
D25*
%TO.C,J2*%
X60970000Y-32100000D03*
X58430000Y-32100000D03*
X55890000Y-32100000D03*
X53350000Y-32100000D03*
X50810000Y-32100000D03*
X48270000Y-32100000D03*
X43190000Y-32100000D03*
X40650000Y-32100000D03*
X38110000Y-32100000D03*
X35570000Y-32100000D03*
D26*
X33030000Y-32100000D03*
%TD*%
D20*
%TO.C,R1*%
X61667500Y-61200000D03*
X60532500Y-61200000D03*
%TD*%
D17*
%TO.C,R2*%
X60532500Y-41500000D03*
X61667500Y-41500000D03*
%TD*%
%TO.C,R3*%
X65432500Y-41600000D03*
X66567500Y-41600000D03*
%TD*%
%TO.C,R4*%
X62932500Y-41500000D03*
X64067500Y-41500000D03*
%TD*%
%TO.C,R6*%
X69532500Y-98200000D03*
X70667500Y-98200000D03*
%TD*%
%TO.C,R7*%
X66832500Y-87500000D03*
X67967500Y-87500000D03*
%TD*%
%TO.C,R9*%
X25232500Y-35200000D03*
X26367500Y-35200000D03*
%TD*%
%TO.C,R10*%
X25332500Y-32900000D03*
X26467500Y-32900000D03*
%TD*%
%TO.C,R11*%
X25332500Y-34000000D03*
X26467500Y-34000000D03*
%TD*%
%TO.C,R12*%
X50232500Y-80100000D03*
X51367500Y-80100000D03*
%TD*%
%TO.C,R13*%
X23432500Y-30900000D03*
X24567500Y-30900000D03*
%TD*%
%TO.C,R14*%
X26665000Y-29700000D03*
X27800000Y-29700000D03*
%TD*%
D19*
%TO.C,R15*%
X23837500Y-56300000D03*
X25562500Y-56300000D03*
%TD*%
D17*
%TO.C,R16*%
X50232500Y-81400000D03*
X51367500Y-81400000D03*
%TD*%
D27*
%TO.C,R17*%
X40500000Y-43062500D03*
X40500000Y-41337500D03*
%TD*%
D18*
%TO.C,R20*%
X51100000Y-67167500D03*
X51100000Y-66032500D03*
%TD*%
%TO.C,R21*%
X50100000Y-67167500D03*
X50100000Y-66032500D03*
%TD*%
D28*
%TO.C,U2*%
X61200000Y-35895000D03*
X61200000Y-37165000D03*
X61200000Y-38435000D03*
X61200000Y-39705000D03*
X68400000Y-39705000D03*
X68400000Y-38435000D03*
X68400000Y-37165000D03*
X68400000Y-35895000D03*
%TD*%
D29*
%TO.C,U4*%
X53900000Y-80600000D03*
X53900000Y-81550000D03*
X53900000Y-82500000D03*
X56600000Y-82500000D03*
X56600000Y-80600000D03*
%TD*%
D30*
%TO.C,SW1*%
X68500000Y-91125000D03*
X62500000Y-91125000D03*
D31*
X62500000Y-93000000D03*
X68500000Y-93000000D03*
D30*
X62500000Y-94875000D03*
X68500000Y-94875000D03*
%TD*%
D32*
%TO.C,SW2*%
X37121320Y-60878680D03*
D33*
X34204505Y-66447146D03*
X38447146Y-62204505D03*
D32*
X32878680Y-65121320D03*
D33*
X31552854Y-63795495D03*
X35795495Y-59552854D03*
%TD*%
D34*
%TO.C,SW4*%
X31947146Y-70295495D03*
X27704505Y-66052854D03*
D35*
X26378680Y-67378680D03*
D34*
X29295495Y-72947146D03*
D35*
X30621320Y-71621320D03*
D34*
X25052854Y-68704505D03*
%TD*%
D36*
%TO.C,SW5*%
X38052854Y-68704505D03*
X42295495Y-72947146D03*
D37*
X43621320Y-71621320D03*
D36*
X40704505Y-66052854D03*
X44947146Y-70295495D03*
D37*
X39378680Y-67378680D03*
%TD*%
D31*
%TO.C,SW6*%
X53000000Y-73000000D03*
D30*
X53000000Y-71125000D03*
X59000000Y-71125000D03*
X59000000Y-74875000D03*
X53000000Y-74875000D03*
D31*
X59000000Y-73000000D03*
%TD*%
D38*
%TO.C,SW7*%
X68500000Y-68500000D03*
D39*
X62500000Y-70375000D03*
X68500000Y-70375000D03*
X62500000Y-66625000D03*
D38*
X62500000Y-68500000D03*
D39*
X68500000Y-66625000D03*
%TD*%
D40*
%TO.C,SW3*%
X35795495Y-72552854D03*
D41*
X32878680Y-78121320D03*
D40*
X31552854Y-76795495D03*
D41*
X37121320Y-73878680D03*
D40*
X34204505Y-79447146D03*
X38447146Y-75204505D03*
%TD*%
D42*
%TO.C,H1*%
X24000000Y-102000000D03*
%TD*%
%TO.C,H2*%
X28500000Y-23000000D03*
%TD*%
%TO.C,H3*%
X65500000Y-23000000D03*
%TD*%
D43*
%TO.C,H4*%
X25000000Y-25000000D03*
D44*
X25000000Y-25000000D03*
%TD*%
D43*
%TO.C,H5*%
X69000000Y-25000000D03*
D44*
X69000000Y-25000000D03*
%TD*%
%TO.C,H6*%
X69000000Y-83900000D03*
D43*
X69000000Y-83900000D03*
%TD*%
D45*
%TO.C,J1*%
X36850000Y-46300000D03*
X37550000Y-46300000D03*
X38250000Y-46300000D03*
X38950000Y-46300000D03*
X39650000Y-46300000D03*
X40350000Y-46300000D03*
X41050000Y-46300000D03*
X41750000Y-46300000D03*
X42450000Y-46300000D03*
X43150000Y-46300000D03*
X43850000Y-46300000D03*
X44550000Y-46300000D03*
X45250000Y-46300000D03*
X45950000Y-46300000D03*
X46650000Y-46300000D03*
X47350000Y-46300000D03*
X48050000Y-46300000D03*
X48750000Y-46300000D03*
X49450000Y-46300000D03*
X50150000Y-46300000D03*
X50850000Y-46300000D03*
X51550000Y-46300000D03*
X52250000Y-46300000D03*
X52950000Y-46300000D03*
X53650000Y-46300000D03*
X54350000Y-46300000D03*
X55050000Y-46300000D03*
X55750000Y-46300000D03*
X56450000Y-46300000D03*
X57150000Y-46300000D03*
%TD*%
D46*
%TO.C,J3*%
X66300000Y-101025000D03*
X62300000Y-101025000D03*
D47*
X63000000Y-100200000D03*
X63650000Y-100200000D03*
X64300000Y-100200000D03*
X64950000Y-100200000D03*
X65600000Y-100200000D03*
D48*
X60725000Y-99700000D03*
X60725000Y-103150000D03*
X67875000Y-99700000D03*
X67875000Y-103150000D03*
%TD*%
D49*
%TO.C,Y1*%
X64000000Y-60650000D03*
X66200000Y-60650000D03*
X66200000Y-58950000D03*
X64000000Y-58950000D03*
%TD*%
D21*
%TO.C,D3*%
X26475000Y-38600000D03*
X24725000Y-38600000D03*
%TD*%
%TO.C,D4*%
X26475000Y-36900000D03*
X24725000Y-36900000D03*
%TD*%
D50*
%TO.C,JP1*%
X28900000Y-53400000D03*
X28900000Y-43400000D03*
%TD*%
D23*
%TO.C,D8*%
X23225000Y-29400000D03*
X24975000Y-29400000D03*
%TD*%
D44*
%TO.C,H7*%
X25000000Y-79500000D03*
D43*
X25000000Y-79500000D03*
%TD*%
D21*
%TO.C,D7*%
X30875000Y-82500000D03*
X29125000Y-82500000D03*
%TD*%
D26*
%TO.C,JP2*%
X44900000Y-78600000D03*
D25*
X47440000Y-78600000D03*
%TD*%
D16*
%TO.C,C18*%
X53400000Y-66032500D03*
X53400000Y-67167500D03*
%TD*%
%TO.C,C28*%
X52400000Y-66032500D03*
X52400000Y-67167500D03*
%TD*%
D51*
%TO.C,TP29*%
X46100000Y-97050000D03*
%TD*%
%TO.C,TP32*%
X58250000Y-84900000D03*
%TD*%
%TO.C,TP14*%
X42050000Y-93000000D03*
%TD*%
%TO.C,TP28*%
X42050000Y-101100000D03*
%TD*%
%TO.C,TP2*%
X46100000Y-93000000D03*
%TD*%
%TO.C,TP27*%
X38000000Y-93000000D03*
%TD*%
%TO.C,TP17*%
X33950000Y-101100000D03*
%TD*%
%TO.C,TP23*%
X29900000Y-101100000D03*
%TD*%
%TO.C,TP30*%
X54200000Y-88950000D03*
%TD*%
%TO.C,TP26*%
X54200000Y-84900000D03*
%TD*%
%TO.C,TP9*%
X33950000Y-88950000D03*
%TD*%
%TO.C,TP15*%
X38000000Y-88950000D03*
%TD*%
%TO.C,TP19*%
X38000000Y-84900000D03*
%TD*%
%TO.C,TP5*%
X33950000Y-84900000D03*
%TD*%
%TO.C,TP4*%
X50150000Y-88950000D03*
%TD*%
%TO.C,TP10*%
X50150000Y-84900000D03*
%TD*%
%TO.C,TP18*%
X42050000Y-88950000D03*
%TD*%
%TO.C,TP12*%
X38000000Y-97050000D03*
%TD*%
%TO.C,TP22*%
X38000000Y-101100000D03*
%TD*%
%TO.C,TP25*%
X33950000Y-97050000D03*
%TD*%
%TO.C,TP13*%
X33950000Y-93000000D03*
%TD*%
%TO.C,TP11*%
X29900000Y-97050000D03*
%TD*%
%TO.C,TP3*%
X29900000Y-84900000D03*
%TD*%
%TO.C,TP16*%
X46100000Y-101100000D03*
%TD*%
%TO.C,TP20*%
X46100000Y-84900000D03*
%TD*%
%TO.C,TP21*%
X42050000Y-84900000D03*
%TD*%
%TO.C,TP31*%
X50150000Y-93000000D03*
%TD*%
%TO.C,TP8*%
X46100000Y-88950000D03*
%TD*%
%TO.C,TP7*%
X29900000Y-93000000D03*
%TD*%
%TO.C,TP24*%
X42050000Y-97050000D03*
%TD*%
%TO.C,TP6*%
X29900000Y-88950000D03*
%TD*%
M02*
